SplineFontDB: 2.0
FontName: FreeSansBold
FullName: Free Sans Bold
FamilyName: FreeSans
Weight: Bold
Copyright: Copyleft 2002, 2003, 2005, 2008 Free Software Foundation.
Version: $Revision: 1.74 $
ItalicAngle: 0
UnderlinePosition: -155
UnderlineWidth: 69
Ascent: 800
Descent: 200
LayerCount: 2
Layer: 0 0 "Back" 
Layer: 1 0 "Fore" 
NeedsXUIDChange: 1
FSType: 0
OS2Version: 0
OS2_WeightWidthSlopeOnly: 0
OS2_UseTypoMetrics: 0
CreationTime: 1203284335
ModificationTime: 1208087969
PfmFamily: 33
TTFWeight: 700
TTFWidth: 5
LineGap: 90
VLineGap: 0
Panose: 2 11 7 4 2 2 2 2 2 4
OS2TypoAscent: 0
OS2TypoAOffset: 1
OS2TypoDescent: 0
OS2TypoDOffset: 1
OS2TypoLinegap: 0
OS2WinAscent: 900
OS2WinAOffset: 0
OS2WinDescent: 300
OS2WinDOffset: 0
HheadAscent: 900
HheadAOffset: 0
HheadDescent: -300
HheadDOffset: 0
OS2SubXSize: 650
OS2SubYSize: 699
OS2SubXOff: 47
OS2SubYOff: 140
OS2SupXSize: 650
OS2SupYSize: 699
OS2SupXOff: -163
OS2SupYOff: 479
OS2StrikeYSize: 49
OS2StrikeYPos: 258
OS2Vendor: 'GNU '
Lookup: 4 0 1 "'liga' Standard Ligatures in Latin"  {"'liga' Standard Ligatures in Latin subtable"  } ['liga' ('latn' <'dflt' > ) ]
Lookup: 4 0 0 "'nukt' Nukta Forms in Gurmukhi lookup 1"  {"'nukt' Nukta Forms in Gurmukhi lookup 1 subtable"  } ['nukt' ('guru' <'dflt' > ) ]
Lookup: 4 0 1 "'liga' Standard Ligatures in Armenian lookup 2"  {"'liga' Standard Ligatures in Armenian lookup 2 subtable"  } ['liga' ('armn' <'dflt' > ) ]
Lookup: 4 8 0 "'dlig' Discretionary Ligatures in Hebrew lookup 3"  {"'dlig' Discretionary Ligatures in Hebrew lookup 3 subtable"  } ['dlig' ('hebr' <'dflt' > ) ]
Lookup: 4 8 0 "'dlig' Discretionary Ligatures in Latin"  {"'dlig' Discretionary Ligatures in Latin subtable"  } ['dlig' ('latn' <'dflt' > ) ]
Lookup: 4 0 0 "'blwf' Below Base Forms in Gurmukhi lookup 5"  {"'blwf' Below Base Forms in Gurmukhi lookup 5 subtable"  } ['blwf' ('guru' <'dflt' > ) ]

StartChar: exclam
Encoding: 33 33 1
Width: 333
Flags: MW
LayerCount: 2
Fore
SplineSet
262 726 m 1
 262 516 l 1
 220 207 l 1
 153 207 l 1
 112 516 l 1
 112 726 l 1
 262 726 l 1
262 146 m 1
 262 0 l 1
 112 0 l 1
 112 146 l 1
 262 146 l 1
EndSplineSet
Validated: 1
EndChar

StartChar: quotedbl
Encoding: 34 34 2
Width: 474
Flags: MW
LayerCount: 2
Fore
SplineSet
188 729 m 1
 188 599 l 1
 146 470 l 1
 90 470 l 1
 50 599 l 1
 50 729 l 1
 188 729 l 1
424 729 m 1
 424 599 l 1
 382 470 l 1
 326 470 l 1
 286 599 l 1
 286 729 l 1
 424 729 l 1
EndSplineSet
Validated: 1
EndChar

StartChar: numbersign
Encoding: 35 35 3
Width: 556
Flags: MW
LayerCount: 2
Fore
SplineSet
146 -32 m 1
 40 -32 l 1
 80 172 l 1
 3 172 l 1
 3 271 l 1
 100 271 l 1
 130 424 l 1
 31 424 l 1
 31 523 l 1
 150 523 l 1
 184 697 l 1
 289 697 l 1
 255 523 l 1
 358 523 l 1
 392 697 l 1
 497 697 l 1
 463 523 l 1
 553 523 l 1
 553 424 l 1
 444 424 l 1
 413 271 l 1
 513 271 l 1
 513 172 l 1
 394 172 l 1
 354 -32 l 1
 249 -32 l 1
 289 172 l 1
 186 172 l 1
 146 -32 l 1
205 271 m 1
 308 271 l 1
 338 424 l 1
 235 424 l 1
 205 271 l 1
EndSplineSet
Validated: 1
EndChar

StartChar: dollar
Encoding: 36 36 4
Width: 556
Flags: MW
LayerCount: 2
Fore
SplineSet
243 -21 m 1
 100 -7 22 79 22 198 c 2
 22 207 l 1
 153 207 l 1
 156 137 187 96 243 86 c 1
 243 299 l 1
 108 330 39 401 39 512 c 0
 39 624 114 697 243 709 c 1
 243 763 l 1
 311 763 l 1
 311 709 l 1
 437 702 515 623 517 498 c 1
 389 498 l 1
 389 504 l 0
 389 562 360 601 311 608 c 1
 311 407 l 1
 466 364 527 305 527 195 c 0
 527 65 446 -6 311 -21 c 1
 311 -126 l 1
 243 -126 l 1
 243 -21 l 1
243 427 m 1
 243 608 l 1
 188 597 162 567 162 516 c 0
 162 472 187 445 243 427 c 1
311 282 m 1
 311 86 l 1
 367 100 395 133 395 183 c 0
 395 231 367 265 311 282 c 1
EndSplineSet
Validated: 1
EndChar

StartChar: percent
Encoding: 37 37 5
Width: 889
Flags: MW
LayerCount: 2
Fore
SplineSet
206 701 m 0
 309 701 390 620 390 517 c 0
 390 419 306 337 206 337 c 0
 105 337 22 419 22 519 c 0
 22 619 105 701 206 701 c 0
206 602 m 0
 159 602 121 564 121 519 c 0
 121 473 159 435 206 435 c 0
 252 435 291 473 291 518 c 0
 291 565 253 602 206 602 c 0
606 709 m 1
 682 709 l 1
 287 -20 l 1
 210 -20 l 1
 606 709 l 1
679 352 m 0
 782 352 863 271 863 167 c 0
 863 69 779 -13 679 -13 c 0
 578 -13 495 69 495 170 c 0
 495 270 578 352 679 352 c 0
679 253 m 0
 632 253 594 215 594 169 c 0
 594 123 632 85 679 85 c 0
 725 85 764 123 764 168 c 0
 764 215 726 253 679 253 c 0
EndSplineSet
Validated: 1
EndChar

StartChar: ampersand
Encoding: 38 38 6
Width: 722
Flags: MW
LayerCount: 2
Fore
SplineSet
526 373 m 1
 639 373 l 1
 639 357 l 2
 637 281 611 200 571 154 c 1
 694 0 l 1
 533 0 l 1
 487 56 l 1
 406 -5 360 -23 292 -23 c 0
 150 -23 55 63 55 193 c 0
 55 287 95 340 212 401 c 1
 206 409 202 414 200 416 c 2
 172 450 l 2
 144 483 130 519 130 556 c 0
 130 650 212 723 319 723 c 0
 426 723 497 661 497 568 c 0
 497 496 469 453 380 392 c 1
 496 248 l 1
 518 290 526 320 526 363 c 2
 526 373 l 1
278 319 m 1
 231 290 l 2
 204 272 188 243 188 210 c 0
 188 150 240 93 294 93 c 0
 325 93 367 112 414 148 c 1
 278 319 l 1
317 470 m 1
 357 492 377 521 377 556 c 0
 377 593 356 614 320 614 c 0
 286 614 262 594 262 566 c 0
 262 541 267 533 317 470 c 1
EndSplineSet
Validated: 1
EndChar

StartChar: quotesingle
Encoding: 39 39 7
Width: 238
Flags: MW
LayerCount: 2
Fore
SplineSet
188 729 m 1
 188 599 l 1
 146 470 l 1
 90 470 l 1
 50 599 l 1
 50 729 l 1
 188 729 l 1
EndSplineSet
Validated: 1
EndChar

StartChar: parenleft
Encoding: 40 40 8
Width: 333
Flags: MW
LayerCount: 2
Fore
SplineSet
203 729 m 1
 303 729 l 1
 197 525 163 411 163 265 c 0
 163 118 197 6 303 -200 c 1
 203 -200 l 1
 88 -27 40 111 40 265 c 0
 40 418 88 556 203 729 c 1
EndSplineSet
Validated: 1
EndChar

StartChar: parenright
Encoding: 41 41 9
Width: 333
Flags: MW
LayerCount: 2
Fore
SplineSet
122 -200 m 1
 22 -200 l 1
 128 4 162 118 162 264 c 0
 162 411 128 523 22 729 c 1
 122 729 l 1
 237 556 285 418 285 264 c 0
 285 111 237 -27 122 -200 c 1
EndSplineSet
Validated: 1
EndChar

StartChar: asterisk
Encoding: 42 42 10
Width: 389
Flags: MW
LayerCount: 2
Fore
SplineSet
132 544 m 1
 23 580 l 1
 45 649 l 1
 154 613 l 1
 154 729 l 1
 226 729 l 1
 226 613 l 1
 335 649 l 1
 357 579 l 1
 248 544 l 1
 315 450 l 1
 257 407 l 1
 190 501 l 1
 123 407 l 1
 65 450 l 1
 132 544 l 1
EndSplineSet
Validated: 1
EndChar

StartChar: plus
Encoding: 43 43 11
Width: 584
Flags: MW
LayerCount: 2
Fore
SplineSet
533 291 m 1
 533 172 l 1
 351 172 l 1
 351 -10 l 1
 232 -10 l 1
 232 172 l 1
 50 172 l 1
 50 291 l 1
 232 291 l 1
 232 473 l 1
 351 473 l 1
 351 291 l 1
 533 291 l 1
EndSplineSet
Validated: 1
EndChar

StartChar: comma
Encoding: 44 44 12
Width: 278
Flags: MW
LayerCount: 2
Fore
SplineSet
64 146 m 1
 214 146 l 1
 214 9 l 2
 214 -69 200 -157 64 -174 c 1
 64 -118 l 1
 123 -106 150 -71 150 -3 c 2
 150 0 l 1
 64 0 l 1
 64 146 l 1
EndSplineSet
Validated: 1
EndChar

StartChar: hyphen
Encoding: 45 45 13
Width: 333
Flags: MW
LayerCount: 2
Fore
SplineSet
298 342 m 1
 298 207 l 1
 26 207 l 1
 26 342 l 1
 298 342 l 1
EndSplineSet
Validated: 1
EndChar

StartChar: period
Encoding: 46 46 14
Width: 278
Flags: MW
LayerCount: 2
Fore
SplineSet
214 146 m 1
 214 0 l 1
 64 0 l 1
 64 146 l 1
 214 146 l 1
EndSplineSet
Validated: 1
EndChar

StartChar: slash
Encoding: 47 47 15
Width: 278
Flags: MW
LayerCount: 2
Fore
SplineSet
208 714 m 1
 275 714 l 1
 69 -14 l 1
 2 -14 l 1
 208 714 l 1
EndSplineSet
Validated: 1
EndChar

StartChar: zero
Encoding: 48 48 16
Width: 556
Flags: MW
LayerCount: 2
Fore
SplineSet
273 -23 m 0
 78 -23 29 144 29 350 c 0
 29 487 48 578 89 633 c 0
 132 692 197 724 273 724 c 0
 356 724 425 687 467 619 c 0
 501 564 517 476 517 346 c 0
 517 147 470 -23 273 -23 c 0
377 349 m 0
 377 570 337 611 273 611 c 0
 201 611 169 552 169 351 c 0
 169 140 208 97 273 97 c 0
 313 97 343 120 359 162 c 0
 369 190 377 270 377 349 c 0
EndSplineSet
Validated: 1
EndChar

StartChar: one
Encoding: 49 49 17
Width: 556
Flags: MW
LayerCount: 2
Fore
SplineSet
238 489 m 1
 68 489 l 1
 68 582 l 1
 190 582 263 625 285 709 c 1
 378 709 l 1
 378 0 l 1
 238 0 l 1
 238 489 l 1
EndSplineSet
Validated: 1
EndChar

StartChar: two
Encoding: 50 50 18
Width: 556
Flags: MW
LayerCount: 2
Fore
SplineSet
515 499 m 0
 515 287 272 252 212 125 c 1
 512 125 l 1
 512 0 l 1
 30 0 l 1
 37 131 75 193 194 276 c 0
 351 386 375 418 375 496 c 0
 375 567 337 610 275 610 c 0
 211 610 174 564 174 485 c 2
 174 462 l 1
 40 462 l 1
 39 473 39 481 39 487 c 0
 39 637 125 724 272 724 c 0
 421 724 515 636 515 499 c 0
EndSplineSet
Validated: 1
EndChar

StartChar: three
Encoding: 51 51 19
Width: 556
Flags: MW
LayerCount: 2
Fore
SplineSet
38 498 m 2
 38 690 177 724 268 724 c 0
 405 724 493 649 493 531 c 0
 493 466 466 421 400 380 c 1
 480 341 516 287 516 204 c 0
 516 66 419 -23 268 -23 c 0
 123 -23 30 66 29 208 c 1
 165 208 l 1
 169 135 205 97 271 97 c 0
 332 97 376 142 376 204 c 0
 376 256 346 297 299 310 c 0
 275 316 266 317 217 317 c 1
 217 411 l 1
 229 411 l 2
 312 411 353 447 353 518 c 0
 353 577 321 611 265 611 c 0
 186 611 170 562 168 486 c 1
 38 486 l 1
 38 498 l 2
EndSplineSet
Validated: 1
EndChar

StartChar: four
Encoding: 52 52 20
Width: 556
Flags: MW
LayerCount: 2
Fore
SplineSet
522 273 m 1
 522 157 l 1
 448 157 l 1
 448 0 l 1
 308 0 l 1
 308 157 l 1
 24 157 l 1
 24 275 l 1
 283 709 l 1
 448 709 l 1
 448 273 l 1
 522 273 l 1
308 273 m 1
 308 576 l 1
 123 273 l 1
 308 273 l 1
EndSplineSet
Validated: 1
EndChar

StartChar: five
Encoding: 53 53 21
Width: 556
Flags: MW
LayerCount: 2
Fore
SplineSet
489 709 m 1
 489 584 l 1
 196 584 l 1
 173 436 l 1
 214 467 249 479 296 479 c 0
 427 479 517 379 517 234 c 0
 517 81 413 -23 261 -23 c 0
 123 -23 29 61 27 185 c 1
 165 185 l 1
 168 128 202 97 263 97 c 0
 333 97 377 148 377 231 c 0
 377 317 334 368 263 368 c 0
 220 368 188 349 173 314 c 1
 47 314 l 1
 110 709 l 1
 489 709 l 1
EndSplineSet
Validated: 1
EndChar

StartChar: six
Encoding: 54 54 22
Width: 556
Flags: MW
LayerCount: 2
Fore
SplineSet
32 337 m 0
 32 555 94 724 294 724 c 0
 337 724 481 716 507 548 c 1
 377 548 l 1
 359 593 335 611 290 611 c 0
 234 611 194 573 181 509 c 0
 175 479 175 479 172 404 c 1
 216 450 255 467 313 467 c 0
 435 467 519 373 519 237 c 0
 519 83 423 -23 282 -23 c 0
 198 -23 124 16 83 82 c 0
 47 139 32 215 32 337 c 0
279 357 m 0
 214 357 170 303 170 225 c 0
 170 150 214 97 278 97 c 0
 340 97 386 152 386 228 c 0
 386 306 344 357 279 357 c 0
EndSplineSet
Validated: 1
EndChar

StartChar: seven
Encoding: 55 55 23
Width: 556
Flags: MW
LayerCount: 2
Fore
SplineSet
528 709 m 1
 528 599 l 1
 360 396 287 224 274 0 c 1
 133 0 l 1
 152 151 177 244 226 347 c 0
 254 409 339 538 382 584 c 1
 29 584 l 1
 29 709 l 1
 528 709 l 1
EndSplineSet
Validated: 1
EndChar

StartChar: eight
Encoding: 56 56 24
Width: 556
Flags: MW
LayerCount: 2
Fore
SplineSet
501 532 m 0
 501 450 458 412 409 386 c 1
 491 342 525 288 525 204 c 0
 525 70 422 -23 274 -23 c 0
 125 -23 22 70 22 204 c 0
 22 288 56 342 138 386 c 1
 74 420 46 463 46 531 c 0
 46 643 142 724 274 724 c 0
 405 724 501 643 501 532 c 0
275 611 m 0
 212 611 169 573 169 519 c 0
 169 464 213 425 275 425 c 0
 336 425 380 464 380 518 c 0
 380 573 337 611 275 611 c 0
273 330 m 0
 206 330 162 284 162 212 c 0
 162 142 205 97 273 97 c 0
 341 97 385 142 385 210 c 0
 385 284 342 330 273 330 c 0
EndSplineSet
Validated: 1
EndChar

StartChar: nine
Encoding: 57 57 25
Width: 556
Flags: MW
LayerCount: 2
Fore
SplineSet
516 370 m 0
 516 35 367 -24 255 -24 c 0
 133 -24 41 56 38 165 c 1
 173 165 l 1
 176 123 210 96 259 96 c 0
 338 96 376 163 376 298 c 1
 359 279 327 228 240 228 c 0
 114 228 28 328 28 474 c 0
 28 622 125 724 267 724 c 0
 367 724 516 671 516 370 c 0
263 610 m 0
 201 610 161 558 161 476 c 0
 161 395 201 344 265 344 c 0
 329 344 373 396 373 474 c 0
 373 557 331 610 263 610 c 0
EndSplineSet
Validated: 1
EndChar

StartChar: colon
Encoding: 58 58 26
Width: 333
Flags: MW
LayerCount: 2
Fore
SplineSet
263 146 m 1
 263 0 l 1
 113 0 l 1
 113 146 l 1
 263 146 l 1
263 520 m 1
 263 374 l 1
 113 374 l 1
 113 520 l 1
 263 520 l 1
EndSplineSet
Validated: 1
EndChar

StartChar: semicolon
Encoding: 59 59 27
Width: 333
Flags: MW
LayerCount: 2
Fore
SplineSet
113 146 m 1
 263 146 l 1
 263 9 l 2
 263 -69 249 -157 113 -174 c 1
 113 -118 l 1
 172 -106 199 -71 199 -3 c 2
 199 0 l 1
 113 0 l 1
 113 146 l 1
263 520 m 1
 263 374 l 1
 113 374 l 1
 113 520 l 1
 263 520 l 1
EndSplineSet
Validated: 1
EndChar

StartChar: less
Encoding: 60 60 28
Width: 584
Flags: MW
LayerCount: 2
Fore
SplineSet
529 474 m 1
 529 365 l 1
 147 232 l 1
 529 101 l 1
 529 -10 l 1
 40 172 l 1
 40 293 l 1
 529 474 l 1
EndSplineSet
Validated: 1
EndChar

StartChar: equal
Encoding: 61 61 29
Width: 584
Flags: MW
LayerCount: 2
Fore
SplineSet
534 411 m 1
 534 292 l 1
 50 292 l 1
 50 411 l 1
 534 411 l 1
534 171 m 1
 534 52 l 1
 50 52 l 1
 50 171 l 1
 534 171 l 1
EndSplineSet
Validated: 1
EndChar

StartChar: greater
Encoding: 62 62 30
Width: 584
Flags: MW
LayerCount: 2
Fore
SplineSet
40 -10 m 1
 40 99 l 1
 422 232 l 1
 40 363 l 1
 40 474 l 1
 529 292 l 1
 529 171 l 1
 40 -10 l 1
EndSplineSet
Validated: 1
EndChar

StartChar: question
Encoding: 63 63 31
Width: 611
Flags: MW
LayerCount: 2
Fore
SplineSet
64 481 m 1
 67 707 210 744 307 744 c 0
 454 744 556 650 556 514 c 0
 556 430 529 386 436 320 c 0
 376 278 369 267 369 201 c 1
 245 201 l 1
 245 206 245 210 245 215 c 0
 245 395 415 391 415 511 c 0
 415 576 370 626 310 626 c 0
 247 626 200 569 200 492 c 0
 200 483 l 1
 200 481 l 1
 64 481 l 1
385 146 m 1
 385 0 l 1
 235 0 l 1
 235 146 l 1
 385 146 l 1
EndSplineSet
Validated: 1
EndChar

StartChar: at
Encoding: 64 64 32
Width: 975
Flags: MW
LayerCount: 2
Fore
SplineSet
258 227 m 0
 258 289 312 518 514 518 c 0
 570 518 604 496 628 446 c 1
 644 508 l 1
 734 508 l 1
 656 228 l 1
 648 198 648 198 648 186 c 0
 648 156 667 137 697 137 c 0
 761 137 858 239 858 370 c 0
 858 449 826 517 760 576 c 0
 690 638 609 668 511 668 c 0
 279 668 124 477 124 266 c 0
 124 64 296 -60 486 -60 c 0
 558 -60 635 -45 693 -19 c 1
 721 -92 l 1
 651 -124 578 -138 484 -138 c 0
 203 -138 27 42 27 264 c 0
 27 380 82 510 170 601 c 0
 262 696 380 745 516 745 c 0
 754 745 947 584 947 355 c 0
 947 169 802 56 697 56 c 0
 627 56 585 92 572 131 c 1
 533 84 477 56 422 56 c 0
 331 56 258 132 258 227 c 0
444 137 m 0
 529 137 595 264 595 345 c 0
 595 408 563 447 511 447 c 0
 433 447 355 346 355 244 c 0
 355 184 394 137 444 137 c 0
EndSplineSet
Validated: 1
EndChar

StartChar: A
Encoding: 65 65 33
Width: 722
Flags: HMW
AnchorPoint: "above" 361 730 basechar 0
LayerCount: 2
Fore
SplineSet
501 147 m 1
 228 147 l 1
 179 0 l 1
 26 0 l 1
 285 729 l 1
 451 729 l 1
 703 0 l 1
 549 0 l 1
 501 147 l 1
460 272 m 1
 365 557 l 1
 270 272 l 1
 460 272 l 1
EndSplineSet
EndChar

StartChar: B
Encoding: 66 66 34
Width: 722
Flags: MW
LayerCount: 2
Fore
SplineSet
666 210 m 0
 666 123 615 0 410 0 c 2
 82 0 l 1
 82 729 l 1
 407 729 l 2
 599 729 645 604 645 537 c 0
 645 475 617 433 545 387 c 1
 627 339 666 282 666 210 c 0
232 604 m 1
 232 439 l 1
 395 439 l 2
 464 439 501 468 501 521 c 0
 501 575 464 604 395 604 c 2
 232 604 l 1
232 314 m 1
 232 125 l 1
 411 125 l 2
 484 125 522 158 522 219 c 0
 522 281 484 314 411 314 c 2
 232 314 l 1
EndSplineSet
Validated: 1
EndChar

StartChar: C
Encoding: 67 67 35
Width: 722
Flags: MW
AnchorPoint: "above" 375 740 basechar 0
LayerCount: 2
Fore
SplineSet
539 482 m 1
 531 519 508 613 383 613 c 0
 265 613 194 517 194 356 c 0
 194 197 262 103 378 103 c 0
 471 103 530 156 539 249 c 1
 685 249 l 1
 676 82 555 -23 374 -23 c 0
 171 -23 44 124 44 358 c 0
 44 594 172 741 378 741 c 0
 548 741 669 646 682 482 c 1
 539 482 l 1
EndSplineSet
Validated: 1
EndChar

StartChar: D
Encoding: 68 68 36
Width: 722
Flags: MW
AnchorPoint: "above" 325 730 basechar 0
LayerCount: 2
Fore
SplineSet
77 0 m 1
 77 729 l 1
 362 729 l 2
 474 729 543 704 592 645 c 0
 650 576 681 477 681 365 c 0
 681 252 650 153 592 85 c 0
 543 26 473 0 362 0 c 2
 77 0 l 1
227 125 m 1
 362 125 l 2
 475 125 531 204 531 364 c 0
 531 525 475 604 362 604 c 2
 227 604 l 1
 227 125 l 1
EndSplineSet
Validated: 1
EndChar

StartChar: E
Encoding: 69 69 37
Width: 667
Flags: MW
LayerCount: 2
Fore
SplineSet
229 314 m 1
 229 125 l 1
 624 125 l 1
 624 0 l 1
 79 0 l 1
 79 729 l 1
 606 729 l 1
 606 604 l 1
 229 604 l 1
 229 439 l 1
 578 439 l 1
 578 314 l 1
 229 314 l 1
EndSplineSet
Validated: 1
EndChar

StartChar: F
Encoding: 70 70 38
Width: 611
Flags: MW
LayerCount: 2
Fore
SplineSet
224 314 m 1
 224 0 l 1
 74 0 l 1
 74 729 l 1
 586 729 l 1
 586 604 l 1
 224 604 l 1
 224 439 l 1
 543 439 l 1
 543 314 l 1
 224 314 l 1
EndSplineSet
Validated: 1
EndChar

StartChar: G
Encoding: 71 71 39
Width: 778
Flags: MW
LayerCount: 2
Fore
SplineSet
570 496 m 1
 549 558 500 613 396 613 c 0
 269 613 192 518 192 361 c 0
 192 211 279 105 400 105 c 0
 437 105 572 129 585 267 c 1
 419 267 l 1
 419 392 l 1
 711 392 l 1
 711 -2 l 1
 621 -2 l 1
 603 94 l 1
 547 12 481 -23 383 -23 c 0
 186 -23 42 138 42 359 c 0
 42 586 185 741 395 741 c 0
 571 741 693 646 711 496 c 1
 570 496 l 1
EndSplineSet
Validated: 1
EndChar

StartChar: H
Encoding: 72 72 40
Width: 722
Flags: MW
AnchorPoint: "above" 361 730 basechar 0
LayerCount: 2
Fore
SplineSet
507 331 m 1
 218 331 l 1
 218 0 l 1
 68 0 l 1
 68 729 l 1
 218 729 l 1
 218 456 l 1
 506 456 l 1
 506 729 l 1
 657 729 l 1
 657 0 l 1
 507 0 l 1
 507 331 l 1
EndSplineSet
Validated: 1
EndChar

StartChar: I
Encoding: 73 73 41
Width: 278
Flags: MW
LayerCount: 2
Fore
SplineSet
213 729 m 1
 213 0 l 1
 63 0 l 1
 63 729 l 1
 213 729 l 1
EndSplineSet
Validated: 1
EndChar

StartChar: J
Encoding: 74 74 42
Width: 556
Flags: MW
LayerCount: 2
Fore
SplineSet
252 -23 m 0
 152 -23 24 21 24 198 c 2
 24 270 l 1
 174 270 l 1
 174 200 l 2
 174 133 198 105 255 105 c 0
 307 105 336 135 336 190 c 2
 336 729 l 1
 486 729 l 1
 486 190 l 2
 486 54 401 -23 252 -23 c 0
EndSplineSet
Validated: 1
EndChar

StartChar: K
Encoding: 75 75 43
Width: 722
Flags: MW
LayerCount: 2
Fore
SplineSet
224 244 m 1
 224 0 l 1
 74 0 l 1
 74 729 l 1
 224 729 l 1
 224 409 l 1
 509 729 l 1
 686 729 l 1
 395 415 l 1
 717 0 l 1
 538 0 l 1
 299 322 l 1
 224 244 l 1
EndSplineSet
Validated: 1
EndChar

StartChar: L
Encoding: 76 76 44
Width: 611
Flags: MW
LayerCount: 2
Fore
SplineSet
230 729 m 1
 230 125 l 1
 579 125 l 1
 579 0 l 1
 80 0 l 1
 80 729 l 1
 230 729 l 1
EndSplineSet
Validated: 1
EndChar

StartChar: M
Encoding: 77 77 45
Width: 833
Flags: MW
LayerCount: 2
Fore
SplineSet
216 568 m 1
 216 0 l 1
 66 0 l 1
 66 729 l 1
 290 729 l 1
 422 149 l 1
 550 729 l 1
 776 729 l 1
 776 0 l 1
 626 0 l 1
 626 568 l 1
 497 0 l 1
 347 0 l 1
 216 568 l 1
EndSplineSet
Validated: 1
EndChar

StartChar: N
Encoding: 78 78 46
Width: 722
Flags: MW
LayerCount: 2
Fore
SplineSet
511 0 m 1
 218 504 l 1
 218 0 l 1
 68 0 l 1
 68 729 l 1
 222 729 l 1
 511 233 l 1
 511 729 l 1
 661 729 l 1
 661 0 l 1
 511 0 l 1
EndSplineSet
Validated: 1
EndChar

StartChar: O
Encoding: 79 79 47
Width: 778
Flags: MW
LayerCount: 2
Fore
SplineSet
40 359 m 0
 40 581 178 741 390 741 c 0
 601 741 742 586 742 354 c 0
 742 145 610 -23 391 -23 c 0
 177 -23 40 137 40 359 c 0
391 613 m 0
 270 613 190 512 190 359 c 0
 190 206 270 105 391 105 c 0
 511 105 592 206 592 355 c 0
 592 513 514 613 391 613 c 0
EndSplineSet
Validated: 1
EndChar

StartChar: P
Encoding: 80 80 48
Width: 667
Flags: MW
LayerCount: 2
Fore
SplineSet
226 260 m 1
 226 0 l 1
 76 0 l 1
 76 729 l 1
 398 729 l 2
 550 729 633 649 633 503 c 0
 633 355 547 260 413 260 c 2
 226 260 l 1
226 385 m 1
 366 385 l 2
 446 385 483 420 483 494 c 0
 483 569 446 604 366 604 c 2
 226 604 l 1
 226 385 l 1
EndSplineSet
Validated: 1
EndChar

StartChar: Q
Encoding: 81 81 49
Width: 778
Flags: MW
LayerCount: 2
Fore
SplineSet
394 741 m 0
 611 741 745 575 745 361 c 0
 745 263 714 163 665 103 c 1
 745 27 l 1
 669 -54 l 1
 583 27 l 1
 525 -8 469 -23 394 -23 c 0
 180 -23 43 139 43 359 c 0
 43 579 180 741 394 741 c 0
480 278 m 1
 562 200 l 1
 584 244 595 298 595 358 c 0
 595 513 516 613 394 613 c 0
 273 613 193 512 193 359 c 0
 193 206 273 105 393 105 c 0
 425 105 458 112 481 124 c 1
 404 197 l 1
 480 278 l 1
EndSplineSet
Validated: 1
EndChar

StartChar: R
Encoding: 82 82 50
Width: 722
Flags: MW
LayerCount: 2
Fore
SplineSet
493 125 m 0
 493 179 495 171 495 202 c 0
 495 263 467 289 402 289 c 2
 230 289 l 1
 230 0 l 1
 80 0 l 1
 80 729 l 1
 471 729 l 2
 628 729 667 613 667 532 c 0
 667 443 626 384 544 352 c 1
 637 312 641 302 645 87 c 0
 645 55 654 40 677 27 c 1
 677 0 l 1
 516 0 l 1
 497 35 493 57 493 125 c 0
517 511 m 0
 517 592 474 604 411 604 c 2
 230 604 l 1
 230 414 l 1
 411 414 l 2
 473 414 517 426 517 511 c 0
EndSplineSet
Validated: 1
EndChar

StartChar: S
Encoding: 83 83 51
Width: 667
Flags: MW
LayerCount: 2
Fore
SplineSet
607 507 m 1
 467 507 l 1
 462 581 409 621 314 621 c 0
 237 621 188 586 188 531 c 0
 188 478 219 457 326 436 c 2
 440 414 l 2
 575 388 633 328 633 213 c 0
 633 65 522 -23 334 -23 c 0
 148 -23 41 62 32 218 c 1
 178 218 l 1
 183 140 240 97 342 97 c 0
 433 97 489 134 489 195 c 0
 489 254 452 282 352 301 c 2
 250 321 l 2
 102 349 45 404 45 517 c 0
 45 659 146 741 321 741 c 0
 434 741 607 706 607 507 c 1
EndSplineSet
Validated: 1
EndChar

StartChar: T
Encoding: 84 84 52
Width: 611
Flags: MW
LayerCount: 2
Fore
SplineSet
385 604 m 1
 385 0 l 1
 235 0 l 1
 235 604 l 1
 14 604 l 1
 14 729 l 1
 598 729 l 1
 598 604 l 1
 385 604 l 1
EndSplineSet
Validated: 1
EndChar

StartChar: U
Encoding: 85 85 53
Width: 722
Flags: MW
LayerCount: 2
Fore
SplineSet
365 -23 m 0
 242 -23 76 29 76 235 c 2
 76 729 l 1
 226 729 l 1
 226 235 l 2
 226 147 271 105 365 105 c 0
 459 105 504 147 504 235 c 2
 504 729 l 1
 654 729 l 1
 654 235 l 2
 654 29 488 -23 365 -23 c 0
EndSplineSet
Validated: 1
EndChar

StartChar: V
Encoding: 86 86 54
Width: 667
Flags: MW
LayerCount: 2
Fore
SplineSet
397 0 m 1
 270 0 l 1
 24 729 l 1
 175 729 l 1
 337 180 l 1
 496 729 l 1
 647 729 l 1
 397 0 l 1
EndSplineSet
Validated: 1
EndChar

StartChar: W
Encoding: 87 87 55
Width: 944
Flags: MW
LayerCount: 2
Fore
SplineSet
730 0 m 1
 595 0 l 1
 473 569 l 1
 354 0 l 1
 219 0 l 1
 13 729 l 1
 172 729 l 1
 285 183 l 1
 398 729 l 1
 546 729 l 1
 664 182 l 1
 773 729 l 1
 932 729 l 1
 730 0 l 1
EndSplineSet
Validated: 1
EndChar

StartChar: X
Encoding: 88 88 56
Width: 667
Flags: MW
LayerCount: 2
Fore
SplineSet
419 372 m 1
 653 0 l 1
 475 0 l 1
 335 253 l 1
 196 0 l 1
 22 0 l 1
 252 367 l 1
 30 729 l 1
 208 729 l 1
 336 489 l 1
 470 729 l 1
 644 729 l 1
 419 372 l 1
EndSplineSet
Validated: 1
EndChar

StartChar: Y
Encoding: 89 89 57
Width: 667
Flags: MW
LayerCount: 2
Fore
SplineSet
419 270 m 1
 419 0 l 1
 269 0 l 1
 269 270 l 1
 27 729 l 1
 194 729 l 1
 343 407 l 1
 482 729 l 1
 650 729 l 1
 419 270 l 1
EndSplineSet
Validated: 1
EndChar

StartChar: Z
Encoding: 90 90 58
Width: 611
Flags: MW
LayerCount: 2
Fore
SplineSet
578 729 m 1
 578 604 l 1
 206 125 l 1
 578 125 l 1
 578 0 l 1
 30 0 l 1
 30 125 l 1
 403 604 l 1
 30 604 l 1
 30 729 l 1
 578 729 l 1
EndSplineSet
Validated: 1
EndChar

StartChar: bracketleft
Encoding: 91 91 59
Width: 333
Flags: MW
LayerCount: 2
Fore
SplineSet
308 729 m 1
 308 627 l 1
 196 627 l 1
 196 -98 l 1
 308 -98 l 1
 308 -200 l 1
 66 -200 l 1
 66 729 l 1
 308 729 l 1
EndSplineSet
Validated: 1
EndChar

StartChar: backslash
Encoding: 92 92 60
Width: 278
Flags: MW
LayerCount: 2
Fore
SplineSet
55 714 m 1
 289 -14 l 1
 222 -14 l 1
 -12 714 l 1
 55 714 l 1
EndSplineSet
Validated: 1
EndChar

StartChar: bracketright
Encoding: 93 93 61
Width: 333
Flags: MW
LayerCount: 2
Fore
SplineSet
18 -200 m 1
 18 -98 l 1
 130 -98 l 1
 130 627 l 1
 18 627 l 1
 18 729 l 1
 260 729 l 1
 260 -200 l 1
 18 -200 l 1
EndSplineSet
Validated: 1
EndChar

StartChar: asciicircum
Encoding: 94 94 62
Width: 584
Flags: MW
LayerCount: 2
Fore
SplineSet
522 270 m 1
 409 270 l 1
 288 570 l 1
 173 270 l 1
 61 270 l 1
 226 695 l 1
 351 695 l 1
 522 270 l 1
EndSplineSet
Validated: 1
EndChar

StartChar: underscore
Encoding: 95 95 63
Width: 556
Flags: MW
LayerCount: 2
Fore
SplineSet
578 -120 m 1
 578 -189 l 1
 -22 -189 l 1
 -22 -120 l 1
 578 -120 l 1
EndSplineSet
Validated: 1
EndChar

StartChar: grave
Encoding: 96 96 64
Width: 333
Flags: MW
LayerCount: 2
Fore
SplineSet
17 757 m 1
 143 757 l 1
 213 607 l 1
 143 607 l 1
 17 757 l 1
EndSplineSet
Validated: 1
EndChar

StartChar: a
Encoding: 97 97 65
Width: 556
Flags: MW
AnchorPoint: "above" 274 550 basechar 0
LayerCount: 2
Fore
SplineSet
192 -23 m 0
 94 -23 28 42 28 139 c 0
 28 236 80 291 187 309 c 2
 243 319 l 2
 289 326 355 329 355 382 c 0
 355 418 328 436 274 436 c 0
 205 436 182 418 175 362 c 1
 40 362 l 1
 49 487 125 549 271 549 c 0
 417 549 492 493 492 383 c 2
 492 83 l 2
 492 55 499 40 524 17 c 1
 524 0 l 1
 372 0 l 1
 359 16 356 26 356 54 c 1
 307 3 252 -23 192 -23 c 0
355 217 m 2
 355 255 l 1
 339 247 333 245 296 238 c 2
 248 229 l 2
 190 217 168 197 168 155 c 0
 168 115 197 90 244 90 c 0
 315 90 355 136 355 217 c 2
EndSplineSet
Validated: 1
EndChar

StartChar: b
Encoding: 98 98 66
Width: 611
Flags: MW
LayerCount: 2
Fore
SplineSet
348 549 m 0
 476 549 575 432 575 263 c 0
 575 100 477 -23 348 -23 c 0
 280 -23 233 2 199 55 c 1
 199 0 l 1
 59 0 l 1
 59 729 l 1
 199 729 l 1
 199 470 l 1
 233 524 281 549 348 549 c 0
317 432 m 0
 247 432 199 363 199 265 c 0
 199 162 246 94 317 94 c 0
 386 94 435 164 435 262 c 0
 435 362 386 432 317 432 c 0
EndSplineSet
Validated: 1
EndChar

StartChar: c
Encoding: 99 99 67
Width: 556
Flags: MW
AnchorPoint: "above" 289 550 basechar 0
LayerCount: 2
Fore
SplineSet
288 436 m 0
 191 436 174 334 174 259 c 0
 174 154 217 90 288 90 c 0
 342 90 370 117 388 187 c 1
 522 187 l 1
 509 58 418 -23 287 -23 c 0
 127 -23 34 81 34 259 c 0
 34 443 128 549 289 549 c 0
 424 549 512 470 522 338 c 1
 388 338 l 1
 372 409 345 436 288 436 c 0
EndSplineSet
Validated: 1
EndChar

StartChar: d
Encoding: 100 100 68
Width: 611
Flags: MW
LayerCount: 2
Fore
SplineSet
256 -23 m 0
 120 -23 29 104 29 262 c 0
 29 425 127 549 256 549 c 0
 323 549 370 524 405 470 c 1
 405 729 l 1
 545 729 l 1
 545 0 l 1
 405 0 l 1
 405 55 l 1
 370 2 323 -23 256 -23 c 0
287 432 m 0
 217 432 169 362 169 262 c 0
 169 163 217 94 287 94 c 0
 357 94 405 162 405 260 c 0
 405 363 358 432 287 432 c 0
EndSplineSet
Validated: 1
EndChar

StartChar: e
Encoding: 101 101 69
Width: 556
Flags: MW
AnchorPoint: "above" 274 550 basechar 0
LayerCount: 2
Fore
SplineSet
272 549 m 0
 380 549 525 489 525 250 c 0
 525 243 525 238 524 226 c 1
 162 226 l 1
 165 153 180 84 274 84 c 0
 325 84 364 109 381 152 c 1
 519 152 l 1
 488 46 390 -23 269 -23 c 0
 116 -23 22 83 22 256 c 0
 22 437 117 549 272 549 c 0
379 319 m 1
 373 398 335 442 270 442 c 0
 208 442 173 401 164 319 c 1
 379 319 l 1
EndSplineSet
Validated: 1
EndChar

StartChar: f
Encoding: 102 102 70
Width: 333
Flags: MW
LayerCount: 2
Fore
SplineSet
313 529 m 1
 313 436 l 1
 230 436 l 1
 230 0 l 1
 90 0 l 1
 90 436 l 1
 14 436 l 1
 14 529 l 1
 90 529 l 1
 90 594 l 2
 90 685 135 729 228 729 c 0
 247 729 282 728 308 726 c 1
 308 621 l 1
 296 623 280 624 268 624 c 0
 242 624 230 610 230 582 c 2
 230 529 l 1
 313 529 l 1
EndSplineSet
Validated: 1
EndChar

StartChar: g
Encoding: 103 103 71
Width: 611
Flags: MW
AnchorPoint: "above" 279 550 basechar 0
LayerCount: 2
Fore
SplineSet
408 540 m 1
 541 540 l 1
 541 -18 l 2
 541 -145 447 -218 284 -218 c 0
 141 -218 47 -159 45 -65 c 1
 190 -65 l 1
 201 -106 236 -128 289 -128 c 0
 359 -128 408 -83 408 -18 c 2
 408 55 l 1
 356 -4 318 -23 255 -23 c 0
 122 -23 34 89 34 257 c 0
 34 424 130 549 258 549 c 0
 320 549 366 521 408 457 c 1
 408 540 l 1
288 432 m 0
 220 432 174 361 174 259 c 0
 174 161 220 94 286 94 c 0
 359 94 410 161 410 259 c 0
 410 359 358 432 288 432 c 0
EndSplineSet
Validated: 1
EndChar

StartChar: h
Encoding: 104 104 72
Width: 611
Flags: MW
LayerCount: 2
Fore
SplineSet
401 330 m 2
 401 388 380 430 315 430 c 0
 252 430 207 386 207 324 c 2
 207 0 l 1
 67 0 l 1
 67 729 l 1
 207 729 l 1
 207 462 l 1
 246 521 296 549 365 549 c 0
 442 549 541 512 541 362 c 2
 541 0 l 1
 401 0 l 1
 401 330 l 2
EndSplineSet
Validated: 1
EndChar

StartChar: i
Encoding: 105 105 73
Width: 278
Flags: MW
LayerCount: 2
Fore
SplineSet
207 540 m 1
 207 0 l 1
 67 0 l 1
 67 540 l 1
 207 540 l 1
207 729 m 1
 207 604 l 1
 67 604 l 1
 67 729 l 1
 207 729 l 1
EndSplineSet
Validated: 1
EndChar

StartChar: j
Encoding: 106 106 74
Width: 278
Flags: MW
LayerCount: 2
Fore
SplineSet
210 540 m 1
 210 -94 l 2
 210 -182 174 -218 87 -218 c 0
 67 -218 32 -216 4 -213 c 1
 4 -101 l 1
 14 -104 20 -105 29 -105 c 0
 59 -105 70 -94 70 -63 c 2
 70 540 l 1
 210 540 l 1
210 729 m 1
 210 604 l 1
 70 604 l 1
 70 729 l 1
 210 729 l 1
EndSplineSet
Validated: 1
EndChar

StartChar: k
Encoding: 107 107 75
Width: 556
Flags: MW
LayerCount: 2
Fore
SplineSet
199 330 m 1
 376 540 l 1
 535 540 l 1
 351 336 l 1
 548 0 l 1
 384 0 l 1
 255 238 l 1
 199 177 l 1
 199 0 l 1
 59 0 l 1
 59 729 l 1
 199 729 l 1
 199 330 l 1
EndSplineSet
Validated: 1
EndChar

StartChar: l
Encoding: 108 108 76
Width: 278
Flags: MW
LayerCount: 2
Fore
SplineSet
207 729 m 1
 207 0 l 1
 67 0 l 1
 67 729 l 1
 207 729 l 1
EndSplineSet
Validated: 1
EndChar

StartChar: m
Encoding: 109 109 77
Width: 889
Flags: MW
LayerCount: 2
Fore
SplineSet
60 540 m 1
 199 540 l 1
 199 473 l 1
 245 528 285 549 347 549 c 0
 414 549 468 520 494 469 c 1
 536 525 584 549 652 549 c 0
 760 549 824 487 824 382 c 2
 824 0 l 1
 684 0 l 1
 684 360 l 2
 684 403 655 430 608 430 c 0
 548 430 512 390 512 324 c 2
 512 0 l 1
 372 0 l 1
 372 360 l 2
 372 403 343 430 296 430 c 0
 236 430 200 390 200 324 c 2
 200 0 l 1
 60 0 l 1
 60 540 l 1
EndSplineSet
Validated: 1
EndChar

StartChar: n
Encoding: 110 110 78
Width: 611
Flags: MW
AnchorPoint: "above" 333 550 basechar 0
LayerCount: 2
Fore
SplineSet
63 540 m 1
 203 540 l 1
 203 462 l 1
 243 522 292 549 365 549 c 0
 480 549 546 481 546 362 c 2
 546 0 l 1
 406 0 l 1
 406 333 l 2
 406 397 376 430 316 430 c 0
 248 430 203 388 203 324 c 2
 203 0 l 1
 63 0 l 1
 63 540 l 1
EndSplineSet
Validated: 1
EndChar

StartChar: o
Encoding: 111 111 79
Width: 611
Flags: MW
AnchorPoint: "above" 305 550 basechar 0
LayerCount: 2
Fore
SplineSet
301 549 m 0
 470 549 569 442 569 259 c 0
 569 86 466 -23 302 -23 c 0
 136 -23 35 85 35 263 c 0
 35 440 136 549 301 549 c 0
302 436 m 0
 226 436 175 366 175 263 c 0
 175 160 226 90 302 90 c 0
 377 90 429 160 429 261 c 0
 429 367 379 436 302 436 c 0
EndSplineSet
Validated: 1
EndChar

StartChar: p
Encoding: 112 112 80
Width: 611
Flags: MW
LayerCount: 2
Fore
SplineSet
348 549 m 0
 488 549 574 421 574 262 c 0
 574 98 478 -24 348 -24 c 0
 280 -24 232 4 198 64 c 1
 198 -218 l 1
 58 -218 l 1
 58 540 l 1
 198 540 l 1
 198 460 l 1
 232 520 280 549 348 549 c 0
316 432 m 0
 246 432 198 363 198 262 c 0
 198 161 246 93 316 93 c 0
 385 93 434 162 434 260 c 0
 434 363 387 432 316 432 c 0
EndSplineSet
Validated: 1
EndChar

StartChar: q
Encoding: 113 113 81
Width: 611
Flags: MW
LayerCount: 2
Fore
SplineSet
253 -24 m 0
 118 -24 28 98 28 262 c 0
 28 427 124 549 254 549 c 0
 321 549 371 519 404 460 c 1
 404 540 l 1
 544 540 l 1
 544 -218 l 1
 404 -218 l 1
 404 64 l 1
 371 5 321 -24 253 -24 c 0
286 432 m 0
 216 432 168 363 168 262 c 0
 168 161 216 93 286 93 c 0
 356 93 404 161 404 259 c 0
 404 364 357 432 286 432 c 0
EndSplineSet
Validated: 1
EndChar

StartChar: r
Encoding: 114 114 82
Width: 389
Flags: MW
AnchorPoint: "above" 150 550 basechar 0
LayerCount: 2
Fore
SplineSet
63 540 m 1
 203 540 l 1
 203 434 l 1
 233 507 289 549 353 549 c 0
 357 549 362 549 370 548 c 1
 370 406 l 1
 351 409 341 410 326 410 c 0
 244 410 203 369 203 287 c 2
 203 0 l 1
 63 0 l 1
 63 540 l 1
EndSplineSet
Validated: 1
EndChar

StartChar: s
Encoding: 115 115 83
Width: 556
Flags: MW
AnchorPoint: "above" 272 550 basechar 0
LayerCount: 2
Fore
SplineSet
166 157 m 1
 174 120 188 87 276 87 c 0
 341 87 380 107 380 140 c 0
 380 162 368 173 333 184 c 2
 166 236 l 2
 135 246 48 263 48 369 c 0
 48 480 133 549 270 549 c 0
 415 549 503 480 505 366 c 1
 370 366 l 1
 369 415 336 439 269 439 c 0
 220 439 188 419 188 389 c 0
 188 367 198 359 237 347 c 2
 414 296 l 2
 485 275 520 230 520 160 c 0
 520 85 473 -23 284 -23 c 0
 120 -23 33 39 29 157 c 1
 166 157 l 1
EndSplineSet
Validated: 1
EndChar

StartChar: t
Encoding: 116 116 84
Width: 333
Flags: MW
LayerCount: 2
Fore
SplineSet
301 529 m 1
 301 436 l 1
 223 436 l 1
 223 142 l 2
 223 94 232 83 269 83 c 0
 279 83 287 84 301 86 c 1
 301 -12 l 1
 276 -20 251 -23 220 -23 c 0
 128 -23 83 19 83 104 c 2
 83 436 l 1
 14 436 l 1
 14 529 l 1
 83 529 l 1
 83 674 l 1
 223 674 l 1
 223 529 l 1
 301 529 l 1
EndSplineSet
Validated: 1
EndChar

StartChar: u
Encoding: 117 117 85
Width: 611
Flags: MW
AnchorPoint: "above" 306 550 basechar 0
LayerCount: 2
Fore
SplineSet
541 0 m 1
 401 0 l 1
 401 64 l 1
 361 4 312 -23 239 -23 c 0
 124 -23 58 45 58 164 c 2
 58 540 l 1
 198 540 l 1
 198 193 l 2
 198 128 228 96 288 96 c 0
 356 96 401 138 401 202 c 2
 401 540 l 1
 541 540 l 1
 541 0 l 1
EndSplineSet
Validated: 1
EndChar

StartChar: v
Encoding: 118 118 86
Width: 556
Flags: MW
LayerCount: 2
Fore
SplineSet
350 0 m 1
 203 0 l 1
 14 540 l 1
 162 540 l 1
 279 145 l 1
 388 540 l 1
 536 540 l 1
 350 0 l 1
EndSplineSet
Validated: 1
EndChar

StartChar: w
Encoding: 119 119 87
Width: 778
Flags: MW
LayerCount: 2
Fore
SplineSet
613 0 m 1
 468 0 l 1
 387 381 l 1
 301 0 l 1
 157 0 l 1
 5 540 l 1
 150 540 l 1
 236 162 l 1
 318 540 l 1
 458 540 l 1
 539 162 l 1
 621 540 l 1
 766 540 l 1
 613 0 l 1
EndSplineSet
Validated: 1
EndChar

StartChar: x
Encoding: 120 120 88
Width: 556
Flags: MW
LayerCount: 2
Fore
SplineSet
355 272 m 1
 535 0 l 1
 367 0 l 1
 276 168 l 1
 184 0 l 1
 16 0 l 1
 196 272 l 1
 20 540 l 1
 188 540 l 1
 276 377 l 1
 363 540 l 1
 531 540 l 1
 355 272 l 1
EndSplineSet
Validated: 1
EndChar

StartChar: y
Encoding: 121 121 89
Width: 556
Flags: MW
AnchorPoint: "above" 278 550 basechar 0
LayerCount: 2
Fore
SplineSet
210 -26 m 2
 210 -22 l 1
 9 540 l 1
 163 540 l 1
 282 147 l 1
 394 540 l 1
 538 540 l 1
 316 -99 l 2
 303 -136 289 -219 136 -219 c 0
 119 -219 107 -218 86 -215 c 1
 86 -110 l 1
 104 -115 112 -116 123 -116 c 0
 172 -116 210 -77 210 -26 c 2
EndSplineSet
Validated: 1
EndChar

StartChar: z
Encoding: 122 122 90
Width: 500
Flags: MW
AnchorPoint: "above" 250 550 basechar 0
LayerCount: 2
Fore
SplineSet
459 540 m 1
 459 427 l 1
 194 113 l 1
 468 113 l 1
 468 0 l 1
 21 0 l 1
 21 113 l 1
 288 427 l 1
 39 427 l 1
 39 540 l 1
 459 540 l 1
EndSplineSet
Validated: 1
EndChar

StartChar: braceleft
Encoding: 123 123 91
Width: 389
Flags: MW
LayerCount: 2
Fore
SplineSet
118 150 m 2
 118 209 102 222 41 222 c 2
 37 223 l 1
 37 315 l 1
 53 315 l 2
 98 316 118 335 118 378 c 2
 118 589 l 2
 118 671 169 729 241 729 c 2
 317 729 l 1
 317 630 l 1
 280 630 l 2
 249 630 235 613 235 573 c 2
 235 378 l 2
 235 305 213 280 138 269 c 1
 213 257 235 232 235 159 c 2
 235 -36 l 2
 235 -85 246 -101 280 -101 c 2
 317 -101 l 1
 317 -200 l 1
 241 -200 l 2
 169 -200 118 -142 118 -60 c 2
 118 150 l 2
EndSplineSet
Validated: 1
EndChar

StartChar: bar
Encoding: 124 124 92
Width: 280
Flags: MW
LayerCount: 2
Fore
SplineSet
180 729 m 1
 180 -200 l 1
 100 -200 l 1
 100 729 l 1
 180 729 l 1
EndSplineSet
Validated: 1
EndChar

StartChar: braceright
Encoding: 125 125 93
Width: 389
Flags: MW
LayerCount: 2
Fore
SplineSet
271 379 m 2
 271 320 287 307 348 307 c 2
 352 306 l 1
 352 214 l 1
 336 214 l 2
 291 213 271 194 271 151 c 2
 271 -60 l 2
 271 -142 220 -200 148 -200 c 2
 72 -200 l 1
 72 -101 l 1
 109 -101 l 2
 140 -101 154 -84 154 -44 c 2
 154 151 l 2
 154 224 176 249 251 260 c 1
 176 272 154 297 154 370 c 2
 154 565 l 2
 154 614 143 630 109 630 c 2
 72 630 l 1
 72 729 l 1
 148 729 l 2
 220 729 271 671 271 589 c 2
 271 379 l 2
EndSplineSet
Validated: 1
EndChar

StartChar: asciitilde
Encoding: 126 126 94
Width: 584
Flags: MW
LayerCount: 2
Fore
SplineSet
388 222 m 0
 436 222 440 249 441 288 c 1
 519 288 l 1
 513 190 472 142 392 142 c 0
 359 142 335 150 309 168 c 2
 252 210 l 2
 229 227 212 234 191 234 c 0
 145 234 140 209 138 169 c 1
 60 169 l 1
 65 266 108 314 187 314 c 0
 220 314 246 306 270 289 c 2
 327 247 l 2
 353 228 367 222 388 222 c 0
EndSplineSet
Validated: 1
EndChar

StartChar: cent
Encoding: 162 162 96
Width: 556
Flags: MW
LayerCount: 2
Fore
SplineSet
303 435 m 1
 303 91 l 1
 349 98 373 126 388 187 c 1
 522 187 l 1
 511 67 422 -18 303 -23 c 1
 303 -124 l 1
 259 -124 l 1
 259 -22 l 1
 120 -13 36 93 36 259 c 0
 36 431 114 533 259 548 c 1
 259 634 l 1
 303 634 l 1
 303 549 l 1
 426 547 514 462 522 338 c 1
 388 338 l 1
 375 400 350 428 303 435 c 1
259 94 m 1
 259 433 l 1
 205 419 176 359 176 260 c 0
 176 167 205 110 259 94 c 1
EndSplineSet
Validated: 1
EndChar

StartChar: sterling
Encoding: 163 163 97
Width: 556
Flags: MW
LayerCount: 2
Fore
SplineSet
179 513 m 0
 179 476 212 431 236 371 c 1
 375 371 l 1
 375 316 l 1
 253 316 l 1
 265 290 268 277 268 257 c 0
 268 199 237 153 152 86 c 1
 215 116 235 123 264 123 c 0
 310 123 341 102 391 102 c 0
 424 102 456 111 496 131 c 1
 537 22 l 1
 481 -11 441 -23 392 -23 c 0
 322 -23 265 9 195 9 c 0
 157 9 130 1 86 -21 c 1
 31 80 l 1
 115 137 141 173 141 231 c 0
 141 256 136 277 120 316 c 1
 31 316 l 1
 31 371 l 1
 91 371 l 1
 46 450 38 472 38 516 c 0
 38 624 127 715 276 715 c 0
 485 715 514 581 522 484 c 1
 390 484 l 1
 389 495 l 2
 383 540 367 604 277 604 c 0
 220 604 179 566 179 513 c 0
EndSplineSet
Validated: 1
EndChar

StartChar: currency
Encoding: 164 164 98
Width: 556
Flags: MW
LayerCount: 2
Fore
SplineSet
388 528 m 1
 461 601 l 1
 530 532 l 1
 455 457 l 1
 475 417 482 392 482 354 c 0
 482 315 473 281 453 246 c 1
 530 170 l 1
 461 102 l 1
 386 177 l 1
 340 152 322 147 286 147 c 0
 246 147 201 159 175 178 c 1
 96 100 l 1
 28 169 l 1
 106 246 l 1
 84 286 76 314 76 352 c 0
 76 390 86 427 105 457 c 1
 26 536 l 1
 95 604 l 1
 172 527 l 1
 203 546 244 558 281 558 c 0
 318 558 359 546 388 528 c 1
280 460 m 0
 220 460 172 413 172 352 c 0
 172 293 220 245 279 245 c 0
 338 245 386 293 386 353 c 0
 386 411 338 460 280 460 c 0
EndSplineSet
Validated: 1
EndChar

StartChar: yen
Encoding: 165 165 99
Width: 556
Flags: MW
LayerCount: 2
Fore
SplineSet
497 351 m 1
 497 292 l 1
 355 292 l 1
 355 239 l 1
 497 239 l 1
 497 180 l 1
 355 180 l 1
 355 0 l 1
 215 0 l 1
 215 180 l 1
 70 180 l 1
 70 239 l 1
 215 239 l 1
 215 292 l 1
 70 292 l 1
 70 351 l 1
 208 351 l 1
 5 704 l 1
 144 704 l 1
 283 450 l 1
 417 704 l 1
 552 704 l 1
 360 351 l 1
 497 351 l 1
EndSplineSet
Validated: 1
EndChar

StartChar: brokenbar
Encoding: 166 166 100
Width: 280
Flags: MW
LayerCount: 2
Fore
SplineSet
180 729 m 1
 180 340 l 1
 100 340 l 1
 100 729 l 1
 180 729 l 1
180 189 m 1
 180 -200 l 1
 100 -200 l 1
 100 189 l 1
 180 189 l 1
EndSplineSet
Validated: 1
EndChar

StartChar: section
Encoding: 167 167 101
Width: 556
Flags: MW
LayerCount: 2
Fore
SplineSet
125 428 m 1
 105 448 64 481 64 551 c 0
 64 651 152 723 273 723 c 0
 360 723 467 693 473 544 c 1
 346 544 l 1
 339 597 315 621 268 621 c 0
 230 621 204 601 204 570 c 0
 204 542 223 524 294 485 c 2
 421 415 l 2
 487 378 518 330 518 262 c 0
 518 195 491 155 424 124 c 1
 471 91 494 47 494 -10 c 0
 494 -124 406 -201 276 -201 c 0
 137 -201 66 -133 65 0 c 1
 196 0 l 1
 196 -10 l 2
 199 -57 215 -90 277 -90 c 0
 322 -90 353 -65 353 -29 c 0
 353 15 319 29 283 49 c 2
 112 149 l 2
 61 179 33 226 33 281 c 0
 33 341 54 374 125 428 c 1
337 306 m 2
 194 382 l 1
 164 364 152 346 152 317 c 0
 152 286 165 269 205 247 c 2
 352 167 l 1
 386 191 398 209 398 232 c 0
 398 264 384 281 337 306 c 2
EndSplineSet
Validated: 1
EndChar

StartChar: dieresis
Encoding: 168 168 102
Width: 333
Flags: MW
LayerCount: 2
Fore
SplineSet
128 743 m 1
 128 621 l 1
 18 621 l 1
 18 743 l 1
 128 743 l 1
314 743 m 1
 314 621 l 1
 204 621 l 1
 204 743 l 1
 314 743 l 1
EndSplineSet
Validated: 1
EndChar

StartChar: copyright
Encoding: 169 169 103
Width: 737
Flags: MW
LayerCount: 2
Fore
SplineSet
552 431 m 1
 462 431 l 1
 451 485 422 509 369 509 c 0
 298 509 255 453 255 359 c 0
 255 266 296 211 366 211 c 0
 423 211 457 241 462 297 c 1
 554 297 l 1
 549 192 476 128 364 128 c 0
 241 128 163 218 163 360 c 0
 163 503 241 592 367 592 c 0
 468 592 544 537 552 431 c 1
369 743 m 0
 579 743 751 572 751 361 c 0
 751 147 580 -22 364 -22 c 0
 158 -22 -14 152 -14 361 c 0
 -14 571 158 743 369 743 c 0
368 671 m 0
 201 671 64 532 64 361 c 0
 64 192 201 50 365 50 c 0
 537 50 673 188 673 361 c 0
 673 532 536 671 368 671 c 0
EndSplineSet
Validated: 1
EndChar

StartChar: ordfeminine
Encoding: 170 170 104
Width: 370
Flags: MW
LayerCount: 2
Fore
SplineSet
321 340 m 1
 321 262 l 1
 37 262 l 1
 37 340 l 1
 321 340 l 1
329 410 m 1
 329 400 l 1
 237 400 l 1
 229 410 228 416 227 432 c 1
 199 402 165 386 129 386 c 0
 70 386 31 425 31 484 c 0
 31 543 61 576 126 587 c 2
 160 593 l 2
 188 598 227 600 227 630 c 0
 227 650 210 661 178 661 c 0
 138 661 123 649 119 617 c 1
 41 617 l 1
 42 691 88 729 176 729 c 0
 264 729 309 695 309 629 c 2
 309 450 l 2
 309 433 313 424 329 410 c 1
227 530 m 2
 227 553 l 1
 217 548 214 547 192 543 c 2
 163 537 l 2
 128 530 115 518 115 493 c 0
 115 469 132 454 161 454 c 0
 203 454 227 482 227 530 c 2
EndSplineSet
Validated: 1
EndChar

StartChar: guillemotleft
Encoding: 171 171 105
Width: 556
Flags: MW
LayerCount: 2
Fore
SplineSet
88 218 m 1
 88 332 l 1
 255 481 l 1
 255 364 l 1
 154 275 l 1
 255 186 l 1
 255 72 l 1
 88 218 l 1
301 218 m 1
 301 332 l 1
 468 481 l 1
 468 364 l 1
 367 275 l 1
 468 186 l 1
 468 72 l 1
 301 218 l 1
EndSplineSet
Validated: 1
EndChar

StartChar: logicalnot
Encoding: 172 172 106
Width: 584
Flags: MW
LayerCount: 2
Fore
SplineSet
40 375 m 1
 544 375 l 1
 544 86 l 1
 467 86 l 1
 467 298 l 1
 40 298 l 1
 40 375 l 1
EndSplineSet
Validated: 1
EndChar

StartChar: registered
Encoding: 174 174 107
Width: 737
Flags: MW
LayerCount: 2
Fore
SplineSet
288 313 m 1
 288 140 l 1
 192 140 l 1
 192 583 l 1
 430 583 l 2
 506 583 551 538 551 462 c 0
 551 412 530 378 481 354 c 1
 533 330 535 323 538 195 c 0
 538 176 542 169 557 161 c 1
 557 140 l 1
 454 140 l 1
 442 163 440 177 440 221 c 0
 440 229 441 237 441 247 c 2
 441 264 l 2
 441 298 422 313 380 313 c 2
 288 313 l 1
288 394 m 1
 391 394 l 2
 439 394 455 407 455 448 c 0
 455 489 439 502 391 502 c 2
 288 502 l 1
 288 394 l 1
369 743 m 0
 579 743 751 572 751 361 c 0
 751 147 580 -22 364 -22 c 0
 158 -22 -14 152 -14 361 c 0
 -14 571 158 743 369 743 c 0
368 671 m 0
 201 671 64 532 64 361 c 0
 64 192 201 50 365 50 c 0
 537 50 673 188 673 361 c 0
 673 532 536 671 368 671 c 0
EndSplineSet
Validated: 1
EndChar

StartChar: macron
Encoding: 175 175 108
Width: 333
Flags: MW
LayerCount: 2
Fore
SplineSet
315 719 m 1
 315 640 l 1
 16 640 l 1
 16 719 l 1
 315 719 l 1
EndSplineSet
Validated: 1
EndChar

StartChar: degree
Encoding: 176 176 109
Width: 606
Flags: MW
LayerCount: 2
Fore
SplineSet
303 686 m 0
 386 686 454 618 454 535 c 0
 454 450 386 383 301 383 c 0
 219 383 151 452 151 535 c 0
 151 618 219 686 303 686 c 0
303 623 m 0
 254 623 214 583 214 534 c 0
 214 487 254 446 301 446 c 0
 351 446 391 485 391 535 c 0
 391 583 351 623 303 623 c 0
EndSplineSet
Validated: 1
EndChar

StartChar: plusminus
Encoding: 177 177 110
Width: 584
Flags: MW
LayerCount: 2
Fore
SplineSet
527 103 m 1
 527 -16 l 1
 56 -16 l 1
 56 103 l 1
 527 103 l 1
527 432 m 1
 527 313 l 1
 351 313 l 1
 351 137 l 1
 232 137 l 1
 232 313 l 1
 56 313 l 1
 56 432 l 1
 232 432 l 1
 232 608 l 1
 351 608 l 1
 351 432 l 1
 527 432 l 1
EndSplineSet
Validated: 1
EndChar

StartChar: twosuperior
Encoding: 178 178 111
Width: 351
Flags: MW
LayerCount: 2
Fore
SplineSet
328 584 m 0
 328 464 213 454 139 365 c 1
 326 365 l 1
 326 284 l 1
 16 284 l 1
 23 482 233 457 233 580 c 0
 233 620 210 644 172 644 c 0
 134 644 112 618 112 573 c 0
 112 571 113 564 114 557 c 1
 22 557 l 1
 21 565 21 572 21 575 c 0
 21 667 77 718 177 718 c 0
 274 718 328 670 328 584 c 0
EndSplineSet
Validated: 1
EndChar

StartChar: threesuperior
Encoding: 179 179 112
Width: 351
Flags: MW
LayerCount: 2
Fore
SplineSet
22 571 m 1
 27 700 109 718 170 718 c 0
 258 718 315 672 315 601 c 0
 315 563 297 533 263 512 c 1
 307 491 329 456 329 409 c 0
 329 325 266 271 170 271 c 0
 72 271 16 323 15 414 c 1
 107 414 l 1
 110 369 130 348 172 348 c 0
 208 348 234 373 234 408 c 0
 234 449 205 470 150 471 c 2
 134 471 l 1
 134 533 l 1
 145 533 l 2
 194 533 220 553 220 591 c 0
 220 624 199 645 167 645 c 0
 120 645 110 614 110 571 c 1
 22 571 l 1
EndSplineSet
Validated: 1
EndChar

StartChar: acute
Encoding: 180 180 113
Width: 333
Flags: MW
LayerCount: 2
Fore
SplineSet
317 757 m 1
 191 607 l 1
 121 607 l 1
 191 757 l 1
 317 757 l 1
EndSplineSet
Validated: 1
EndChar

StartChar: micro
Encoding: 181 181 114
Width: 611
Flags: MW
LayerCount: 2
Fore
SplineSet
198 206 m 2
 198 142 219 96 282 96 c 0
 341 96 383 140 383 202 c 2
 383 540 l 1
 523 540 l 1
 523 150 l 2
 523 92 529 77 553 77 c 0
 559 77 563 78 573 81 c 1
 573 -6 l 1
 550 -18 531 -23 503 -23 c 0
 456 -23 432 -9 408 31 c 1
 369 -9 338 -23 292 -23 c 0
 251 -23 220 -12 192 15 c 1
 192 -220 l 1
 58 -220 l 1
 58 540 l 1
 198 540 l 1
 198 206 l 2
EndSplineSet
Validated: 1
EndChar

StartChar: paragraph
Encoding: 182 182 115
Width: 556
Flags: MW
LayerCount: 2
Fore
SplineSet
19 495 m 0
 19 627 109 729 226 729 c 2
 529 729 l 1
 529 657 l 1
 486 657 l 1
 486 -191 l 1
 388 -191 l 1
 388 657 l 1
 325 657 l 1
 325 -191 l 1
 227 -191 l 1
 227 267 l 1
 104 273 19 367 19 495 c 0
EndSplineSet
Validated: 1
EndChar

StartChar: periodcentered
Encoding: 183 183 116
Width: 278
Flags: MW
LayerCount: 2
Fore
SplineSet
64 292 m 1
 188 292 l 1
 188 169 l 1
 64 169 l 1
 64 292 l 1
EndSplineSet
Validated: 1
EndChar

StartChar: cedilla
Encoding: 184 184 117
Width: 333
Flags: MW
LayerCount: 2
Fore
SplineSet
162 0 m 1
 205 0 l 1
 176 -63 l 1
 191 -58 203 -56 218 -56 c 0
 265 -56 294 -83 294 -127 c 0
 294 -187 248 -220 165 -220 c 0
 121 -220 92 -214 27 -192 c 1
 46 -140 l 1
 99 -163 123 -170 151 -170 c 0
 183 -170 208 -152 208 -129 c 0
 208 -108 188 -94 157 -94 c 0
 137 -94 127 -97 108 -106 c 1
 162 0 l 1
EndSplineSet
Validated: 1
EndChar

StartChar: onesuperior
Encoding: 185 185 118
Width: 300
Flags: MW
LayerCount: 2
Fore
SplineSet
147 573 m 1
 40 573 l 1
 40 634 l 1
 118 634 164 659 178 709 c 1
 242 709 l 1
 242 284 l 1
 147 284 l 1
 147 573 l 1
EndSplineSet
Validated: 1
EndChar

StartChar: ordmasculine
Encoding: 186 186 119
Width: 365
Flags: MW
LayerCount: 2
Fore
SplineSet
334 340 m 1
 334 262 l 1
 33 262 l 1
 33 340 l 1
 334 340 l 1
183 729 m 0
 284 729 343 665 343 555 c 0
 343 451 281 386 183 386 c 0
 84 386 23 451 23 557 c 0
 23 664 84 729 183 729 c 0
183 661 m 0
 138 661 107 619 107 558 c 0
 107 496 138 454 183 454 c 0
 228 454 259 496 259 556 c 0
 259 619 229 661 183 661 c 0
EndSplineSet
Validated: 1
EndChar

StartChar: guillemotright
Encoding: 187 187 120
Width: 556
Flags: MW
LayerCount: 2
Fore
SplineSet
255 335 m 1
 255 220 l 1
 88 72 l 1
 88 189 l 1
 189 278 l 1
 88 367 l 1
 88 481 l 1
 255 335 l 1
462 335 m 1
 462 220 l 1
 295 72 l 1
 295 189 l 1
 396 278 l 1
 295 367 l 1
 295 481 l 1
 462 335 l 1
EndSplineSet
Validated: 1
EndChar

StartChar: onequarter
Encoding: 188 188 121
Width: 869
Flags: MW
LayerCount: 2
Fore
SplineSet
147 573 m 1
 40 573 l 1
 40 634 l 1
 118 634 164 659 178 709 c 1
 242 709 l 1
 242 284 l 1
 147 284 l 1
 147 573 l 1
593 715 m 1
 680 715 l 1
 257 -20 l 1
 170 -20 l 1
 593 715 l 1
850 168 m 1
 850 93 l 1
 804 93 l 1
 804 0 l 1
 709 0 l 1
 709 93 l 1
 530 93 l 1
 530 167 l 1
 695 425 l 1
 804 425 l 1
 804 168 l 1
 850 168 l 1
709 168 m 1
 709 332 l 1
 603 168 l 1
 709 168 l 1
EndSplineSet
Validated: 1
EndChar

StartChar: onehalf
Encoding: 189 189 122
Width: 869
Flags: MW
LayerCount: 2
Fore
SplineSet
147 573 m 1
 40 573 l 1
 40 634 l 1
 118 634 164 659 178 709 c 1
 242 709 l 1
 242 284 l 1
 147 284 l 1
 147 573 l 1
587 715 m 1
 674 715 l 1
 251 -20 l 1
 164 -20 l 1
 587 715 l 1
846 300 m 0
 846 180 731 170 657 81 c 1
 844 81 l 1
 844 0 l 1
 534 0 l 1
 541 198 751 173 751 296 c 0
 751 336 728 360 690 360 c 0
 652 360 630 334 630 289 c 0
 630 287 631 280 632 273 c 1
 540 273 l 1
 539 281 539 288 539 291 c 0
 539 383 595 434 695 434 c 0
 792 434 846 386 846 300 c 0
EndSplineSet
Validated: 1
EndChar

StartChar: threequarters
Encoding: 190 190 123
Width: 869
Flags: MW
LayerCount: 2
Fore
SplineSet
22 571 m 1
 27 700 109 718 170 718 c 0
 258 718 315 672 315 601 c 0
 315 563 297 533 263 512 c 1
 307 491 329 456 329 409 c 0
 329 325 266 271 170 271 c 0
 72 271 16 323 15 414 c 1
 107 414 l 1
 110 369 130 348 172 348 c 0
 208 348 234 373 234 408 c 0
 234 449 205 470 150 471 c 2
 134 471 l 1
 134 533 l 1
 145 533 l 2
 194 533 220 553 220 591 c 0
 220 624 199 645 167 645 c 0
 120 645 110 614 110 571 c 1
 22 571 l 1
625 715 m 1
 712 715 l 1
 289 -20 l 1
 202 -20 l 1
 625 715 l 1
850 168 m 1
 850 93 l 1
 804 93 l 1
 804 0 l 1
 709 0 l 1
 709 93 l 1
 530 93 l 1
 530 167 l 1
 695 425 l 1
 804 425 l 1
 804 168 l 1
 850 168 l 1
709 168 m 1
 709 332 l 1
 603 168 l 1
 709 168 l 1
EndSplineSet
Validated: 1
EndChar

StartChar: AE
Encoding: 198 198 131
Width: 1000
Flags: MW
LayerCount: 2
Fore
SplineSet
430 152 m 1
 207 152 l 1
 154 0 l 1
 1 0 l 1
 264 729 l 1
 946 729 l 1
 946 604 l 1
 580 604 l 1
 580 439 l 1
 919 439 l 1
 919 314 l 1
 580 314 l 1
 580 125 l 1
 966 125 l 1
 966 0 l 1
 430 0 l 1
 430 152 l 1
430 277 m 1
 430 604 l 1
 363 604 l 1
 249 277 l 1
 430 277 l 1
EndSplineSet
Validated: 1
EndChar

StartChar: Ccedilla
Encoding: 199 199 132
Width: 722
Flags: MW
LayerCount: 2
Fore
SplineSet
539 482 m 1
 531 519 508 613 383 613 c 0
 265 613 194 517 194 356 c 0
 194 197 262 103 378 103 c 0
 471 103 530 156 539 249 c 1
 685 249 l 1
 677 84 561 -19 379 -23 c 1
 360 -63 l 1
 374 -58 386 -56 402 -56 c 0
 449 -56 478 -83 478 -127 c 0
 478 -187 432 -220 349 -220 c 0
 305 -220 276 -214 211 -192 c 1
 230 -140 l 1
 283 -163 307 -170 335 -170 c 0
 367 -170 392 -152 392 -129 c 0
 392 -108 372 -94 341 -94 c 0
 321 -94 311 -97 292 -106 c 1
 335 -23 l 1
 242 -7 203 11 155 56 c 0
 82 126 44 230 44 358 c 0
 44 594 172 741 378 741 c 0
 548 741 669 646 682 482 c 1
 539 482 l 1
EndSplineSet
Validated: 1
EndChar

StartChar: Eth
Encoding: 208 208 141
Width: 722
Flags: MW
LayerCount: 2
Fore
SplineSet
77 339 m 1
 0 339 l 1
 0 419 l 1
 77 419 l 1
 77 729 l 1
 362 729 l 2
 477 729 545 705 593 645 c 0
 649 577 681 472 681 365 c 0
 681 257 648 154 593 85 c 0
 545 25 476 0 362 0 c 2
 77 0 l 1
 77 339 l 1
537 364 m 0
 537 544 469 604 362 604 c 2
 227 604 l 1
 227 419 l 1
 377 419 l 1
 377 339 l 1
 227 339 l 1
 227 125 l 1
 362 125 l 2
 459 125 537 173 537 364 c 0
EndSplineSet
Validated: 1
EndChar

StartChar: multiply
Encoding: 215 215 148
Width: 584
Flags: MW
LayerCount: 2
Fore
SplineSet
421 444 m 1
 505 360 l 1
 376 231 l 1
 504 102 l 1
 420 18 l 1
 292 147 l 1
 164 19 l 1
 80 103 l 1
 208 231 l 1
 79 359 l 1
 163 444 l 1
 292 315 l 1
 421 444 l 1
EndSplineSet
Validated: 1
EndChar

StartChar: Oslash
Encoding: 216 216 149
Width: 778
Flags: MW
LayerCount: 2
Fore
SplineSet
740 357 m 0
 740 145 606 -23 388 -23 c 0
 298 -23 223 2 165 52 c 1
 82 -39 l 1
 31 7 l 1
 117 102 l 1
 62 176 35 261 35 359 c 0
 35 579 173 741 388 741 c 0
 483 741 553 716 620 657 c 1
 703 749 l 1
 755 704 l 1
 666 605 l 1
 712 542 740 449 740 357 c 0
567 497 m 1
 256 153 l 1
 287 123 336 105 388 105 c 0
 510 105 590 206 590 361 c 0
 590 408 582 457 567 497 c 1
214 209 m 1
 528 555 l 1
 491 594 444 613 388 613 c 0
 264 613 185 512 185 356 c 0
 185 301 195 251 214 209 c 1
EndSplineSet
Validated: 1
EndChar

StartChar: Thorn
Encoding: 222 222 155
Width: 667
Flags: MW
LayerCount: 2
Fore
SplineSet
398 609 m 2
 598 609 633 481 633 382 c 0
 633 233 548 140 413 140 c 2
 226 140 l 1
 226 0 l 1
 76 0 l 1
 76 729 l 1
 226 729 l 1
 226 609 l 1
 398 609 l 2
226 265 m 1
 366 265 l 2
 446 265 483 300 483 374 c 0
 483 449 446 484 366 484 c 2
 226 484 l 1
 226 265 l 1
EndSplineSet
Validated: 1
EndChar

StartChar: germandbls
Encoding: 223 223 156
Width: 611
Flags: MW
LayerCount: 2
Fore
SplineSet
445 411 m 1
 479 404 575 376 575 236 c 0
 575 84 488 -17 357 -17 c 0
 335 -17 318 -15 285 -11 c 1
 285 101 l 1
 291 102 296 102 298 102 c 2
 318 103 l 2
 387 104 435 155 435 226 c 0
 435 302 383 349 298 349 c 2
 285 349 l 1
 285 444 l 1
 294 444 l 2
 354 445 392 479 392 533 c 0
 392 585 355 616 294 616 c 0
 239 616 207 587 207 537 c 2
 207 0 l 1
 67 0 l 1
 67 518 l 2
 67 631 114 729 303 729 c 0
 438 729 532 654 532 547 c 0
 532 480 502 433 445 411 c 1
EndSplineSet
Validated: 1
EndChar

StartChar: ae
Encoding: 230 230 163
Width: 889
Flags: MW
LayerCount: 2
Fore
SplineSet
494 226 m 1
 494 105 560 84 608 84 c 0
 656 84 700 113 712 152 c 1
 850 152 l 1
 819 45 721 -23 600 -23 c 0
 512 -23 442 13 400 81 c 1
 338 8 276 -24 195 -24 c 0
 92 -24 27 40 27 141 c 0
 27 239 78 294 186 312 c 2
 242 322 l 2
 295 331 354 334 354 383 c 0
 354 419 326 436 269 436 c 0
 206 436 181 416 174 362 c 1
 43 362 l 1
 45 486 122 549 271 549 c 0
 349 549 408 532 446 499 c 1
 487 532 540 549 601 549 c 0
 713 549 857 489 857 250 c 0
 857 245 857 238 856 226 c 1
 494 226 l 1
354 216 m 2
 354 254 l 1
 337 244 325 240 295 235 c 2
 247 228 l 2
 194 221 167 196 167 155 c 0
 167 114 196 89 243 89 c 0
 315 89 354 134 354 216 c 2
495 319 m 1
 711 319 l 1
 704 400 667 442 602 442 c 0
 538 442 501 400 495 319 c 1
EndSplineSet
Validated: 1
EndChar

StartChar: ccedilla
Encoding: 231 231 164
Width: 556
Flags: MW
LayerCount: 2
Fore
SplineSet
174 260 m 0
 174 187 197 90 289 90 c 0
 342 90 371 118 388 187 c 1
 522 187 l 1
 511 63 417 -23 293 -23 c 0
 292 -23 292 -23 291 -23 c 1
 274 -63 l 1
 287 -58 300 -56 315 -56 c 0
 363 -56 392 -83 392 -127 c 0
 392 -187 346 -220 263 -220 c 0
 219 -220 185 -213 125 -192 c 1
 144 -140 l 1
 195 -163 221 -170 248 -170 c 0
 280 -170 306 -152 306 -129 c 0
 306 -108 286 -94 255 -94 c 0
 235 -94 224 -97 205 -106 c 1
 248 -21 l 1
 110 -3 34 96 34 259 c 0
 34 443 128 549 289 549 c 0
 424 549 512 470 522 338 c 1
 388 338 l 1
 372 409 345 436 288 436 c 0
 191 436 174 334 174 260 c 0
EndSplineSet
Validated: 1
EndChar

StartChar: eth
Encoding: 240 240 173
Width: 611
Flags: MW
LayerCount: 2
Fore
SplineSet
192 741 m 1
 256 717 269 701 294 692 c 1
 381 744 l 1
 432 710 l 1
 348 660 l 1
 499 558 569 435 569 269 c 0
 569 85 470 -23 302 -23 c 0
 135 -23 35 85 35 265 c 0
 35 426 132 534 274 534 c 0
 300 534 320 530 359 515 c 1
 332 558 302 589 264 611 c 1
 187 565 l 1
 145 602 l 1
 215 646 l 1
 188 662 174 670 125 694 c 1
 192 741 l 1
302 429 m 0
 226 429 176 362 176 260 c 0
 176 157 226 90 302 90 c 0
 378 90 428 157 428 257 c 0
 428 362 379 429 302 429 c 0
EndSplineSet
Validated: 1
EndChar

StartChar: divide
Encoding: 247 247 180
Width: 584
Flags: MW
LayerCount: 2
Fore
SplineSet
534 291 m 1
 534 172 l 1
 50 172 l 1
 50 291 l 1
 534 291 l 1
230 474 m 1
 354 474 l 1
 354 351 l 1
 230 351 l 1
 230 474 l 1
230 112 m 1
 354 112 l 1
 354 -11 l 1
 230 -11 l 1
 230 112 l 1
EndSplineSet
Validated: 1
EndChar

StartChar: oslash
Encoding: 248 248 181
Width: 611
Flags: MW
LayerCount: 2
Fore
SplineSet
126 35 m 1
 54 -38 l 1
 11 2 l 1
 86 79 l 1
 52 128 36 188 36 263 c 0
 36 441 138 549 305 549 c 0
 378 549 436 529 487 487 c 1
 555 557 l 1
 598 516 l 1
 526 443 l 1
 558 393 573 335 573 263 c 0
 573 86 471 -23 306 -23 c 0
 235 -23 166 -1 126 35 c 1
421 336 m 1
 220 132 l 1
 244 104 273 90 306 90 c 0
 380 90 433 161 433 260 c 0
 433 287 429 312 421 336 c 1
190 184 m 1
 392 390 l 1
 364 424 338 437 303 437 c 0
 228 437 176 366 176 266 c 0
 176 236 181 207 190 184 c 1
EndSplineSet
Validated: 1
EndChar

StartChar: thorn
Encoding: 254 254 187
Width: 611
Flags: MW
LayerCount: 2
Fore
SplineSet
198 729 m 1
 198 460 l 1
 232 520 280 549 348 549 c 0
 478 549 574 427 574 262 c 0
 574 99 478 -23 348 -23 c 0
 280 -23 232 5 198 64 c 1
 198 -218 l 1
 58 -218 l 1
 58 729 l 1
 198 729 l 1
316 432 m 0
 246 432 198 363 198 262 c 0
 198 162 246 94 316 94 c 0
 385 94 434 162 434 260 c 0
 434 363 387 432 316 432 c 0
EndSplineSet
Validated: 1
EndChar

StartChar: Aogonek
Encoding: 260 260 193
Width: 722
Flags: MW
LayerCount: 2
Fore
SplineSet
501 147 m 1
 228 147 l 1
 179 0 l 1
 26 0 l 1
 285 729 l 1
 452 729 l 1
 703 0 l 1
 634 -30 590 -80 590 -129 c 0
 590 -165 614 -182 666 -182 c 0
 685 -182 705 -180 723 -177 c 1
 723 -224 l 1
 695 -231 675 -233 648 -233 c 0
 554 -233 500 -198 500 -138 c 0
 500 -79 546 -28 624 0 c 1
 549 0 l 1
 501 147 l 1
461 272 m 1
 366 557 l 1
 270 272 l 1
 461 272 l 1
EndSplineSet
Validated: 1
EndChar

StartChar: aogonek
Encoding: 261 261 194
Width: 556
Flags: MW
LayerCount: 2
Fore
SplineSet
192 -23 m 0
 94 -23 28 42 28 139 c 0
 28 236 80 291 187 309 c 2
 243 319 l 2
 289 326 355 329 355 382 c 0
 355 418 328 436 274 436 c 0
 205 436 182 418 175 362 c 1
 40 362 l 1
 49 487 125 549 271 549 c 0
 417 549 492 493 492 383 c 2
 492 83 l 2
 492 55 499 40 524 17 c 1
 524 0 l 1
 453 -38 415 -82 415 -129 c 0
 415 -165 439 -182 491 -182 c 0
 510 -182 529 -180 548 -177 c 1
 548 -224 l 1
 520 -231 500 -233 473 -233 c 0
 380 -233 325 -198 325 -139 c 0
 325 -80 372 -27 449 0 c 1
 372 0 l 1
 359 16 356 26 356 54 c 1
 307 3 252 -23 192 -23 c 0
355 217 m 2
 355 255 l 1
 339 247 333 245 296 238 c 2
 248 229 l 2
 190 217 168 197 168 155 c 0
 168 115 197 90 244 90 c 0
 315 90 355 136 355 217 c 2
EndSplineSet
Validated: 1
EndChar

StartChar: dcroat
Encoding: 273 273 206
Width: 611
Flags: MW
LayerCount: 2
Fore
SplineSet
405 596 m 1
 272 596 l 1
 272 663 l 1
 405 663 l 1
 405 729 l 1
 545 729 l 1
 545 663 l 1
 605 663 l 1
 605 596 l 1
 545 596 l 1
 545 0 l 1
 405 0 l 1
 405 55 l 1
 370 2 323 -23 256 -23 c 0
 127 -23 29 100 29 262 c 0
 29 425 127 549 256 549 c 0
 324 549 370 524 405 470 c 1
 405 596 l 1
287 432 m 0
 218 432 169 362 169 262 c 0
 169 163 217 94 287 94 c 0
 357 94 405 162 405 260 c 0
 405 363 358 432 287 432 c 0
EndSplineSet
Validated: 1
EndChar

StartChar: Eogonek
Encoding: 280 280 213
Width: 667
Flags: MW
LayerCount: 2
Fore
SplineSet
229 314 m 1
 229 125 l 1
 624 125 l 1
 624 0 l 1
 553 -38 515 -82 515 -129 c 0
 515 -165 539 -182 591 -182 c 0
 611 -182 630 -180 648 -177 c 1
 648 -224 l 1
 621 -230 601 -233 574 -233 c 0
 479 -233 425 -198 425 -138 c 0
 425 -82 464 -39 550 0 c 1
 79 0 l 1
 79 729 l 1
 606 729 l 1
 606 604 l 1
 229 604 l 1
 229 439 l 1
 578 439 l 1
 578 314 l 1
 229 314 l 1
EndSplineSet
Validated: 1
EndChar

StartChar: eogonek
Encoding: 281 281 214
Width: 556
Flags: MW
LayerCount: 2
Fore
SplineSet
518 152 m 1
 483 25 345 -26 345 -131 c 0
 345 -166 369 -183 421 -183 c 0
 441 -183 459 -181 478 -177 c 1
 478 -224 l 1
 451 -231 427 -234 399 -234 c 0
 310 -234 255 -197 255 -137 c 0
 255 -92 279 -60 350 -11 c 1
 314 -21 296 -24 268 -24 c 0
 116 -24 21 83 21 256 c 0
 21 437 116 549 271 549 c 0
 382 549 525 489 525 250 c 0
 525 245 525 238 524 226 c 1
 162 226 l 1
 165 147 182 83 274 83 c 0
 325 83 363 108 380 152 c 1
 518 152 l 1
379 319 m 1
 372 400 332 442 270 442 c 0
 207 442 172 401 163 319 c 1
 379 319 l 1
EndSplineSet
Validated: 1
EndChar

StartChar: Hbar
Encoding: 294 294 227
Width: 722
Flags: MW
LayerCount: 2
Fore
SplineSet
657 599 m 1
 717 599 l 1
 717 532 l 1
 657 532 l 1
 657 0 l 1
 507 0 l 1
 507 331 l 1
 218 331 l 1
 218 0 l 1
 68 0 l 1
 68 532 l 1
 8 532 l 1
 8 599 l 1
 68 599 l 1
 68 729 l 1
 218 729 l 1
 218 599 l 1
 506 599 l 1
 506 729 l 1
 657 729 l 1
 657 599 l 1
506 532 m 1
 218 532 l 1
 218 456 l 1
 506 456 l 1
 506 532 l 1
EndSplineSet
Validated: 1
EndChar

StartChar: hbar
Encoding: 295 295 228
Width: 611
Flags: MW
LayerCount: 2
Fore
SplineSet
401 330 m 2
 401 388 380 430 315 430 c 0
 252 430 207 386 207 324 c 2
 207 0 l 1
 67 0 l 1
 67 596 l 1
 8 596 l 1
 8 663 l 1
 67 663 l 1
 67 729 l 1
 207 729 l 1
 207 663 l 1
 341 663 l 1
 341 596 l 1
 207 596 l 1
 207 462 l 1
 246 521 296 549 365 549 c 0
 442 549 541 512 541 362 c 2
 541 0 l 1
 401 0 l 1
 401 330 l 2
EndSplineSet
Validated: 1
EndChar

StartChar: Iogonek
Encoding: 302 302 235
Width: 278
Flags: MW
LayerCount: 2
Fore
SplineSet
213 729 m 1
 213 0 l 1
 156 -41 124 -88 124 -131 c 0
 124 -161 150 -182 187 -182 c 0
 200 -182 221 -180 237 -177 c 1
 237 -224 l 1
 211 -230 189 -233 167 -233 c 0
 85 -233 34 -196 34 -136 c 0
 34 -84 70 -41 147 0 c 1
 63 0 l 1
 63 729 l 1
 213 729 l 1
EndSplineSet
Validated: 1
EndChar

StartChar: iogonek
Encoding: 303 303 236
Width: 278
Flags: MW
LayerCount: 2
Fore
SplineSet
124 -128 m 0
 124 -172 161 -182 187 -182 c 0
 198 -182 208 -181 231 -177 c 1
 231 -224 l 1
 200 -231 188 -233 168 -233 c 0
 85 -233 34 -196 34 -136 c 0
 34 -87 69 -44 144 0 c 1
 67 0 l 1
 67 540 l 1
 207 540 l 1
 207 0 l 1
 153 -38 124 -83 124 -128 c 0
207 729 m 1
 207 604 l 1
 67 604 l 1
 67 729 l 1
 207 729 l 1
EndSplineSet
Validated: 1
EndChar

StartChar: dotlessi
Encoding: 305 305 238
Width: 278
Flags: MW
LayerCount: 2
Fore
SplineSet
207 540 m 1
 207 0 l 1
 67 0 l 1
 67 540 l 1
 207 540 l 1
EndSplineSet
Validated: 1
EndChar

StartChar: Lslash
Encoding: 321 321 254
Width: 611
Flags: MW
LayerCount: 2
Fore
SplineSet
230 423 m 1
 395 535 l 1
 395 447 l 1
 230 334 l 1
 230 125 l 1
 597 125 l 1
 597 0 l 1
 80 0 l 1
 80 257 l 1
 0 201 l 1
 0 290 l 1
 80 346 l 1
 80 729 l 1
 230 729 l 1
 230 423 l 1
EndSplineSet
Validated: 1
EndChar

StartChar: lslash
Encoding: 322 322 255
Width: 278
Flags: MW
LayerCount: 2
Fore
SplineSet
196 442 m 1
 252 482 l 1
 252 403 l 1
 196 363 l 1
 196 0 l 1
 56 0 l 1
 56 294 l 1
 0 254 l 1
 0 333 l 1
 56 373 l 1
 56 729 l 1
 196 729 l 1
 196 442 l 1
EndSplineSet
Validated: 1
EndChar

StartChar: napostrophe
Encoding: 329 329 262
Width: 611
Flags: MW
LayerCount: 2
Fore
SplineSet
63 540 m 1
 203 540 l 1
 203 462 l 1
 243 522 292 549 365 549 c 0
 480 549 546 481 546 362 c 2
 546 0 l 1
 406 0 l 1
 406 333 l 2
 406 397 376 430 316 430 c 0
 248 430 203 388 203 324 c 2
 203 0 l 1
 63 0 l 1
 63 540 l 1
EndSplineSet
Validated: 1
EndChar

StartChar: Eng
Encoding: 330 330 263
Width: 722
Flags: MW
LayerCount: 2
Fore
SplineSet
661 729 m 1
 661 -94 l 2
 661 -182 624 -218 537 -218 c 0
 517 -218 482 -216 454 -213 c 1
 454 -101 l 1
 464 -104 460 -105 469 -105 c 0
 499 -105 511 -94 511 -63 c 2
 511 0 l 1
 218 504 l 1
 218 0 l 1
 68 0 l 1
 68 729 l 1
 222 729 l 1
 511 233 l 1
 511 729 l 1
 661 729 l 1
EndSplineSet
Validated: 1
EndChar

StartChar: eng
Encoding: 331 331 264
Width: 611
Flags: MW
LayerCount: 2
Fore
SplineSet
63 540 m 1
 203 540 l 1
 203 462 l 1
 243 522 292 549 365 549 c 0
 480 549 546 481 546 362 c 2
 546 -94 l 2
 546 -182 510 -218 423 -218 c 0
 403 -218 368 -216 340 -213 c 1
 340 -101 l 1
 350 -104 356 -105 365 -105 c 0
 395 -105 406 -94 406 -63 c 2
 406 333 l 2
 406 397 376 430 316 430 c 0
 248 430 203 388 203 324 c 2
 203 0 l 1
 63 0 l 1
 63 540 l 1
EndSplineSet
Validated: 1
EndChar

StartChar: OE
Encoding: 338 338 271
Width: 1000
Flags: MW
LayerCount: 2
Fore
SplineSet
624 314 m 1
 624 125 l 1
 970 125 l 1
 970 0 l 1
 480 0 l 1
 480 59 l 1
 431 -3 393 -23 325 -23 c 0
 152 -23 28 136 28 359 c 0
 28 584 151 741 329 741 c 0
 393 741 432 724 480 677 c 1
 480 729 l 1
 951 729 l 1
 951 604 l 1
 624 604 l 1
 624 439 l 1
 923 439 l 1
 923 314 l 1
 624 314 l 1
474 178 m 1
 474 540 l 1
 445 591 410 613 356 613 c 0
 249 613 178 512 178 359 c 0
 178 207 249 105 355 105 c 0
 409 105 445 127 474 178 c 1
EndSplineSet
Validated: 1
EndChar

StartChar: oe
Encoding: 339 339 272
Width: 944
Flags: MW
LayerCount: 2
Fore
SplineSet
557 226 m 1
 560 103 623 84 671 84 c 0
 720 84 763 112 776 152 c 1
 914 152 l 1
 882 46 785 -23 664 -23 c 0
 592 -23 528 3 485 52 c 1
 434 2 370 -23 290 -23 c 0
 124 -23 23 85 23 263 c 0
 23 441 124 549 290 549 c 0
 370 549 436 524 485 473 c 1
 528 523 590 549 665 549 c 0
 777 549 920 489 920 250 c 0
 920 243 920 238 919 226 c 1
 557 226 l 1
290 436 m 0
 214 436 163 366 163 263 c 0
 163 160 214 90 290 90 c 0
 365 90 417 160 417 261 c 0
 417 367 367 436 290 436 c 0
774 319 m 1
 766 398 729 442 666 442 c 0
 602 442 566 397 559 319 c 1
 774 319 l 1
EndSplineSet
Validated: 1
EndChar

StartChar: Scedilla
Encoding: 350 350 283
Width: 667
Flags: MW
LayerCount: 2
Fore
SplineSet
340 -23 m 1
 323 -62 l 1
 338 -58 349 -56 364 -56 c 0
 412 -56 441 -83 441 -127 c 0
 441 -187 395 -220 312 -220 c 0
 268 -220 235 -213 174 -192 c 1
 193 -140 l 1
 243 -162 270 -170 298 -170 c 0
 330 -170 355 -152 355 -129 c 0
 355 -108 335 -94 304 -94 c 0
 284 -94 274 -97 255 -106 c 1
 297 -23 l 1
 126 -5 42 72 32 218 c 1
 178 218 l 1
 183 140 240 97 342 97 c 0
 433 97 489 134 489 195 c 0
 489 254 452 282 352 301 c 2
 250 321 l 2
 102 349 45 404 45 517 c 0
 45 659 146 741 321 741 c 0
 434 741 607 706 607 507 c 1
 467 507 l 1
 462 581 409 621 314 621 c 0
 237 621 188 586 188 531 c 0
 188 478 219 457 326 436 c 2
 440 414 l 2
 575 388 633 328 633 214 c 0
 633 65 535 -14 340 -23 c 1
EndSplineSet
Validated: 1
EndChar

StartChar: scedilla
Encoding: 351 351 284
Width: 556
Flags: MW
LayerCount: 2
Fore
SplineSet
166 157 m 1
 174 120 188 87 276 87 c 0
 341 87 380 107 380 140 c 0
 380 162 368 173 333 184 c 2
 166 236 l 2
 135 246 48 263 48 369 c 0
 48 480 133 549 270 549 c 0
 415 549 503 480 505 366 c 1
 370 366 l 1
 369 415 336 439 269 439 c 0
 220 439 188 419 188 389 c 0
 188 367 198 359 237 347 c 2
 414 296 l 2
 485 275 520 230 520 160 c 0
 520 52 430 -23 301 -23 c 2
 283 -23 l 1
 264 -63 l 1
 279 -58 291 -56 306 -56 c 0
 353 -56 382 -83 382 -127 c 0
 382 -187 336 -220 254 -220 c 0
 209 -220 180 -214 115 -192 c 1
 134 -140 l 1
 187 -163 211 -170 239 -170 c 0
 271 -170 296 -152 296 -129 c 0
 296 -108 276 -94 245 -94 c 0
 225 -94 215 -97 196 -106 c 1
 239 -22 l 1
 96 -5 34 48 29 157 c 1
 166 157 l 1
EndSplineSet
Validated: 1
EndChar

StartChar: uni0162
Encoding: 354 354 287
Width: 611
Flags: M
LayerCount: 2
Fore
SplineSet
385 604 m 1
 385 0 l 1
 355 0 l 1
 326 -63 l 1
 341 -58 353 -56 368 -56 c 0
 415 -56 444 -83 444 -127 c 0
 444 -187 398 -220 315 -220 c 0
 271 -220 242 -214 177 -192 c 1
 196 -140 l 1
 249 -163 273 -170 301 -170 c 0
 333 -170 358 -152 358 -129 c 0
 358 -108 338 -94 307 -94 c 0
 287 -94 277 -97 258 -106 c 1
 312 0 l 1
 235 0 l 1
 235 604 l 1
 14 604 l 1
 14 729 l 1
 598 729 l 1
 598 604 l 1
 385 604 l 1
EndSplineSet
Validated: 1
EndChar

StartChar: uni0163
Encoding: 355 355 288
Width: 333
Flags: M
LayerCount: 2
Fore
SplineSet
301 529 m 1
 301 436 l 1
 223 436 l 1
 223 142 l 2
 223 94 232 83 269 83 c 0
 279 83 287 84 301 86 c 1
 301 -12 l 1
 280.508 -18.5575 260.016 -21.7555 236.219 -22.6956 c 1
 208 -84 l 1
 223 -79 235 -77 250 -77 c 0
 297 -77 326 -104 326 -148 c 0
 326 -208 280 -241 197 -241 c 0
 153 -241 124 -235 59 -213 c 1
 78 -161 l 1
 131 -184 155 -191 183 -191 c 0
 215 -191 240 -173 240 -150 c 0
 240 -129 220 -115 189 -115 c 0
 169 -115 159 -118 140 -127 c 1
 193.633 -21.7211 l 1
 119.393 -14.1044 83 27.5602 83 104 c 2
 83 436 l 1
 14 436 l 1
 14 529 l 1
 83 529 l 1
 83 674 l 1
 223 674 l 1
 223 529 l 1
 301 529 l 1
EndSplineSet
Validated: 1
EndChar

StartChar: Tbar
Encoding: 358 358 291
Width: 611
Flags: MW
LayerCount: 2
Fore
SplineSet
385 604 m 1
 385 0 l 1
 235 0 l 1
 235 604 l 1
 14 604 l 1
 14 729 l 1
 598 729 l 1
 598 604 l 1
 385 604 l 1
EndSplineSet
Validated: 1
EndChar

StartChar: tbar
Encoding: 359 359 292
Width: 333
Flags: MW
LayerCount: 2
Fore
SplineSet
301 529 m 1
 301 436 l 1
 223 436 l 1
 223 142 l 2
 223 94 232 83 269 83 c 0
 279 83 287 84 301 86 c 1
 301 -12 l 1
 276 -20 251 -23 220 -23 c 0
 128 -23 83 19 83 104 c 2
 83 436 l 1
 14 436 l 1
 14 529 l 1
 83 529 l 1
 83 674 l 1
 223 674 l 1
 223 529 l 1
 301 529 l 1
EndSplineSet
Validated: 1
EndChar

StartChar: Uogonek
Encoding: 370 370 303
Width: 722
Flags: MW
LayerCount: 2
Fore
SplineSet
654 235 m 2
 654 20 462 -9 462 -132 c 0
 462 -166 487 -183 539 -183 c 0
 560 -183 578 -181 597 -177 c 1
 597 -224 l 1
 570 -231 546 -234 517 -234 c 0
 458 -234 373 -215 373 -138 c 0
 373 -90 400 -55 477 -7 c 1
 429 -20 407 -23 368 -23 c 0
 240 -23 76 29 76 235 c 2
 76 729 l 1
 226 729 l 1
 226 235 l 2
 226 147 271 105 365 105 c 0
 459 105 504 147 504 235 c 2
 504 729 l 1
 654 729 l 1
 654 235 l 2
EndSplineSet
Validated: 1
EndChar

StartChar: uogonek
Encoding: 371 371 304
Width: 611
Flags: MW
LayerCount: 2
Fore
SplineSet
340 -138 m 0
 340 -55 428 -14 465 0 c 1
 401 0 l 1
 401 64 l 1
 361 4 312 -23 239 -23 c 0
 124 -23 58 45 58 164 c 2
 58 540 l 1
 198 540 l 1
 198 193 l 2
 198 128 228 96 288 96 c 0
 356 96 401 138 401 202 c 2
 401 540 l 1
 541 540 l 1
 541 0 l 1
 468 -37 430 -82 430 -129 c 0
 430 -165 454 -182 506 -182 c 0
 526 -182 545 -180 564 -177 c 1
 564 -224 l 1
 536 -231 516 -233 489 -233 c 0
 395 -233 340 -198 340 -138 c 0
EndSplineSet
Validated: 1
EndChar

StartChar: longs
Encoding: 383 383 316
Width: 333
Flags: MW
LayerCount: 2
Fore
SplineSet
230 0 m 1
 90 0 l 1
 90 436 l 1
 14 436 l 1
 14 529 l 1
 90 529 l 1
 90 594 l 2
 90 685 135 729 228 729 c 0
 247 729 282 728 308 726 c 1
 308 621 l 1
 296 623 280 624 268 624 c 0
 242 624 230 610 230 582 c 2
 230 0 l 1
EndSplineSet
Validated: 1
EndChar

StartChar: florin
Encoding: 402 402 317
Width: 333
Flags: MW
LayerCount: 2
Fore
SplineSet
313 529 m 1
 313 436 l 1
 230 436 l 1
 230 -94 l 2
 230 -182 194 -218 107 -218 c 0
 87 -218 52 -216 24 -213 c 1
 24 -101 l 1
 34 -104 40 -105 49 -105 c 0
 79 -105 90 -94 90 -63 c 2
 90 436 l 1
 14 436 l 1
 14 529 l 1
 90 529 l 1
 90 594 l 2
 90 685 135 729 228 729 c 0
 247 729 282 728 308 726 c 1
 308 621 l 1
 296 623 280 624 268 624 c 0
 242 624 230 610 230 582 c 2
 230 529 l 1
 313 529 l 1
EndSplineSet
Validated: 1
EndChar

StartChar: uni01EA
Encoding: 490 490 351
Width: 778
Flags: M
LayerCount: 2
Fore
SplineSet
391 613 m 0
 270 613 190 512 190 359 c 0
 190 206 270 105 391 105 c 0
 511 105 592 206 592 355 c 0
 592 513 514 613 391 613 c 0
40 359 m 0
 40 581 178 741 390 741 c 0
 601 741 742 586 742 354 c 0
 742 153.265 620.233 -9.64878 416.57 -22.2197 c 1
 340.827 -70.7356 319 -99.3639 319 -148 c 0
 319 -182 342 -198 395 -198 c 0
 415 -198 434 -196 452 -192 c 1
 452 -239 l 1
 425 -246 401 -249 373 -249 c 0
 284 -249 229 -212 229 -154 c 0
 229 -98.28 270.919 -48.8034 340.439 -19.8894 c 1
 155.66 3.385 40 155.021 40 359 c 0
EndSplineSet
Validated: 1
EndChar

StartChar: uni01EB
Encoding: 491 491 352
Width: 611
Flags: M
LayerCount: 2
Fore
SplineSet
302 436 m 0
 226 436 175 366 175 263 c 0
 175 160 226 90 302 90 c 0
 377 90 429 160 429 261 c 0
 429 367 379 436 302 436 c 0
301 549 m 0
 470 549 569 442 569 259 c 0
 569 95.6754 477.199 -10.6077 328.936 -21.9851 c 1
 252.897 -70.6434 231 -99.2855 231 -148 c 0
 231 -182 254 -198 307 -198 c 0
 327 -198 346 -196 364 -192 c 1
 364 -239 l 1
 337 -246 313 -249 285 -249 c 0
 196 -249 141 -212 141 -154 c 0
 141 -98.1178 183.164 -48.5154 253.047 -19.6375 c 1
 116.358 -0.126698 35 103.243 35 263 c 0
 35 440 136 549 301 549 c 0
EndSplineSet
Validated: 1
EndChar

StartChar: iota
Encoding: 953 953 378
Width: 346
Flags: MW
AnchorPoint: "abovegrk" 96 568 basechar 0
LayerCount: 2
Fore
SplineSet
170 159.5 m 2
 170 143 170 116 191 116 c 0
 200.055 116 223 125 254 141 c 1
 302 14 l 1
 252 -6 211 -17 180 -17 c 0
 113 -17 31 15 31 144 c 2
 31 540 l 1
 170 540 l 1
 170 391 170 159.5 170 159.5 c 2
EndSplineSet
Validated: 1
EndChar

StartChar: kappa
Encoding: 954 954 379
Width: 576
Flags: MW
LayerCount: 2
Fore
SplineSet
540 -8 m 1
 372 -8 l 1
 211 236 l 1
 180 206 l 1
 180 -8 l 1
 43 -8 l 1
 43 543 l 1
 180 543 l 1
 180 374 l 1
 350 543 l 1
 534 543 l 1
 309 329 l 1
 540 -8 l 1
EndSplineSet
Validated: 1
EndChar

StartChar: lambda
Encoding: 955 955 380
Width: 620
Flags: MW
LayerCount: 2
Fore
SplineSet
283 334 m 1
 161 -2 l 1
 17 -2 l 1
 216 515 l 1
 212 527 l 2
 189 603 168 610 138 610 c 0
 107 610 105 603 59 599 c 1
 74 721 l 1
 107 733 131 739 150 739 c 0
 272 739 304 630 341 532 c 2
 487 143 l 2
 497 116 500 113 505 113 c 0
 518 113 548 131 553 134 c 1
 586 22 l 1
 540 -2 505 -13 479 -13 c 0
 415 -13 397 27 379 76 c 2
 379 76 287 323 283 334 c 1
EndSplineSet
Validated: 1
EndChar

StartChar: uni03BC
Encoding: 956 956 381
Width: 667
Flags: MW
LayerCount: 2
Fore
SplineSet
298 103 m 0
 338 103 398 120 398 218 c 2
 398 543 l 1
 534 543 l 1
 534 164 l 2
 534 102 556 109 559 104 c 2
 595 36 l 1
 542 1 528 0 513 0 c 0
 510 0 l 0
 470 0 437 17 422 46 c 1
 395 15 347 -9 295 -9 c 0
 253 -9 225 -1 190 22 c 1
 190 -202 l 1
 52 -202 l 1
 52 543 l 1
 190 543 l 1
 190 218 l 2
 190 154 232 103 298 103 c 0
EndSplineSet
Validated: 1
EndChar

StartChar: nu
Encoding: 957 957 382
Width: 564
Flags: MW
LayerCount: 2
Fore
SplineSet
524 543 m 1
 309 -25 l 1
 193 -25 l 1
 -22 543 l 1
 124 543 l 1
 251 188 l 25
 380 543 l 1
 524 543 l 1
EndSplineSet
Validated: 1
EndChar

StartChar: xi
Encoding: 958 958 383
Width: 530
Flags: MW
LayerCount: 2
Fore
SplineSet
190 511 m 0
 190 475 211 427 331 427 c 2
 439 427 l 1
 439 316 l 1
 303 316 l 2
 214 316 152 266 152 202 c 0
 152 143 214 102 290 102 c 0
 379 102 441 100 471 56 c 0
 488 34 496 6 496 -27 c 0
 496 -70 479 -130 446 -209 c 1
 326 -165 l 1
 338 -133 367 -57 367 -34 c 0
 367 -17 363 -14 298 -14 c 2
 278 -14 l 2
 56 -14 17 109 17 194 c 0
 23 269 36 322 136 377 c 1
 111 390 63 431 63 511 c 0
 63 554 76 584 100 615 c 1
 39 615 l 1
 39 731 l 1
 465 731 l 1
 465 615 l 1
 272 615 l 2
 223 615 190 552 190 511 c 0
EndSplineSet
Validated: 1
EndChar

StartChar: pi
Encoding: 960 960 385
Width: 721
Flags: MW
LayerCount: 2
Fore
SplineSet
566 95 m 1
 570 95 608 124 613 127 c 1
 644 10 l 1
 618 0 575 -18 541 -18 c 0
 453 -18 427 30 427 122 c 2
 427 427 l 1
 243 427 l 1
 243 -13 l 1
 101 -13 l 1
 101 427 l 1
 32 427 l 1
 31 545 l 1
 627 545 l 1
 627 427 l 1
 564 427 l 1
 564 124 l 2
 564 108 564 98 566 95 c 1
EndSplineSet
Validated: 1
EndChar

StartChar: rho
Encoding: 961 961 386
Width: 626
Flags: MW
LayerCount: 2
Fore
SplineSet
566 277 m 0
 566 49 405 -8 297 -8 c 0
 244 -8 206 5 170 28 c 1
 170 -203 l 1
 32 -203 l 1
 32 277 l 2
 32 499 185 555 297 555 c 0
 405 555 566 499 566 277 c 0
170 270 m 0
 170 144 240 112 297 112 c 0
 350 112 426 144 426 272 c 0
 426 404 351 437 297 437 c 0
 246 437 170 412 170 270 c 0
EndSplineSet
Validated: 1
EndChar

StartChar: sigma1
Encoding: 962 962 387
Width: 595
Flags: MW
LayerCount: 2
Fore
SplineSet
147 273 m 0
 147 12 517 218 517 -23 c 0
 517 -61 503 -98 461 -205 c 1
 325 -157 l 1
 344 -117 360 -73 375 -28 c 0
 375 -25 369 -24 357 -24 c 0
 221 -9 202 -19 115 46 c 0
 49 93 5 178 5 275 c 0
 5 443 114 554 278 554 c 0
 383 554 518 503 518 298 c 1
 382 298 l 1
 382 379 359 429 270 429 c 0
 218 429 147 398 147 273 c 0
EndSplineSet
Validated: 1
EndChar

StartChar: sigma
Encoding: 963 963 388
Width: 676
Flags: MW
LayerCount: 2
Fore
SplineSet
276 -12 m 0
 60 -12 6 157 6 270 c 0
 6 494 161 551 276 551 c 0
 295 551 312 547 328 547 c 0
 618 547 l 1
 618 421 l 1
 503 421 l 1
 532 376 545 325 545 270 c 0
 545 109 449 -12 276 -12 c 0
276 435 m 0
 173 435 147 334 147 270 c 0
 147 178 185 106 276 106 c 0
 326 106 404 131 404 270 c 0
 404 401 334 435 276 435 c 0
EndSplineSet
Validated: 1
EndChar

StartChar: tau
Encoding: 964 964 389
Width: 592
Flags: MW
LayerCount: 2
Fore
SplineSet
330 -12 m 0
 198 -12 178 58 178 156 c 2
 178 428 l 1
 9 428 l 1
 9 542 l 1
 526 542 l 1
 526 428 l 1
 320 428 l 1
 320 163 l 2
 320 119 323 118 346 118 c 0
 352 118 374 122 400 128 c 1
 431 3 l 1
 410 -1 366 -12 330 -12 c 0
EndSplineSet
Validated: 1
EndChar

StartChar: upsilon
Encoding: 965 965 390
Width: 575
Flags: MW
AnchorPoint: "abovegrk" 260 556 basechar 0
LayerCount: 2
Fore
SplineSet
503 212 m 2
 503 73.0625 459.319 -16 262 -16 c 0
 51 -16 15 78 15 212 c 2
 15 540 l 1
 153 540 l 1
 153 238 l 2
 153 137 168 105 260 105 c 0
 351 105 365 135 365 244 c 2
 365 540 l 1
 503 540 l 1
 503 212 l 2
EndSplineSet
Validated: 1
EndChar

StartChar: phi
Encoding: 966 966 391
Width: 801
Flags: MW
LayerCount: 2
Fore
SplineSet
445 112 m 1
 532 112 590 173 590 260 c 0
 590 343 534 411 445 411 c 1
 445 112 l 1
310 -14 m 1
 132 -14 17 106 17 260 c 0
 17 420 132 500 178 527 c 1
 259 427 l 1
 198 386 152 333 152 264 c 0
 152 184 217 112 312 112 c 1
 312 545 l 1
 421 545 l 2
 607 545 725 419 725 259 c 0
 725 106 617 -14 454 -14 c 2
 446 -14 l 1
 446 -196 l 1
 307 -196 l 1
 307 -14 l 1
 310 -14 l 1
EndSplineSet
Validated: 1
EndChar

StartChar: chi
Encoding: 967 967 392
Width: 632
Flags: MW
LayerCount: 2
Fore
SplineSet
589 -180 m 1
 561 -193 536 -199 515 -199 c 2
 508 -199 l 2
 451 -199 405 -157 375 -102 c 2
 299 48 l 1
 137 -188 l 1
 -22 -188 l 1
 221 179 l 1
 84 413 l 2
 70 434 70 437 52 437 c 0
 41 434 24 433 1 433 c 1
 1 552 l 1
 33 557 50 559 53 559 c 0
 69 560 79 561 80 561 c 0
 153 561 183 513 195 492 c 2
 302 298 l 1
 436 542 l 1
 584 542 l 1
 381 178 l 1
 503 -49 l 2
 517 -71 520 -71 532 -71 c 0
 535 -71 540 -70 544 -69 c 0
 548 -69 563 -65 589 -54 c 1
 589 -180 l 1
EndSplineSet
Validated: 1
EndChar

StartChar: psi
Encoding: 968 968 393
Width: 722
Flags: MW
LayerCount: 2
Fore
SplineSet
399 108 m 1
 461 114 505 136 505 248 c 2
 505 540 l 1
 645 540 l 1
 645 221 l 2
 645 74 548 -6 399 -12 c 1
 399 -205 l 1
 263 -205 l 1
 263 -12 l 1
 113 -6 17 73 17 221 c 2
 17 540 l 1
 157 540 l 1
 157 248 l 2
 157 146 189 115 263 108 c 1
 263 523 l 1
 399 523 l 1
 399 108 l 1
EndSplineSet
Validated: 1
EndChar

StartChar: omega
Encoding: 969 969 394
Width: 800
Flags: MW
AnchorPoint: "abovegrk" 372 564 basechar 0
LayerCount: 2
Fore
SplineSet
511 101 m 0
 582 101 595 188 595 241 c 0
 595 363 543 427 468 504 c 1
 597 545 l 1
 699 463 729 312 729 247 c 0
 729 92 648 -15 514 -15 c 0
 449 -15 401 11 370 50 c 1
 339 11 290 -15 226 -15 c 0
 93 -15 11 90 11 247 c 0
 11 304 42 471 144 544 c 1
 273 505 l 1
 204 434 145 366 145 241 c 0
 145 180 161 101 228 101 c 0
 291 104 303 138 303 163 c 2
 303 399 l 1
 437 399 l 1
 437 163 l 2
 437 140 449 104 511 101 c 0
EndSplineSet
Validated: 1
EndChar

StartChar: afii10051
Encoding: 1026 1026 402
Width: 790
Flags: MW
LayerCount: 2
Fore
SplineSet
540 504 m 2
 722 504 758 361 758 324 c 2
 758 0 l 2
 736 -166 656 -152 538 -163 c 2
 468 -164 l 1
 468 -70 l 1
 528 -70 l 1
 576 -69 608 -51 608 0 c 0
 608 317 l 2
 608 349 590 369 553 376 c 1
 528 379 l 1
 353 379 l 1
 353 0 l 1
 202 0 l 1
 202 605 l 1
 14 605 l 1
 14 729 l 1
 536 729 l 1
 536 605 l 1
 352 605 l 1
 352 504 l 1
 540 504 l 2
EndSplineSet
Validated: 1
EndChar

StartChar: afii10053
Encoding: 1028 1028 404
Width: 722
Flags: MW
LayerCount: 2
Fore
SplineSet
539 482 m 1
 531 519 508 613 383 613 c 0
 286 613 217 548 197 436 c 1
 488 436 l 1
 488 311 l 1
 196 311 l 1
 208 179 273 103 378 103 c 0
 471 103 530 156 539 249 c 1
 685 249 l 1
 676 82 555 -23 374 -23 c 0
 171 -23 44 124 44 358 c 0
 44 594 172 741 378 741 c 0
 548 741 669 646 682 482 c 1
 539 482 l 1
EndSplineSet
Validated: 1
EndChar

StartChar: afii10058
Encoding: 1033 1033 409
Width: 1110
Flags: MW
LayerCount: 2
Fore
SplineSet
1064 223 m 0
 1064 33.45 925.938 0 829 0 c 2
 507 0 l 1
 507 604 l 1
 285 604 l 1
 285 414 l 2
 285 109 189 0 46 0 c 1
 46 145 l 17
 99 145 135 208 135 460 c 2
 135 729 l 1
 657 729 l 1
 657 435 l 1
 844 435 l 2
 1020 435 1064 321 1064 223 c 0
817 125 m 2
 893 125 914 153 914 218 c 0
 914 285 881 310 815 310 c 2
 657 310 l 1
 657 125 l 1
 817 125 l 2
EndSplineSet
Validated: 1
EndChar

StartChar: afii10059
Encoding: 1034 1034 410
Width: 1113
Flags: MW
LayerCount: 2
Fore
SplineSet
657 729 m 1
 657 469 l 1
 844 469 l 2
 978 469 1064 374 1064 226 c 0
 1064 80 981 0 829 0 c 2
 507 0 l 1
 507 311 l 1
 218 311 l 1
 218 0 l 1
 68 0 l 1
 68 729 l 1
 218 729 l 1
 218 436 l 1
 506 436 l 1
 506 729 l 1
 657 729 l 1
657 344 m 1
 657 125 l 1
 797 125 l 2
 877 125 914 160 914 235 c 0
 914 309 877 344 797 344 c 2
 657 344 l 1
EndSplineSet
Validated: 1
EndChar

StartChar: afii10060
Encoding: 1035 1035 411
Width: 790
Flags: MW
LayerCount: 2
Fore
SplineSet
540 504 m 2
 722 504 758 361 758 324 c 2
 758 0 l 1
 608 0 l 1
 608 317 l 2
 608 349 590 369 553 376 c 1
 528 379 l 1
 353 379 l 1
 353 0 l 1
 202 0 l 1
 202 605 l 1
 14 605 l 1
 14 729 l 1
 536 729 l 1
 536 605 l 1
 352 605 l 1
 352 504 l 1
 540 504 l 2
EndSplineSet
Validated: 1
EndChar

StartChar: afii10145
Encoding: 1039 1039 415
Width: 722
Flags: MW
LayerCount: 2
Fore
SplineSet
428 0 m 1
 428 -150 l 1
 298 -150 l 1
 298 0 l 1
 68 0 l 1
 68 729 l 1
 218 729 l 1
 218 125 l 1
 508 125 l 1
 508 729 l 1
 658 729 l 1
 658 0 l 1
 428 0 l 1
EndSplineSet
Validated: 1
EndChar

StartChar: afii10018
Encoding: 1041 1041 417
Width: 722
Flags: MW
LayerCount: 2
Fore
SplineSet
666 222 m 0
 666 125 615 0 410 0 c 2
 82 0 l 1
 82 729 l 1
 594 729 l 1
 594 604 l 1
 232 604 l 1
 232 463 l 1
 395 463 l 2
 618 463 666 294 666 222 c 0
232 338 m 1
 232 125 l 1
 411 125 l 2
 484 125 522 170 522 231 c 0
 522 293 484 338 411 338 c 2
 232 338 l 1
EndSplineSet
Validated: 1
EndChar

StartChar: afii10020
Encoding: 1043 1043 419
Width: 611
Flags: MW
LayerCount: 2
Fore
SplineSet
232 0 m 1
 82 0 l 1
 82 729 l 1
 594 729 l 1
 594 604 l 1
 232 604 l 1
 232 0 l 1
EndSplineSet
Validated: 1
EndChar

StartChar: afii10021
Encoding: 1044 1044 420
Width: 900
Flags: MW
LayerCount: 2
Fore
SplineSet
139 108 m 2
 192 108 230 255 230 461 c 2
 230 729 l 1
 750 729 l 1
 750 108 l 1
 865 108 l 1
 865 -150 l 1
 735 -150 l 1
 735 0 l 1
 165 0 l 1
 165 -150 l 1
 35 -150 l 1
 35 108 l 1
 139 108 l 2
333 125 m 1
 600 125 l 1
 600 604 l 1
 380 604 l 1
 380 414 l 2
 380 319 373 209 333 125 c 1
EndSplineSet
Validated: 1
EndChar

StartChar: afii10024
Encoding: 1046 1046 422
Width: 1093
Flags: MW
LayerCount: 2
Fore
SplineSet
475 285 m 1
 206 0 l 1
 22 0 l 1
 379 378 l 1
 66 729 l 1
 230 729 l 1
 475 450 l 1
 475 729 l 1
 625 729 l 1
 625 450 l 1
 870 729 l 1
 1034 729 l 1
 721 378 l 1
 1078 0 l 1
 894 0 l 1
 625 285 l 1
 625 0 l 1
 475 0 l 1
 475 285 l 1
EndSplineSet
Validated: 1
EndChar

StartChar: afii10025
Encoding: 1047 1047 423
Width: 672
Flags: MW
LayerCount: 2
Fore
SplineSet
45 507 m 1
 45 706 217 741 331 741 c 0
 506 741 607 659 607 517 c 0
 607 453 587 409 544 377 c 1
 606 343 633 293 633 213 c 0
 633 65 522 -23 334 -23 c 0
 148 -23 41 62 32 218 c 1
 178 218 l 1
 183 140 240 97 342 97 c 0
 433 97 489 134 489 195 c 0
 489 254 454 308 352 308 c 2
 250 308 l 1
 250 428 l 1
 326 428 l 2
 435 428 464 478 464 531 c 0
 464 586 415 621 338 621 c 0
 243 621 190 581 185 507 c 1
 45 507 l 1
EndSplineSet
Validated: 1
EndChar

StartChar: afii10026
Encoding: 1048 1048 424
Width: 757
Flags: MW
LayerCount: 2
Fore
SplineSet
232 0 m 1
 82 0 l 1
 82 729 l 1
 232 729 l 1
 232 233 l 1
 521 729 l 1
 675 729 l 1
 675 0 l 1
 525 0 l 1
 525 504 l 1
 232 0 l 1
EndSplineSet
Validated: 1
EndChar

StartChar: afii10027
Encoding: 1049 1049 425
Width: 757
Flags: MW
LayerCount: 2
Fore
SplineSet
507 927 m 1
 507 916 l 2
 507 841 450 784 375 784 c 0
 300 784 243 841 243 917 c 2
 243 927 l 1
 299 927 l 1
 305 883 330 861 376 861 c 0
 420 861 442 881 451 927 c 1
 507 927 l 1
232 0 m 1
 82 0 l 1
 82 729 l 1
 232 729 l 1
 232 233 l 1
 521 729 l 1
 675 729 l 1
 675 0 l 1
 525 0 l 1
 525 504 l 1
 232 0 l 1
EndSplineSet
Validated: 1
EndChar

StartChar: afii10028
Encoding: 1050 1050 426
Width: 750
Flags: MW
LayerCount: 2
Fore
SplineSet
232 0 m 1
 82 0 l 1
 82 729 l 1
 232 729 l 1
 232 450 l 1
 517 729 l 1
 694 729 l 1
 328 378 l 1
 725 0 l 1
 525 0 l 1
 232 285 l 1
 232 0 l 1
EndSplineSet
Validated: 1
EndChar

StartChar: afii10029
Encoding: 1051 1051 427
Width: 729
Flags: MW
LayerCount: 2
Fore
SplineSet
497 604 m 1
 275 604 l 1
 275 400 l 2
 275 223 248 -12 36 -12 c 1
 36 133 l 1
 37 133 l 0
 107 133 125 229 125 447 c 2
 125 729 l 1
 647 729 l 1
 647 0 l 1
 497 0 l 1
 497 604 l 1
EndSplineSet
Validated: 1
EndChar

StartChar: afii10033
Encoding: 1055 1055 431
Width: 753
Flags: MW
LayerCount: 2
Fore
SplineSet
521 604 m 1
 232 604 l 1
 232 0 l 1
 82 0 l 1
 82 729 l 1
 671 729 l 1
 671 0 l 1
 521 0 l 1
 521 604 l 1
EndSplineSet
Validated: 1
EndChar

StartChar: afii10037
Encoding: 1059 1059 435
Width: 718
Flags: MW
LayerCount: 2
Fore
SplineSet
328 0 m 1
 154 0 l 1
 268 226 l 1
 15 729 l 1
 178 729 l 1
 350 384 l 1
 522 729 l 1
 696 729 l 1
 328 0 l 1
EndSplineSet
Validated: 1
EndChar

StartChar: afii10038
Encoding: 1060 1060 436
Width: 892
Flags: MW
LayerCount: 2
Fore
SplineSet
371 0 m 1
 371 94 l 1
 363 94 351 94 337 94 c 0
 240 94 30 110 30 374 c 0
 30 627 238 638 343 638 c 0
 353 638 363 638 371 638 c 1
 371 729 l 1
 521 729 l 1
 521 638 l 1
 529 638 539 638 549 638 c 0
 654 638 862 627 862 374 c 0
 862 110 652 94 555 94 c 0
 541 94 529 94 521 94 c 1
 521 0 l 1
 371 0 l 1
371 188 m 1
 371 540 l 1
 366 540 361 540 355 540 c 0
 290 540 164 533 164 370 c 0
 164 201 268 188 338 188 c 0
 350 188 362 188 371 188 c 1
521 188 m 1
 530 188 542 188 554 188 c 0
 624 188 728 201 728 370 c 0
 728 533 602 540 537 540 c 0
 531 540 526 540 521 540 c 1
 521 188 l 1
EndSplineSet
Validated: 1
EndChar

StartChar: afii10040
Encoding: 1062 1062 438
Width: 816
Flags: MW
LayerCount: 2
Fore
SplineSet
521 125 m 1
 521 729 l 1
 671 729 l 1
 671 108 l 1
 781 108 l 1
 781 -150 l 1
 651 -150 l 1
 651 0 l 1
 82 0 l 1
 82 729 l 1
 232 729 l 1
 232 125 l 1
 521 125 l 1
EndSplineSet
Validated: 1
EndChar

StartChar: afii10041
Encoding: 1063 1063 439
Width: 685
Flags: MW
LayerCount: 2
Fore
SplineSet
474 225 m 1
 286 225 l 2
 168 225 68 306 68 406 c 2
 68 729 l 1
 218 729 l 1
 218 412 l 2
 218 366 262 350 298 350 c 2
 473 350 l 1
 473 729 l 1
 624 729 l 1
 624 0 l 1
 474 0 l 1
 474 225 l 1
EndSplineSet
Validated: 1
EndChar

StartChar: afii10042
Encoding: 1064 1064 440
Width: 1057
Flags: MW
LayerCount: 2
Fore
SplineSet
967 0 m 1
 68 0 l 1
 68 729 l 1
 218 729 l 1
 218 125 l 1
 437 125 l 1
 437 729 l 1
 587 729 l 1
 587 125 l 1
 817 125 l 1
 817 729 l 1
 967 729 l 1
 967 0 l 1
EndSplineSet
Validated: 1
EndChar

StartChar: afii10043
Encoding: 1065 1065 441
Width: 1183
Flags: MW
LayerCount: 2
Fore
SplineSet
962 0 m 1
 68 0 l 1
 68 729 l 1
 218 729 l 1
 218 125 l 1
 447 125 l 1
 447 729 l 1
 597 729 l 1
 597 125 l 1
 827 125 l 1
 827 729 l 1
 977 729 l 1
 977 108 l 1
 1097 108 l 1
 1097 -150 l 1
 962 -150 l 1
 962 0 l 1
EndSplineSet
Validated: 1
EndChar

StartChar: afii10044
Encoding: 1066 1066 442
Width: 928
Flags: MW
LayerCount: 2
Fore
SplineSet
394 469 m 1
 581 469 l 2
 715 469 801 374 801 226 c 0
 801 80 718 0 566 0 c 2
 244 0 l 1
 244 604 l 1
 14 605 l 1
 14 729 l 1
 394 729 l 1
 394 469 l 1
394 344 m 1
 394 125 l 1
 534 125 l 2
 614 125 651 160 651 235 c 0
 651 309 614 344 534 344 c 2
 394 344 l 1
EndSplineSet
Validated: 1
EndChar

StartChar: afii10045
Encoding: 1067 1067 443
Width: 949
Flags: MW
LayerCount: 2
Fore
SplineSet
884 729 m 1
 884 0 l 1
 734 0 l 1
 734 729 l 1
 884 729 l 1
218 469 m 1
 405 469 l 2
 539 469 625 374 625 226 c 0
 625 80 542 0 390 0 c 2
 68 0 l 1
 68 729 l 1
 218 729 l 1
 218 469 l 1
218 344 m 1
 218 125 l 1
 358 125 l 2
 438 125 475 160 475 235 c 0
 475 309 438 344 358 344 c 2
 218 344 l 1
EndSplineSet
Validated: 1
EndChar

StartChar: afii10046
Encoding: 1068 1068 444
Width: 687
Flags: MW
LayerCount: 2
Fore
SplineSet
226 469 m 1
 413 469 l 2
 547 469 633 374 633 226 c 0
 633 80 550 0 398 0 c 2
 76 0 l 1
 76 729 l 1
 226 729 l 1
 226 469 l 1
226 344 m 1
 226 125 l 1
 366 125 l 2
 446 125 483 160 483 235 c 0
 483 309 446 344 366 344 c 2
 226 344 l 1
EndSplineSet
Validated: 1
EndChar

StartChar: afii10047
Encoding: 1069 1069 445
Width: 722
Flags: MW
LayerCount: 2
Fore
SplineSet
47 482 m 1
 60 646 186 741 351 741 c 0
 557 741 685 594 685 358 c 0
 685 124 558 -23 355 -23 c 0
 174 -23 53 82 44 249 c 1
 190 249 l 1
 199 156 258 103 351 103 c 0
 456 103 521 179 533 311 c 1
 241 311 l 1
 241 436 l 1
 532 436 l 1
 512 548 443 613 346 613 c 0
 221 613 199 519 190 482 c 1
 47 482 l 1
EndSplineSet
Validated: 1
EndChar

StartChar: afii10048
Encoding: 1070 1070 446
Width: 1109
Flags: MW
LayerCount: 2
Fore
SplineSet
702 -23 m 0
 432 -23 372 226 364 311 c 1
 218 311 l 1
 218 0 l 1
 68 0 l 1
 68 729 l 1
 218 729 l 1
 218 436 l 1
 367 436 l 1
 379 506 442 741 701 741 c 0
 913 741 1043 572 1043 354 c 0
 1043 147 908 -23 702 -23 c 0
702 613 m 0
 581 613 511 512 511 359 c 0
 511 206 581 105 702 105 c 0
 822 105 893 206 893 355 c 0
 893 513 825 613 702 613 c 0
EndSplineSet
Validated: 1
EndChar

StartChar: afii10049
Encoding: 1071 1071 447
Width: 698
Flags: MW
LayerCount: 2
Fore
SplineSet
422 260 m 1
 201 0 l 1
 22 0 l 1
 242 265 l 1
 154 282 76 364 76 503 c 0
 76 649 159 729 311 729 c 2
 633 729 l 1
 633 0 l 1
 483 0 l 1
 483 260 l 1
 422 260 l 1
483 385 m 1
 483 604 l 1
 343 604 l 2
 263 604 226 569 226 494 c 0
 226 420 263 385 343 385 c 2
 483 385 l 1
EndSplineSet
Validated: 1
EndChar

StartChar: afii10066
Encoding: 1073 1073 449
Width: 606
Flags: MW
LayerCount: 2
Fore
SplineSet
338 549 m 0
 466 549 565 432 565 263 c 0
 565 100 476 -23 305 -23 c 0
 143 -23 50 50 50 292 c 0
 50 428 68 603 196 684 c 0
 241 712 322 716 386 724 c 0
 434 730 438 776 438 776 c 1
 542 777 l 1
 542 736 542 690 509 666 c 0
 426 606 334 642 253 592 c 0
 204 562 170 516 169 462 c 1
 204 532 271 549 338 549 c 0
307 432 m 0
 237 432 189 363 189 265 c 0
 189 162 236 94 307 94 c 0
 376 94 425 164 425 262 c 0
 425 362 376 432 307 432 c 0
EndSplineSet
Validated: 1
EndChar

StartChar: afii10067
Encoding: 1074 1074 450
Width: 572
Flags: MW
LayerCount: 2
Fore
SplineSet
518 155 m 0
 518 89 480 0 329 0 c 2
 60 0 l 1
 60 540 l 1
 326 540 l 2
 470 540 503 448 503 398 c 0
 503 352 474 300 429 286 c 1
 490 268 518 208 518 155 c 0
200 430 m 1
 200 333 l 1
 294 333 l 2
 345 333 368 341 368 380 c 0
 368 420 345 430 294 430 c 2
 200 430 l 1
200 223 m 1
 200 110 l 1
 300 110 l 2
 354 110 379 125 379 170 c 0
 379 216 354 223 300 223 c 2
 200 223 l 1
EndSplineSet
Validated: 1
EndChar

StartChar: afii10068
Encoding: 1075 1075 451
Width: 454
Flags: MW
LayerCount: 2
Fore
SplineSet
408 540 m 1
 408 427 l 1
 200 427 l 1
 200 0 l 1
 60 0 l 1
 60 540 l 1
 408 540 l 1
EndSplineSet
Validated: 1
EndChar

StartChar: afii10069
Encoding: 1076 1076 452
Width: 685
Flags: MW
LayerCount: 2
Fore
SplineSet
580 101 m 1
 662 101 l 1
 662 -125 l 1
 552 -125 l 1
 552 0 l 1
 133 0 l 1
 133 -125 l 1
 23 -125 l 1
 23 101 l 1
 85 101 l 2
 138 102 162 252 162 388 c 2
 162 540 l 1
 580 540 l 1
 580 101 l 1
263 113 m 1
 440 113 l 1
 440 427 l 1
 302 427 l 1
 302 376 l 2
 302 259 290 174 263 113 c 1
EndSplineSet
Validated: 1
EndChar

StartChar: afii10072
Encoding: 1078 1078 454
Width: 809
Flags: MW
LayerCount: 2
Fore
SplineSet
332 198 m 1
 195 0 l 1
 16 0 l 1
 229 296 l 1
 52 540 l 1
 200 540 l 1
 332 351 l 1
 332 540 l 1
 472 540 l 1
 472 351 l 1
 604 540 l 1
 752 540 l 1
 575 296 l 1
 788 0 l 1
 609 0 l 1
 472 198 l 1
 472 0 l 1
 332 0 l 1
 332 198 l 1
EndSplineSet
Validated: 1
EndChar

StartChar: afii10073
Encoding: 1079 1079 455
Width: 546
Flags: MW
LayerCount: 2
Fore
SplineSet
166 157 m 1
 174 120 188 87 276 87 c 0
 341 87 380 107 380 140 c 0
 380 143 l 0
 380 166 378 208 298 208 c 2
 206 208 l 1
 206 318 l 1
 300 318 l 2
 360 318 365 352 365 376 c 0
 365 381 365 385 365 389 c 0
 365 419 333 439 284 439 c 0
 217 439 184 415 183 366 c 1
 48 366 l 1
 50 480 138 549 283 549 c 0
 420 549 505 480 505 369 c 0
 505 349 503 303 461 271 c 1
 501 246 520 213 520 160 c 0
 520 85 473 -23 284 -23 c 0
 120 -23 33 39 29 157 c 1
 166 157 l 1
EndSplineSet
Validated: 1
EndChar

StartChar: afii10074
Encoding: 1080 1080 456
Width: 615
Flags: MW
LayerCount: 2
Fore
SplineSet
60 540 m 1
 200 540 l 1
 200 202 l 1
 395 540 l 1
 555 540 l 1
 555 0 l 1
 415 0 l 1
 415 338 l 1
 220 0 l 1
 60 0 l 1
 60 540 l 1
EndSplineSet
Validated: 1
EndChar

StartChar: afii10075
Encoding: 1081 1081 457
Width: 615
Flags: MW
LayerCount: 2
Fore
SplineSet
60 540 m 1
 200 540 l 1
 200 202 l 1
 395 540 l 1
 555 540 l 1
 555 0 l 1
 415 0 l 1
 415 338 l 1
 220 0 l 1
 60 0 l 1
 60 540 l 1
440 723 m 1
 440 712 l 2
 440 637 383 580 308 580 c 0
 233 580 176 637 176 713 c 2
 176 723 l 1
 232 723 l 1
 238 679 263 657 309 657 c 0
 353 657 376 677 384 723 c 1
 440 723 l 1
EndSplineSet
Validated: 1
EndChar

StartChar: afii10076
Encoding: 1082 1082 458
Width: 573
Flags: MW
LayerCount: 2
Fore
SplineSet
200 351 m 1
 362 540 l 1
 510 540 l 1
 296 296 l 1
 549 0 l 1
 367 0 l 1
 200 198 l 1
 200 0 l 1
 60 0 l 1
 60 540 l 1
 200 540 l 1
 200 351 l 1
EndSplineSet
Validated: 1
EndChar

StartChar: afii10077
Encoding: 1083 1083 459
Width: 577
Flags: MW
LayerCount: 2
Fore
SplineSet
104 540 m 1
 517 540 l 1
 517 0 l 1
 377 0 l 1
 377 427 l 1
 244 427 l 1
 244 366 l 2
 244 102 182 -10 29 -10 c 1
 29 125 l 1
 102 126 104 242 104 378 c 2
 104 540 l 1
EndSplineSet
Validated: 1
EndChar

StartChar: afii10078
Encoding: 1084 1084 460
Width: 666
Flags: MW
LayerCount: 2
Fore
SplineSet
369 0 m 1
 297 0 l 1
 200 297 l 1
 200 0 l 1
 60 0 l 1
 60 540 l 1
 235 540 l 1
 333 213 l 1
 431 540 l 1
 606 540 l 1
 606 0 l 1
 466 0 l 1
 466 297 l 1
 369 0 l 1
EndSplineSet
Validated: 1
EndChar

StartChar: afii10079
Encoding: 1085 1085 461
Width: 603
Flags: MW
LayerCount: 2
Fore
SplineSet
60 540 m 1
 200 540 l 1
 200 320 l 1
 403 320 l 1
 403 540 l 1
 543 540 l 1
 543 0 l 1
 403 0 l 1
 403 207 l 1
 200 207 l 1
 200 0 l 1
 60 0 l 1
 60 540 l 1
EndSplineSet
Validated: 1
EndChar

StartChar: afii10081
Encoding: 1087 1087 463
Width: 603
Flags: MW
LayerCount: 2
Fore
SplineSet
60 540 m 1
 543 540 l 1
 543 0 l 1
 403 0 l 1
 403 427 l 1
 200 427 l 1
 200 0 l 1
 60 0 l 1
 60 540 l 1
EndSplineSet
Validated: 1
EndChar

StartChar: afii10084
Encoding: 1090 1090 466
Width: 454
Flags: MW
LayerCount: 2
Fore
SplineSet
431 540 m 1
 431 427 l 1
 296 427 l 1
 296 0 l 1
 156 0 l 1
 156 427 l 1
 21 427 l 1
 21 540 l 1
 431 540 l 1
EndSplineSet
Validated: 1
EndChar

StartChar: afii10086
Encoding: 1092 1092 468
Width: 957
Flags: MW
LayerCount: 2
Fore
SplineSet
694 549 m 0
 834 549 920 421 920 262 c 0
 920 98 824 -24 694 -24 c 0
 626 -24 578 4 544 64 c 1
 544 -218 l 1
 404 -218 l 1
 404 64 l 1
 370 4 322 -24 254 -24 c 0
 124 -24 28 98 28 262 c 0
 28 421 113 549 254 549 c 0
 322 549 370 520 404 460 c 1
 404 719 l 1
 544 719 l 1
 544 460 l 1
 578 520 626 549 694 549 c 0
286 432 m 0
 215 432 168 363 168 260 c 0
 168 162 217 93 286 93 c 0
 356 93 404 161 404 262 c 0
 404 363 356 432 286 432 c 0
662 432 m 0
 592 432 544 363 544 262 c 0
 544 161 592 93 662 93 c 0
 731 93 780 162 780 260 c 0
 780 363 733 432 662 432 c 0
EndSplineSet
Validated: 1
EndChar

StartChar: afii10088
Encoding: 1094 1094 470
Width: 652
Flags: MW
LayerCount: 2
Fore
SplineSet
60 0 m 1
 60 540 l 1
 200 540 l 1
 200 113 l 1
 403 113 l 1
 403 540 l 1
 543 540 l 1
 543 101 l 1
 629 101 l 1
 629 -125 l 1
 519 -125 l 1
 519 0 l 1
 60 0 l 1
EndSplineSet
Validated: 1
EndChar

StartChar: afii10089
Encoding: 1095 1095 471
Width: 578
Flags: MW
LayerCount: 2
Fore
SplineSet
60 540 m 1
 200 540 l 1
 200 326 l 2
 200 282 222 278 258 278 c 2
 378 278 l 1
 378 540 l 1
 518 540 l 1
 518 0 l 1
 378 0 l 1
 378 165 l 1
 260 165 l 2
 170 165 60 194 60 325 c 2
 60 540 l 1
EndSplineSet
Validated: 1
EndChar

StartChar: afii10090
Encoding: 1096 1096 472
Width: 886
Flags: MW
LayerCount: 2
Fore
SplineSet
826 0 m 1
 60 0 l 1
 60 540 l 1
 200 540 l 1
 200 113 l 1
 371 113 l 1
 371 540 l 1
 511 540 l 1
 511 113 l 1
 686 113 l 1
 686 540 l 1
 826 540 l 1
 826 0 l 1
EndSplineSet
Validated: 1
EndChar

StartChar: afii10091
Encoding: 1097 1097 473
Width: 968
Flags: MW
LayerCount: 2
Fore
SplineSet
835 0 m 1
 60 0 l 1
 60 540 l 1
 200 540 l 1
 200 113 l 1
 371 113 l 1
 371 540 l 1
 511 540 l 1
 511 113 l 1
 685 113 l 1
 685 540 l 1
 825 540 l 1
 825 101 l 1
 945 101 l 1
 945 -125 l 1
 835 -125 l 1
 835 0 l 1
EndSplineSet
Validated: 1
EndChar

StartChar: afii10092
Encoding: 1098 1098 474
Width: 693
Flags: MW
LayerCount: 2
Fore
SplineSet
663 168 m 0
 663 103 635 0 474 0 c 2
 191 0 l 1
 191 427 l 1
 20 427 l 1
 20 540 l 1
 331 540 l 1
 331 359 l 1
 439 359 l 2
 586 359 663 278 663 168 c 0
331 249 m 1
 331 110 l 1
 440 110 l 2
 494 110 524 135 524 180 c 0
 524 226 489 249 435 249 c 2
 331 249 l 1
EndSplineSet
Validated: 1
EndChar

StartChar: afii10093
Encoding: 1099 1099 475
Width: 811
Flags: MW
LayerCount: 2
Fore
SplineSet
532 168 m 0
 532 103 504 0 343 0 c 2
 60 0 l 1
 60 540 l 1
 200 540 l 1
 200 359 l 1
 308 359 l 2
 455 359 532 278 532 168 c 0
200 249 m 1
 200 110 l 1
 309 110 l 2
 363 110 393 135 393 180 c 0
 393 226 358 249 304 249 c 2
 200 249 l 1
718 540 m 1
 718 0 l 1
 578 0 l 1
 578 540 l 1
 718 540 l 1
EndSplineSet
Validated: 1
EndChar

StartChar: afii10094
Encoding: 1100 1100 476
Width: 562
Flags: MW
LayerCount: 2
Fore
SplineSet
532 168 m 0
 532 103 504 0 343 0 c 2
 60 0 l 1
 60 540 l 1
 200 540 l 1
 200 359 l 1
 308 359 l 2
 455 359 532 278 532 168 c 0
200 249 m 1
 200 110 l 1
 309 110 l 2
 363 110 393 135 393 180 c 0
 393 226 358 249 304 249 c 2
 200 249 l 1
EndSplineSet
Validated: 1
EndChar

StartChar: afii10095
Encoding: 1101 1101 477
Width: 564
Flags: MW
LayerCount: 2
Fore
SplineSet
377 320 m 1
 363 397 336 436 268 436 c 0
 211 436 184 409 168 338 c 1
 34 338 l 1
 44 470 132 549 267 549 c 0
 428 549 522 443 522 259 c 0
 522 81 429 -23 269 -23 c 0
 138 -23 47 58 34 187 c 1
 168 187 l 1
 186 117 214 90 268 90 c 0
 326 90 366 133 378 207 c 1
 203 207 l 1
 203 320 l 1
 377 320 l 1
EndSplineSet
Validated: 1
EndChar

StartChar: afii10096
Encoding: 1102 1102 478
Width: 908
Flags: MW
LayerCount: 2
Fore
SplineSet
302 207 m 1
 200 207 l 1
 200 0 l 1
 60 0 l 1
 60 540 l 1
 200 540 l 1
 200 320 l 1
 302 320 l 1
 322 463 408 549 554 549 c 0
 723 549 812 442 812 259 c 0
 812 86 719 -23 555 -23 c 0
 407 -23 321 63 302 207 c 1
555 436 m 0
 479 436 438 366 438 263 c 0
 438 160 479 90 555 90 c 0
 630 90 672 160 672 261 c 0
 672 367 632 436 555 436 c 0
EndSplineSet
Validated: 1
EndChar

StartChar: afii10097
Encoding: 1103 1103 479
Width: 596
Flags: MW
LayerCount: 2
Fore
SplineSet
51 385 m 0
 51 451 89 540 240 540 c 2
 531 540 l 1
 531 0 l 1
 391 0 l 1
 391 207 l 1
 347 207 l 1
 204 0 l 1
 25 0 l 1
 180 218 l 1
 97 241 51 305 51 382 c 0
 51 385 l 0
391 317 m 1
 391 430 l 1
 269 430 l 2
 215 430 190 415 190 370 c 0
 190 324 215 317 269 317 c 2
 391 317 l 1
EndSplineSet
Validated: 1
EndChar

StartChar: afii10099
Encoding: 1106 1106 482
Width: 606
Flags: MW
LayerCount: 2
Fore
SplineSet
341 421 m 0
 273 421 232 374 232 315 c 2
 232 0 l 1
 92 0 l 1
 92 567 l 1
 22 567 l 1
 22 671 l 1
 92 671 l 1
 92 729 l 1
 232 729 l 1
 232 671 l 1
 402 671 l 1
 402 567 l 1
 232 567 l 1
 232 453 l 1
 271 511 324 540 391 540 c 0
 469 540 567 503 567 354 c 2
 567 353 l 1
 568 132 l 0
 568 -45 351 -173 279 -173 c 0
 275 -173 271 -173 268 -172 c 1
 268 -110 l 1
 324 -108 423 -25 428 112 c 1
 427 321 l 2
 427 322 l 2
 427 406 376 421 341 421 c 0
EndSplineSet
Validated: 1
EndChar

StartChar: afii10101
Encoding: 1108 1108 484
Width: 556
Flags: MW
LayerCount: 2
Fore
SplineSet
353 207 m 1
 178 207 l 1
 190 133 230 90 288 90 c 0
 342 90 370 117 388 187 c 1
 522 187 l 1
 509 58 418 -23 287 -23 c 0
 127 -23 34 81 34 259 c 0
 34 443 128 549 289 549 c 0
 424 549 512 470 522 338 c 1
 388 338 l 1
 372 409 345 436 288 436 c 0
 220 436 193 397 179 320 c 1
 353 320 l 1
 353 207 l 1
EndSplineSet
Validated: 1
EndChar

StartChar: afii10106
Encoding: 1113 1113 489
Width: 900
Flags: MW
LayerCount: 2
Fore
SplineSet
651 319 m 2
 778 319 862 257 862 178 c 2
 862 147 l 2
 862 85 827 0 686 0 c 2
 403 0 l 1
 403 427 l 1
 244 427 l 1
 244 376 l 2
 244 207 222 11 45 0 c 2
 29 0 l 1
 29 135 l 1
 96 136 104 241 104 387 c 2
 104 540 l 1
 543 540 l 1
 543 319 l 1
 651 319 l 2
647 209 m 2
 543 209 l 1
 543 110 l 1
 652 110 l 2
 703 110 739 110 739 157 c 0
 739 191 721 209 647 209 c 2
EndSplineSet
Validated: 1
EndChar

StartChar: afii10107
Encoding: 1114 1114 490
Width: 900
Flags: MW
LayerCount: 2
Fore
SplineSet
654 319 m 2
 781 319 865 257 865 178 c 2
 865 147 l 2
 865 85 830 0 689 0 c 2
 406 0 l 1
 406 207 l 1
 203 207 l 1
 203 0 l 1
 63 0 l 1
 63 540 l 1
 203 540 l 1
 203 320 l 1
 406 320 l 1
 406 540 l 1
 546 540 l 1
 546 319 l 1
 654 319 l 2
650 209 m 2
 546 209 l 1
 546 110 l 1
 655 110 l 2
 726 110 742 126 742 162 c 0
 742 189 723 209 650 209 c 2
EndSplineSet
Validated: 1
EndChar

StartChar: afii10108
Encoding: 1115 1115 491
Width: 606
Flags: MW
LayerCount: 2
Fore
SplineSet
341 421 m 0
 273 421 232 373 232 315 c 2
 232 0 l 1
 92 0 l 1
 92 567 l 1
 22 567 l 1
 22 671 l 1
 92 671 l 1
 92 729 l 1
 232 729 l 1
 232 671 l 1
 402 671 l 1
 402 567 l 1
 232 567 l 1
 232 453 l 1
 271 511 324 540 391 540 c 0
 468 540 567 503 567 354 c 2
 567 353 l 1
 566 0 l 1
 426 0 l 1
 427 321 l 2
 427 406 377 421 341 421 c 0
EndSplineSet
Validated: 1
EndChar

StartChar: afii10193
Encoding: 1119 1119 495
Width: 608
Flags: MW
LayerCount: 2
Fore
SplineSet
357 0 m 1
 357 -125 l 1
 247 -125 l 1
 247 0 l 1
 60 0 l 1
 60 540 l 1
 200 540 l 1
 200 113 l 1
 404 113 l 1
 404 540 l 1
 544 540 l 1
 544 0 l 1
 357 0 l 1
EndSplineSet
Validated: 1
EndChar

StartChar: uni048C
Encoding: 1164 1164 496
Width: 687
Flags: MW
LayerCount: 2
Fore
SplineSet
226 344 m 1
 226 125 l 1
 366 125 l 2
 446 125 483 160 483 235 c 0
 483 309 446 344 366 344 c 2
 226 344 l 1
226 634 m 1
 305 634 l 1
 305 555 l 1
 226 555 l 1
 226 469 l 1
 413 469 l 2
 547 469 633 374 633 226 c 0
 633 80 550 0 398 0 c 2
 76 0 l 1
 76 555 l 1
 6 555 l 1
 6 634 l 1
 76 634 l 1
 76 729 l 1
 226 729 l 1
 226 634 l 1
EndSplineSet
Validated: 1
EndChar

StartChar: uni048D
Encoding: 1165 1165 497
Width: 562
Flags: MW
LayerCount: 2
Fore
SplineSet
200 223 m 1
 200 110 l 1
 322 110 l 2
 376 110 401 125 401 170 c 0
 401 216 376 223 322 223 c 2
 200 223 l 1
540 155 m 0
 540 89 502 0 351 0 c 2
 60 0 l 1
 60 392 l 1
 -20 392 l 1
 -20 471 l 1
 60 471 l 1
 60 540 l 1
 200 540 l 1
 200 471 l 1
 279 471 l 1
 279 392 l 1
 200 392 l 1
 200 333 l 1
 316 333 l 2
 463 333 537 267 540 155 c 0
EndSplineSet
Validated: 1
EndChar

StartChar: uni048E
Encoding: 1166 1166 498
Width: 667
Flags: MW
LayerCount: 2
Fore
SplineSet
468 428 m 1
 478 445 483 467 483 494 c 0
 483 569 446 604 366 604 c 2
 226 604 l 1
 226 385 l 1
 366 385 l 2
 377 385 388 386 397 387 c 1
 352 432 l 1
 408 488 l 1
 468 428 l 1
572 324 m 1
 619 277 l 1
 563 221 l 1
 506 278 l 1
 479 266 447 260 413 260 c 2
 226 260 l 1
 226 0 l 1
 76 0 l 1
 76 729 l 1
 398 729 l 2
 550 729 633 649 633 503 c 0
 633 428 611 367 572 324 c 1
EndSplineSet
Validated: 1
EndChar

StartChar: uni048F
Encoding: 1167 1167 499
Width: 611
Flags: MW
LayerCount: 2
Fore
SplineSet
414 163 m 1
 427 189 434 223 434 260 c 0
 434 363 387 432 316 432 c 0
 246 432 198 363 198 262 c 0
 198 161 246 93 316 93 c 0
 332 93 347 97 361 104 c 1
 306 159 l 1
 362 215 l 1
 414 163 l 1
348 549 m 0
 488 549 574 421 574 262 c 0
 574 183 552 114 514 63 c 1
 573 4 l 1
 517 -52 l 1
 457 8 l 1
 425 -12 388 -24 348 -24 c 0
 280 -24 232 4 198 64 c 1
 198 -218 l 1
 58 -218 l 1
 58 540 l 1
 198 540 l 1
 198 460 l 1
 232 520 280 549 348 549 c 0
EndSplineSet
Validated: 1
EndChar

StartChar: afii10050
Encoding: 1168 1168 500
Width: 611
Flags: MW
LayerCount: 2
Fore
SplineSet
224 0 m 1
 74 0 l 1
 74 729 l 1
 436 728 l 1
 436 864 l 1
 586 864 l 1
 586 604 l 1
 224 604 l 1
 224 0 l 1
EndSplineSet
Validated: 1
EndChar

StartChar: afii10098
Encoding: 1169 1169 501
Width: 454
Flags: MW
LayerCount: 2
Fore
SplineSet
412 666 m 1
 412 427 l 1
 204 427 l 1
 204 0 l 1
 64 0 l 1
 64 540 l 1
 284 540 l 1
 284 666 l 1
 412 666 l 1
EndSplineSet
Validated: 1
EndChar

StartChar: uni0492
Encoding: 1170 1170 502
Width: 611
Flags: MW
LayerCount: 2
Fore
SplineSet
232 439 m 1
 423 439 l 1
 423 314 l 1
 232 314 l 1
 232 0 l 1
 82 0 l 1
 82 314 l 1
 4 314 l 1
 4 439 l 1
 82 439 l 1
 82 729 l 1
 594 729 l 1
 594 604 l 1
 232 604 l 1
 232 439 l 1
EndSplineSet
Validated: 1
EndChar

StartChar: uni0493
Encoding: 1171 1171 503
Width: 454
Flags: MW
LayerCount: 2
Fore
SplineSet
60 329 m 1
 60 540 l 1
 408 540 l 1
 408 427 l 1
 200 427 l 1
 200 329 l 1
 304 329 l 1
 304 239 l 1
 200 239 l 1
 200 0 l 1
 60 0 l 1
 60 239 l 1
 -6 239 l 1
 -6 329 l 1
 60 329 l 1
EndSplineSet
Validated: 1
EndChar

StartChar: uni0494
Encoding: 1172 1172 504
Width: 611
Flags: MW
LayerCount: 2
Fore
SplineSet
224 0 m 1
 74 0 l 1
 74 729 l 1
 586 729 l 1
 586 604 l 1
 224 604 l 1
 224 504 l 1
 351 504 l 2
 499 504 599 408 599 282 c 2
 599 50 l 2
 599 -76 499 -172 351 -172 c 2
 314 -172 l 1
 314 -47 l 1
 339 -47 l 2
 397 -47 449 -10 449 56 c 2
 449 276 l 2
 449 342 397 379 339 379 c 2
 224 379 l 1
 224 0 l 1
EndSplineSet
Validated: 1
EndChar

StartChar: uni0495
Encoding: 1173 1173 505
Width: 584
Flags: MW
LayerCount: 2
Fore
SplineSet
308 -68 m 1
 375 -68 394 -22 394 32 c 2
 394 111 l 2
 394 190 354 211 288 211 c 0
 225 211 200 168 200 125 c 2
 200 0 l 1
 60 0 l 1
 60 540 l 1
 408 540 l 1
 408 427 l 1
 200 427 l 1
 200 273 l 1
 228 318 269 330 338 330 c 0
 420 330 534 302 534 143 c 2
 534 0 l 2
 534 -150 434 -187 358 -187 c 2
 308 -187 l 1
 308 -68 l 1
EndSplineSet
Validated: 1
EndChar

StartChar: uni0496
Encoding: 1174 1174 506
Width: 1093
Flags: MW
LayerCount: 2
Fore
SplineSet
976 108 m 1
 1078 108 l 1
 1078 -150 l 1
 943 -150 l 1
 943 0 l 1
 899 0 l 1
 625 285 l 1
 625 0 l 1
 475 0 l 1
 475 285 l 1
 201 0 l 1
 22 0 l 1
 379 378 l 1
 66 729 l 1
 230 729 l 1
 475 450 l 1
 475 729 l 1
 625 729 l 1
 625 450 l 1
 870 729 l 1
 1034 729 l 1
 721 378 l 1
 976 108 l 1
EndSplineSet
Validated: 1
EndChar

StartChar: uni0497
Encoding: 1175 1175 507
Width: 809
Flags: MW
LayerCount: 2
Fore
SplineSet
715 101 m 1
 788 101 l 1
 788 -125 l 1
 678 -125 l 1
 678 0 l 1
 609 0 l 1
 472 198 l 1
 472 0 l 1
 332 0 l 1
 332 198 l 1
 195 0 l 1
 16 0 l 1
 229 296 l 1
 52 540 l 1
 200 540 l 1
 332 351 l 1
 332 540 l 1
 472 540 l 1
 472 351 l 1
 604 540 l 1
 752 540 l 1
 575 296 l 1
 715 101 l 1
EndSplineSet
Validated: 1
EndChar

StartChar: uni0498
Encoding: 1176 1176 508
Width: 672
Flags: MW
LayerCount: 2
Fore
SplineSet
45 507 m 1
 45 706 217 741 331 741 c 0
 506 741 607 659 607 517 c 0
 607 453 587 409 544 377 c 1
 606 343 633 293 633 213 c 0
 633 75 536 -11 370 -22 c 1
 419 -51 448 -93 448 -139 c 0
 448 -197 393 -234 304 -234 c 0
 276 -234 252 -231 225 -224 c 1
 225 -177 l 1
 243 -181 262 -183 282 -183 c 0
 335 -183 358 -167 358 -133 c 0
 358 -89 340 -61 280 -20 c 1
 128 -5 40 78 32 218 c 1
 178 218 l 1
 183 140 240 97 342 97 c 0
 433 97 489 134 489 195 c 0
 489 254 454 308 352 308 c 2
 250 308 l 1
 250 428 l 1
 326 428 l 2
 435 428 464 478 464 531 c 0
 464 586 415 621 338 621 c 0
 243 621 190 581 185 507 c 1
 45 507 l 1
EndSplineSet
Validated: 1
EndChar

StartChar: uni0499
Encoding: 1177 1177 509
Width: 546
Flags: MW
LayerCount: 2
Fore
SplineSet
520 160 m 0
 520 6 366 -17 327 -21 c 1
 377 -51 406 -93 406 -139 c 0
 406 -197 351 -234 262 -234 c 0
 234 -234 210 -231 183 -224 c 1
 183 -177 l 1
 201 -181 220 -183 240 -183 c 0
 293 -183 316 -167 316 -133 c 0
 316 -89 298 -62 240 -21 c 1
 104 -11 33 50 29 157 c 1
 166 157 l 1
 174 120 188 87 276 87 c 0
 341 87 380 107 380 140 c 0
 380 143 l 0
 380 166 378 208 298 208 c 2
 206 208 l 1
 206 318 l 1
 300 318 l 2
 360 318 365 352 365 376 c 0
 365 381 365 385 365 389 c 0
 365 419 333 439 284 439 c 0
 217 439 184 415 183 366 c 1
 48 366 l 1
 50 480 138 549 283 549 c 0
 420 549 505 480 505 369 c 0
 505 349 503 303 461 271 c 1
 501 246 520 213 520 160 c 0
EndSplineSet
Validated: 1
EndChar

StartChar: uni049A
Encoding: 1178 1178 510
Width: 750
Flags: MW
LayerCount: 2
Fore
SplineSet
612 108 m 1
 725 108 l 1
 725 -150 l 1
 595 -150 l 1
 595 0 l 1
 525 0 l 1
 232 285 l 1
 232 0 l 1
 82 0 l 1
 82 729 l 1
 232 729 l 1
 232 450 l 1
 517 729 l 1
 694 729 l 1
 328 378 l 1
 612 108 l 1
EndSplineSet
Validated: 1
EndChar

StartChar: uni049B
Encoding: 1179 1179 511
Width: 573
Flags: MW
LayerCount: 2
Fore
SplineSet
463 101 m 1
 549 101 l 1
 549 -125 l 1
 439 -125 l 1
 439 0 l 1
 367 0 l 1
 200 198 l 1
 200 0 l 1
 60 0 l 1
 60 540 l 1
 200 540 l 1
 200 351 l 1
 362 540 l 1
 510 540 l 1
 296 296 l 1
 463 101 l 1
EndSplineSet
Validated: 1
EndChar

StartChar: uni049C
Encoding: 1180 1180 512
Width: 722
Flags: MW
LayerCount: 2
Fore
SplineSet
276 242 m 1
 232 285 l 1
 232 0 l 1
 82 0 l 1
 82 729 l 1
 232 729 l 1
 232 450 l 1
 276 493 l 1
 276 639 l 1
 355 639 l 1
 355 570 l 1
 517 729 l 1
 694 729 l 1
 355 404 l 1
 355 352 l 1
 725 0 l 1
 525 0 l 1
 355 165 l 1
 355 100 l 1
 276 100 l 1
 276 242 l 1
EndSplineSet
Validated: 1
EndChar

StartChar: uni049D
Encoding: 1181 1181 513
Width: 573
Flags: MW
LayerCount: 2
Fore
SplineSet
236 155 m 1
 200 198 l 1
 200 0 l 1
 60 0 l 1
 60 540 l 1
 200 540 l 1
 200 351 l 1
 236 393 l 1
 236 519 l 1
 315 519 l 1
 315 485 l 1
 362 540 l 1
 510 540 l 1
 315 318 l 1
 315 274 l 1
 549 0 l 1
 367 0 l 1
 315 62 l 1
 315 35 l 1
 236 35 l 1
 236 155 l 1
EndSplineSet
Validated: 1
EndChar

StartChar: uni049E
Encoding: 1182 1182 514
Width: 722
Flags: MW
LayerCount: 2
Fore
SplineSet
224 666 m 1
 301 666 l 1
 301 587 l 1
 224 587 l 1
 224 450 l 1
 509 729 l 1
 686 729 l 1
 320 378 l 1
 724 0 l 1
 538 0 l 1
 224 285 l 1
 224 0 l 1
 74 0 l 1
 74 587 l 1
 2 587 l 1
 2 666 l 1
 74 666 l 1
 74 729 l 1
 224 729 l 1
 224 666 l 1
EndSplineSet
Validated: 1
EndChar

StartChar: uni049F
Encoding: 1183 1183 515
Width: 573
Flags: MW
LayerCount: 2
Fore
SplineSet
199 501 m 1
 253 501 l 1
 253 442 l 1
 199 442 l 1
 199 351 l 1
 361 540 l 1
 509 540 l 1
 295 296 l 1
 548 0 l 1
 366 0 l 1
 199 198 l 1
 199 0 l 1
 59 0 l 1
 59 442 l 1
 8 442 l 1
 8 501 l 1
 59 501 l 1
 59 540 l 1
 199 540 l 1
 199 501 l 1
EndSplineSet
Validated: 1
EndChar

StartChar: uni04A0
Encoding: 1184 1184 516
Width: 912
Flags: MW
LayerCount: 2
Fore
SplineSet
394 729 m 1
 394 450 l 1
 679 729 l 1
 856 729 l 1
 490 378 l 1
 887 0 l 1
 687 0 l 1
 394 285 l 1
 394 0 l 1
 244 0 l 1
 244 604 l 1
 14 604 l 1
 14 729 l 1
 394 729 l 1
EndSplineSet
Validated: 1
EndChar

StartChar: uni04A1
Encoding: 1185 1185 517
Width: 704
Flags: MW
LayerCount: 2
Fore
SplineSet
331 540 m 1
 331 351 l 1
 493 540 l 1
 641 540 l 1
 427 296 l 1
 680 0 l 1
 498 0 l 1
 331 198 l 1
 331 0 l 1
 191 0 l 1
 191 427 l 1
 20 427 l 1
 20 540 l 1
 331 540 l 1
EndSplineSet
Validated: 1
EndChar

StartChar: uni04A2
Encoding: 1186 1186 518
Width: 753
Flags: MW
LayerCount: 2
Fore
SplineSet
671 108 m 1
 791 108 l 1
 791 -150 l 1
 656 -150 l 1
 656 0 l 1
 521 0 l 1
 521 331 l 1
 232 331 l 1
 232 0 l 1
 82 0 l 1
 82 729 l 1
 232 729 l 1
 232 456 l 1
 520 456 l 1
 520 729 l 1
 671 729 l 1
 671 108 l 1
EndSplineSet
Validated: 1
EndChar

StartChar: uni04A3
Encoding: 1187 1187 519
Width: 608
Flags: MW
LayerCount: 2
Fore
SplineSet
543 101 m 1
 629 101 l 1
 629 -125 l 1
 519 -125 l 1
 519 0 l 1
 403 0 l 1
 403 207 l 1
 200 207 l 1
 200 0 l 1
 60 0 l 1
 60 540 l 1
 200 540 l 1
 200 320 l 1
 403 320 l 1
 403 540 l 1
 543 540 l 1
 543 101 l 1
EndSplineSet
Validated: 1
EndChar

StartChar: uni04A4
Encoding: 1188 1188 520
Width: 985
Flags: MW
LayerCount: 2
Fore
SplineSet
656 0 m 1
 507 0 l 1
 507 331 l 1
 218 331 l 1
 218 0 l 1
 68 0 l 1
 68 729 l 1
 218 729 l 1
 218 456 l 1
 506 456 l 1
 506 729 l 1
 968 729 l 1
 968 604 l 1
 656 604 l 1
 656 0 l 1
EndSplineSet
Validated: 1
EndChar

StartChar: uni04A5
Encoding: 1189 1189 521
Width: 787
Flags: MW
LayerCount: 2
Fore
SplineSet
543 0 m 1
 403 0 l 1
 403 207 l 1
 200 207 l 1
 200 0 l 1
 60 0 l 1
 60 540 l 1
 200 540 l 1
 200 320 l 1
 403 320 l 1
 403 540 l 1
 741 540 l 1
 741 427 l 1
 543 427 l 1
 543 0 l 1
EndSplineSet
Validated: 1
EndChar

StartChar: uni04A6
Encoding: 1190 1190 522
Width: 1092
Flags: MW
LayerCount: 2
Fore
SplineSet
657 0 m 1
 507 0 l 1
 507 604 l 1
 218 604 l 1
 218 0 l 1
 68 0 l 1
 68 729 l 1
 657 729 l 1
 657 504 l 1
 784 504 l 2
 932 504 1032 408 1032 282 c 2
 1032 50 l 2
 1032 -76 932 -172 784 -172 c 2
 747 -172 l 1
 747 -47 l 1
 772 -47 l 2
 830 -47 882 -10 882 56 c 2
 882 276 l 2
 882 342 830 379 772 379 c 2
 657 379 l 1
 657 0 l 1
EndSplineSet
Validated: 1
EndChar

StartChar: uni04A7
Encoding: 1191 1191 523
Width: 925
Flags: MW
LayerCount: 2
Fore
SplineSet
651 -68 m 1
 718 -68 737 -22 737 32 c 2
 737 111 l 2
 737 190 697 211 631 211 c 0
 568 211 543 168 543 125 c 2
 543 0 l 1
 403 0 l 1
 403 427 l 1
 200 427 l 1
 200 0 l 1
 60 0 l 1
 60 540 l 1
 543 540 l 1
 543 273 l 1
 571 318 612 330 681 330 c 0
 763 330 877 302 877 143 c 2
 877 0 l 2
 877 -150 777 -187 701 -187 c 2
 651 -187 l 1
 651 -68 l 1
EndSplineSet
Validated: 1
EndChar

StartChar: uni04AA
Encoding: 1194 1194 524
Width: 722
Flags: MW
LayerCount: 2
Fore
SplineSet
539 482 m 1
 531 519 508 613 383 613 c 0
 265 613 194 517 194 356 c 0
 194 197 262 103 378 103 c 0
 471 103 530 156 539 249 c 1
 685 249 l 1
 677 94 572 -8 412 -21 c 1
 461 -51 490 -93 490 -139 c 0
 490 -197 435 -234 346 -234 c 0
 318 -234 294 -231 267 -224 c 1
 267 -177 l 1
 285 -181 304 -183 324 -183 c 0
 377 -183 400 -167 400 -133 c 0
 400 -89 382 -61 321 -19 c 1
 149 4 44 145 44 358 c 0
 44 594 172 741 378 741 c 0
 548 741 669 646 682 482 c 1
 539 482 l 1
EndSplineSet
Validated: 1
EndChar

StartChar: uni04AB
Encoding: 1195 1195 525
Width: 556
Flags: MW
LayerCount: 2
Fore
SplineSet
288 436 m 0
 191 436 174 334 174 259 c 0
 174 154 217 90 288 90 c 0
 342 90 370 117 388 187 c 1
 522 187 l 1
 510 71 436 -6 326 -20 c 1
 377 -50 406 -92 406 -139 c 0
 406 -197 351 -234 262 -234 c 0
 234 -234 210 -231 183 -224 c 1
 183 -177 l 1
 201 -181 220 -183 240 -183 c 0
 293 -183 316 -167 316 -133 c 0
 316 -89 298 -61 237 -19 c 1
 108 1 34 101 34 259 c 0
 34 443 128 549 289 549 c 0
 424 549 512 470 522 338 c 1
 388 338 l 1
 372 409 345 436 288 436 c 0
EndSplineSet
Validated: 1
EndChar

StartChar: uni04AC
Encoding: 1196 1196 526
Width: 611
Flags: MW
LayerCount: 2
Fore
SplineSet
385 108 m 1
 505 108 l 1
 505 -150 l 1
 370 -150 l 1
 370 0 l 1
 235 0 l 1
 235 604 l 1
 14 604 l 1
 14 729 l 1
 598 729 l 1
 598 604 l 1
 385 604 l 1
 385 108 l 1
EndSplineSet
Validated: 1
EndChar

StartChar: uni04AD
Encoding: 1197 1197 527
Width: 454
Flags: MW
LayerCount: 2
Fore
SplineSet
296 101 m 1
 382 101 l 1
 382 -125 l 1
 272 -125 l 1
 272 0 l 1
 156 0 l 1
 156 427 l 1
 21 427 l 1
 21 540 l 1
 431 540 l 1
 431 427 l 1
 296 427 l 1
 296 101 l 1
EndSplineSet
Validated: 1
EndChar

StartChar: uni04AE
Encoding: 1198 1198 528
Width: 667
Flags: MW
LayerCount: 2
Fore
SplineSet
419 270 m 1
 419 0 l 1
 269 0 l 1
 269 270 l 1
 27 729 l 1
 194 729 l 1
 343 407 l 1
 482 729 l 1
 650 729 l 1
 419 270 l 1
EndSplineSet
Validated: 1
EndChar

StartChar: uni04AF
Encoding: 1199 1199 529
Width: 667
Flags: MW
LayerCount: 2
Fore
SplineSet
419 81 m 1
 419 -189 l 1
 269 -189 l 1
 269 81 l 1
 57 540 l 1
 224 540 l 1
 343 218 l 1
 452 540 l 1
 620 540 l 1
 419 81 l 1
EndSplineSet
Validated: 1
EndChar

StartChar: uni04B0
Encoding: 1200 1200 530
Width: 667
Flags: MW
LayerCount: 2
Fore
SplineSet
269 145 m 1
 69 145 l 1
 69 249 l 1
 269 249 l 1
 269 270 l 1
 27 729 l 1
 194 729 l 1
 343 407 l 1
 482 729 l 1
 650 729 l 1
 419 270 l 1
 419 249 l 1
 619 249 l 1
 619 145 l 1
 419 145 l 1
 419 0 l 1
 269 0 l 1
 269 145 l 1
EndSplineSet
Validated: 1
EndChar

StartChar: uni04B1
Encoding: 1201 1201 531
Width: 667
Flags: MW
LayerCount: 2
Fore
SplineSet
419 -23 m 1
 419 -189 l 1
 269 -189 l 1
 269 -23 l 1
 69 -23 l 1
 69 81 l 1
 269 81 l 1
 57 540 l 1
 224 540 l 1
 343 218 l 1
 452 540 l 1
 620 540 l 1
 419 81 l 1
 619 81 l 1
 619 -23 l 1
 419 -23 l 1
EndSplineSet
Validated: 1
EndChar

StartChar: uni04B2
Encoding: 1202 1202 532
Width: 667
Flags: MW
LayerCount: 2
Fore
SplineSet
585 108 m 1
 653 108 l 1
 653 -150 l 1
 523 -150 l 1
 523 0 l 1
 475 0 l 1
 335 253 l 1
 196 0 l 1
 22 0 l 1
 252 367 l 1
 30 729 l 1
 208 729 l 1
 336 489 l 1
 470 729 l 1
 644 729 l 1
 419 372 l 1
 585 108 l 1
EndSplineSet
Validated: 1
EndChar

StartChar: uni04B3
Encoding: 1203 1203 533
Width: 556
Flags: MW
LayerCount: 2
Fore
SplineSet
468 101 m 1
 535 101 l 1
 535 -125 l 1
 425 -125 l 1
 425 0 l 1
 367 0 l 1
 276 168 l 1
 184 0 l 1
 16 0 l 1
 196 272 l 1
 20 540 l 1
 188 540 l 1
 276 377 l 1
 363 540 l 1
 531 540 l 1
 355 272 l 1
 468 101 l 1
EndSplineSet
Validated: 1
EndChar

StartChar: uni04B4
Encoding: 1204 1204 534
Width: 951
Flags: MW
LayerCount: 2
Fore
SplineSet
205 604 m 1
 14 604 l 1
 14 729 l 1
 538 729 l 1
 538 604 l 1
 355 604 l 1
 355 125 l 1
 644 125 l 1
 644 729 l 1
 794 729 l 1
 794 108 l 1
 904 108 l 1
 904 -150 l 1
 774 -150 l 1
 774 0 l 1
 205 0 l 1
 205 604 l 1
EndSplineSet
Validated: 1
EndChar

StartChar: uni04B5
Encoding: 1205 1205 535
Width: 738
Flags: MW
LayerCount: 2
Fore
SplineSet
136 427 m 1
 21 427 l 1
 21 540 l 1
 391 540 l 1
 391 427 l 1
 276 427 l 1
 276 113 l 1
 479 113 l 1
 479 540 l 1
 619 540 l 1
 619 101 l 1
 715 101 l 1
 715 -125 l 1
 605 -125 l 1
 605 0 l 1
 136 0 l 1
 136 427 l 1
EndSplineSet
Validated: 1
EndChar

StartChar: uni04B6
Encoding: 1206 1206 536
Width: 781
Flags: MW
LayerCount: 2
Fore
SplineSet
604 0 m 1
 474 0 l 1
 474 225 l 1
 316 225 l 2
 168 225 68 321 68 447 c 2
 68 729 l 1
 218 729 l 1
 218 453 l 2
 218 387 270 350 328 350 c 2
 473 350 l 1
 473 729 l 1
 624 729 l 1
 624 108 l 1
 734 108 l 1
 734 -150 l 1
 604 -150 l 1
 604 0 l 1
EndSplineSet
Validated: 1
EndChar

StartChar: uni04B7
Encoding: 1207 1207 537
Width: 627
Flags: MW
LayerCount: 2
Fore
SplineSet
494 0 m 1
 378 0 l 1
 378 163 l 1
 280 163 l 2
 170 163 60 212 60 345 c 2
 60 540 l 1
 200 540 l 1
 200 346 l 2
 200 298 232 276 278 276 c 2
 378 276 l 1
 378 540 l 1
 518 540 l 1
 518 101 l 1
 604 101 l 1
 604 -125 l 1
 494 -125 l 1
 494 0 l 1
EndSplineSet
Validated: 1
EndChar

StartChar: uni04B8
Encoding: 1208 1208 538
Width: 685
Flags: MW
LayerCount: 2
Fore
SplineSet
308 352 m 1
 308 439 l 1
 387 439 l 1
 387 350 l 1
 473 350 l 1
 473 729 l 1
 624 729 l 1
 624 0 l 1
 474 0 l 1
 474 225 l 1
 387 225 l 1
 387 140 l 1
 308 140 l 1
 308 225 l 1
 168 225 68 323 68 447 c 2
 68 729 l 1
 218 729 l 1
 218 453 l 2
 218 395 259 359 308 352 c 1
EndSplineSet
Validated: 1
EndChar

StartChar: uni04B9
Encoding: 1209 1209 539
Width: 578
Flags: MW
LayerCount: 2
Fore
SplineSet
248 164 m 1
 150 173 60 225 60 345 c 2
 60 540 l 1
 200 540 l 1
 200 346 l 2
 200 309 219 288 248 280 c 1
 248 379 l 1
 327 379 l 1
 327 276 l 1
 378 276 l 1
 378 540 l 1
 518 540 l 1
 518 0 l 1
 378 0 l 1
 378 163 l 1
 327 163 l 1
 327 80 l 1
 248 80 l 1
 248 164 l 1
EndSplineSet
Validated: 1
EndChar

StartChar: uni04BA
Encoding: 1210 1210 540
Width: 685
Flags: MW
LayerCount: 2
Fore
SplineSet
218 504 m 1
 376 504 l 2
 524 504 624 408 624 282 c 2
 624 0 l 1
 474 0 l 1
 474 276 l 2
 474 342 422 379 364 379 c 2
 219 379 l 1
 219 0 l 1
 68 0 l 1
 68 729 l 1
 218 729 l 1
 218 504 l 1
EndSplineSet
Validated: 1
EndChar

StartChar: uni04BB
Encoding: 1211 1211 541
Width: 578
Flags: MW
LayerCount: 2
Fore
SplineSet
518 0 m 1
 378 0 l 1
 378 194 l 2
 378 242 346 264 300 264 c 2
 200 264 l 1
 200 0 l 1
 60 0 l 1
 60 540 l 1
 200 540 l 1
 200 377 l 1
 298 377 l 2
 408 377 518 328 518 195 c 2
 518 0 l 1
EndSplineSet
Validated: 1
EndChar

StartChar: uni04BC
Encoding: 1212 1212 542
Width: 957
Flags: MW
LayerCount: 2
Fore
SplineSet
442 469 m 1
 774 469 l 1
 765 562 706 615 613 615 c 0
 526 615 466 562 442 469 c 1
917 236 m 1
 904 72 778 -23 613 -23 c 0
 407 -23 279 124 279 360 c 2
 279 363 l 1
 87 364 25 464 25 571 c 0
 25 681 81 745 178 745 c 0
 259 745 311 697 317 618 c 1
 237 618 l 1
 227 661 211 677 177 677 c 0
 119 677 109 615 109 571 c 0
 109 508 134 469 178 469 c 2
 289 469 l 1
 323 639 440 741 609 741 c 0
 790 741 920 620 920 363 c 1
 429 363 l 1
 429 197 499 105 618 105 c 0
 743 105 765 199 774 236 c 1
 917 236 l 1
EndSplineSet
Validated: 1
EndChar

StartChar: uni04BD
Encoding: 1213 1213 543
Width: 716
Flags: MW
LayerCount: 2
Fore
SplineSet
347 356 m 1
 543 356 l 1
 527 414 500 436 448 436 c 0
 369 436 353 375 347 356 c 1
122 494 m 0
 98 494 76 478 76 423 c 0
 76 381 94 356 122 356 c 2
 204 356 l 1
 232 480 319 549 449 549 c 0
 584 549 672 470 682 338 c 2
 682 260 l 1
 334 260 l 1
 334 151 376 90 448 90 c 0
 502 90 530 117 548 187 c 1
 682 187 l 1
 669 58 578 -23 447 -23 c 0
 287 -23 194 81 194 259 c 2
 194 260 l 1
 68 261 20 353 20 423 c 0
 20 497 58 539 122 539 c 0
 176 539 212 508 216 455 c 1
 162 455 l 1
 156 483 145 494 122 494 c 0
EndSplineSet
Validated: 1
EndChar

StartChar: uni04BE
Encoding: 1214 1214 544
Width: 957
Flags: MW
LayerCount: 2
Fore
SplineSet
442 469 m 1
 774 469 l 1
 765 562 706 615 613 615 c 0
 526 615 466 562 442 469 c 1
917 236 m 1
 899 15 705 -16 657 -21 c 1
 707 -50 736 -92 736 -139 c 0
 736 -197 681 -234 592 -234 c 0
 564 -234 540 -231 513 -224 c 1
 513 -177 l 1
 531 -181 550 -183 570 -183 c 0
 623 -183 646 -167 646 -133 c 0
 646 -89 628 -61 569 -21 c 1
 389 -1 279 141 279 360 c 2
 279 363 l 1
 87 364 25 464 25 571 c 0
 25 681 81 745 178 745 c 0
 259 745 311 697 317 618 c 1
 237 618 l 1
 227 661 211 677 177 677 c 0
 119 677 109 615 109 571 c 0
 109 508 134 469 178 469 c 2
 289 469 l 1
 323 639 440 741 609 741 c 0
 790 741 920 620 920 363 c 1
 429 363 l 1
 429 197 499 105 618 105 c 0
 743 105 765 199 774 236 c 1
 917 236 l 1
EndSplineSet
Validated: 1
EndChar

StartChar: uni04BF
Encoding: 1215 1215 545
Width: 716
Flags: MW
LayerCount: 2
Fore
SplineSet
347 356 m 1
 543 356 l 1
 527 414 500 436 448 436 c 0
 369 436 353 375 347 356 c 1
122 494 m 0
 98 494 76 478 76 423 c 0
 76 381 94 356 122 356 c 2
 204 356 l 1
 232 480 319 549 449 549 c 0
 584 549 672 470 682 338 c 2
 682 260 l 1
 334 260 l 1
 334 151 376 90 448 90 c 0
 502 90 530 117 548 187 c 1
 682 187 l 1
 670 72 596 -5 487 -20 c 1
 537 -50 567 -92 567 -139 c 0
 567 -197 512 -234 423 -234 c 0
 395 -234 371 -231 344 -224 c 1
 344 -177 l 1
 362 -181 381 -183 401 -183 c 0
 454 -183 477 -167 477 -133 c 0
 477 -89 459 -61 398 -19 c 1
 268 0 194 100 194 259 c 2
 194 260 l 1
 68 261 20 353 20 423 c 0
 20 497 58 539 122 539 c 0
 176 539 212 508 216 455 c 1
 162 455 l 1
 156 483 145 494 122 494 c 0
EndSplineSet
Validated: 1
EndChar

StartChar: uni04C0
Encoding: 1216 1216 546
Width: 278
Flags: MW
LayerCount: 2
Fore
SplineSet
213 729 m 1
 213 0 l 1
 63 0 l 1
 63 729 l 1
 213 729 l 1
EndSplineSet
Validated: 1
EndChar

StartChar: uni04C1
Encoding: 1217 1217 547
Width: 1093
Flags: MW
LayerCount: 2
Fore
SplineSet
682 944 m 1
 682 933 l 2
 682 858 625 801 550 801 c 0
 475 801 418 858 418 934 c 2
 418 944 l 1
 474 944 l 1
 480 900 505 878 551 878 c 0
 595 878 618 898 626 944 c 1
 682 944 l 1
475 285 m 1
 206 0 l 1
 22 0 l 1
 379 378 l 1
 66 729 l 1
 230 729 l 1
 475 450 l 1
 475 729 l 1
 625 729 l 1
 625 450 l 1
 870 729 l 1
 1034 729 l 1
 721 378 l 1
 1078 0 l 1
 894 0 l 1
 625 285 l 1
 625 0 l 1
 475 0 l 1
 475 285 l 1
EndSplineSet
Validated: 1
EndChar

StartChar: uni04C2
Encoding: 1218 1218 548
Width: 809
Flags: MW
LayerCount: 2
Fore
SplineSet
534 752 m 1
 534 741 l 2
 534 666 477 609 402 609 c 0
 327 609 270 666 270 742 c 2
 270 752 l 1
 326 752 l 1
 332 708 357 686 403 686 c 0
 447 686 470 706 478 752 c 1
 534 752 l 1
332 198 m 1
 195 0 l 1
 16 0 l 1
 229 296 l 1
 52 540 l 1
 200 540 l 1
 332 351 l 1
 332 540 l 1
 472 540 l 1
 472 351 l 1
 604 540 l 1
 752 540 l 1
 575 296 l 1
 788 0 l 1
 609 0 l 1
 472 198 l 1
 472 0 l 1
 332 0 l 1
 332 198 l 1
EndSplineSet
Validated: 1
EndChar

StartChar: uni04C3
Encoding: 1219 1219 549
Width: 750
Flags: MW
LayerCount: 2
Fore
SplineSet
384 378 m 2
 532 378 632 282 632 156 c 2
 632 50 l 2
 632 -76 532 -172 384 -172 c 2
 347 -172 l 1
 347 -47 l 1
 372 -47 l 2
 430 -47 482 -10 482 56 c 2
 482 150 l 2
 482 216 430 253 372 253 c 2
 232 253 l 1
 232 0 l 1
 82 0 l 1
 82 729 l 1
 232 729 l 1
 232 450 l 1
 517 729 l 1
 694 729 l 1
 328 378 l 1
 384 378 l 2
EndSplineSet
Validated: 1
EndChar

StartChar: uni04C4
Encoding: 1220 1220 550
Width: 573
Flags: MW
LayerCount: 2
Fore
SplineSet
315 297 m 2
 422 297 491 232 491 110 c 2
 491 -1 l 2
 491 -123 422 -188 315 -188 c 2
 265 -188 l 1
 265 -69 l 1
 319 -69 351 -40 351 31 c 2
 351 78 l 2
 351 149 319 178 265 178 c 2
 200 178 l 1
 200 0 l 1
 60 0 l 1
 60 540 l 1
 200 540 l 1
 200 351 l 1
 362 540 l 1
 510 540 l 1
 296 296 l 1
 315 297 l 2
EndSplineSet
Validated: 1
EndChar

StartChar: uni04C7
Encoding: 1223 1223 551
Width: 722
Flags: MW
LayerCount: 2
Fore
SplineSet
507 56 m 2
 507 331 l 1
 218 331 l 1
 218 0 l 1
 68 0 l 1
 68 729 l 1
 218 729 l 1
 218 456 l 1
 506 456 l 1
 506 729 l 1
 657 729 l 1
 657 50 l 2
 657 -76 557 -172 409 -172 c 2
 372 -172 l 1
 372 -47 l 1
 397 -47 l 2
 455 -47 507 -10 507 56 c 2
EndSplineSet
Validated: 1
EndChar

StartChar: uni04C8
Encoding: 1224 1224 552
Width: 608
Flags: MW
LayerCount: 2
Fore
SplineSet
403 32 m 2
 403 207 l 1
 200 207 l 1
 200 0 l 1
 60 0 l 1
 60 540 l 1
 200 540 l 1
 200 320 l 1
 403 320 l 1
 403 540 l 1
 543 540 l 1
 543 0 l 2
 543 -122 474 -187 367 -187 c 2
 317 -187 l 1
 317 -68 l 1
 371 -68 403 -39 403 32 c 2
EndSplineSet
Validated: 1
EndChar

StartChar: uni04CB
Encoding: 1227 1227 553
Width: 685
Flags: MW
LayerCount: 2
Fore
SplineSet
494 0 m 1
 494 -150 l 1
 364 -150 l 1
 364 108 l 1
 474 108 l 1
 474 225 l 1
 316 225 l 2
 168 225 68 321 68 447 c 2
 68 729 l 1
 218 729 l 1
 218 453 l 2
 218 387 270 350 328 350 c 2
 473 350 l 1
 473 729 l 1
 624 729 l 1
 624 0 l 1
 494 0 l 1
EndSplineSet
Validated: 1
EndChar

StartChar: uni04CC
Encoding: 1228 1228 554
Width: 578
Flags: MW
LayerCount: 2
Fore
SplineSet
402 0 m 1
 402 -125 l 1
 292 -125 l 1
 292 101 l 1
 378 101 l 1
 378 163 l 1
 280 163 l 2
 170 163 60 212 60 345 c 2
 60 540 l 1
 200 540 l 1
 200 346 l 2
 200 298 232 276 278 276 c 2
 378 276 l 1
 378 540 l 1
 518 540 l 1
 518 0 l 1
 402 0 l 1
EndSplineSet
Validated: 1
EndChar

StartChar: uni04D4
Encoding: 1236 1236 559
Width: 1000
Flags: MW
LayerCount: 2
Fore
SplineSet
430 152 m 1
 207 152 l 1
 154 0 l 1
 1 0 l 1
 264 729 l 1
 946 729 l 1
 946 604 l 1
 580 604 l 1
 580 439 l 1
 919 439 l 1
 919 314 l 1
 580 314 l 1
 580 125 l 1
 966 125 l 1
 966 0 l 1
 430 0 l 1
 430 152 l 1
430 277 m 1
 430 604 l 1
 363 604 l 1
 249 277 l 1
 430 277 l 1
EndSplineSet
Validated: 1
EndChar

StartChar: uni04D5
Encoding: 1237 1237 560
Width: 889
Flags: MW
LayerCount: 2
Fore
SplineSet
494 226 m 1
 494 105 560 84 608 84 c 0
 656 84 700 113 712 152 c 1
 850 152 l 1
 819 45 721 -23 600 -23 c 0
 512 -23 442 13 400 81 c 1
 338 8 276 -24 195 -24 c 0
 92 -24 27 40 27 141 c 0
 27 239 78 294 186 312 c 2
 242 322 l 2
 295 331 354 334 354 383 c 0
 354 419 326 436 269 436 c 0
 206 436 181 416 174 362 c 1
 43 362 l 1
 45 486 122 549 271 549 c 0
 349 549 408 532 446 499 c 1
 487 532 540 549 601 549 c 0
 713 549 857 489 857 250 c 0
 857 245 857 238 856 226 c 1
 494 226 l 1
354 216 m 2
 354 254 l 1
 337 244 325 240 295 235 c 2
 247 228 l 2
 194 221 167 196 167 155 c 0
 167 114 196 89 243 89 c 0
 315 89 354 134 354 216 c 2
495 319 m 1
 711 319 l 1
 704 400 667 442 602 442 c 0
 538 442 501 400 495 319 c 1
EndSplineSet
Validated: 1
EndChar

StartChar: uni04D8
Encoding: 1240 1240 563
Width: 722
Flags: MW
LayerCount: 2
Fore
SplineSet
522 249 m 1
 190 249 l 1
 199 156 258 103 351 103 c 0
 438 103 498 156 522 249 c 1
47 482 m 1
 60 646 186 741 351 741 c 0
 557 741 685 594 685 358 c 0
 685 124 558 -23 355 -23 c 0
 174 -23 44 98 44 355 c 1
 535 355 l 1
 535 356 l 0
 535 517 464 613 346 613 c 0
 221 613 199 519 190 482 c 1
 47 482 l 1
EndSplineSet
Validated: 1
EndChar

StartChar: afii10846
Encoding: 1241 1241 564
Width: 556
Flags: MW
LayerCount: 2
Fore
SplineSet
382 266 m 1
 382 267 l 0
 382 372 339 436 268 436 c 0
 214 436 186 409 168 339 c 1
 34 339 l 1
 47 468 138 549 269 549 c 0
 429 549 522 445 522 267 c 0
 522 83 428 -23 267 -23 c 0
 132 -23 44 56 34 188 c 1
 34 266 l 1
 382 266 l 1
369 170 m 1
 173 170 l 1
 189 112 216 90 268 90 c 0
 348 90 363 152 369 170 c 1
EndSplineSet
Validated: 1
EndChar

StartChar: uni04E8
Encoding: 1256 1256 577
Width: 778
Flags: MW
LayerCount: 2
Fore
SplineSet
40 359 m 0
 40 581 178 741 390 741 c 0
 601 741 742 586 742 354 c 0
 742 145 610 -23 391 -23 c 0
 177 -23 40 137 40 359 c 0
590 400 m 1
 576 532 502 613 391 613 c 0
 281 613 205 530 192 400 c 1
 590 400 l 1
591 321 m 1
 192 321 l 1
 204 189 280 105 391 105 c 0
 502 105 579 191 591 321 c 1
EndSplineSet
Validated: 1
EndChar

StartChar: uni04E9
Encoding: 1257 1257 578
Width: 611
Flags: MW
LayerCount: 2
Fore
SplineSet
301 549 m 0
 470 549 569 442 569 259 c 0
 569 86 466 -23 302 -23 c 0
 136 -23 35 85 35 263 c 0
 35 440 136 549 301 549 c 0
426 303 m 1
 415 385 368 436 302 436 c 0
 236 436 189 384 178 303 c 1
 426 303 l 1
427 224 m 1
 178 224 l 1
 189 143 236 90 302 90 c 0
 367 90 415 143 427 224 c 1
EndSplineSet
Validated: 1
EndChar

StartChar: afii57799
Encoding: 1456 1456 593
Width: 82
Flags: MW
LayerCount: 2
Fore
SplineSet
0 -172 m 1
 82 -172 l 1
 82 -254 l 1
 0 -254 l 1
 0 -172 l 1
0 -60 m 1
 82 -60 l 1
 82 -142 l 1
 0 -142 l 1
 0 -60 l 1
EndSplineSet
Validated: 1
EndChar

StartChar: afii57801
Encoding: 1457 1457 594
Width: 347
Flags: MW
LayerCount: 2
Fore
SplineSet
65 -172 m 1
 147 -172 l 1
 147 -254 l 1
 65 -254 l 1
 65 -172 l 1
0 -60 m 1
 82 -60 l 1
 82 -142 l 1
 0 -142 l 1
 0 -60 l 1
129 -60 m 1
 212 -60 l 1
 212 -142 l 1
 129 -142 l 1
 129 -60 l 1
265 -60 m 1
 347 -60 l 1
 347 -142 l 1
 265 -142 l 1
 265 -60 l 1
265 -172 m 1
 347 -172 l 1
 347 -254 l 1
 265 -254 l 1
 265 -172 l 1
EndSplineSet
Validated: 1
EndChar

StartChar: afii57800
Encoding: 1458 1458 595
Width: 341
Flags: MW
LayerCount: 2
Fore
SplineSet
0 -60 m 1
 200 -60 l 1
 200 -142 l 1
 0 -142 l 1
 0 -60 l 1
259 -60 m 1
 341 -60 l 1
 341 -142 l 1
 259 -142 l 1
 259 -60 l 1
259 -172 m 1
 341 -172 l 1
 341 -254 l 1
 259 -254 l 1
 259 -172 l 1
EndSplineSet
Validated: 1
EndChar

StartChar: afii57802
Encoding: 1459 1459 596
Width: 341
Flags: MW
LayerCount: 2
Fore
SplineSet
259 -172 m 1
 341 -172 l 1
 341 -254 l 1
 259 -254 l 1
 259 -172 l 1
259 -60 m 1
 341 -60 l 1
 341 -142 l 1
 259 -142 l 1
 259 -60 l 1
141 -142 m 1
 141 -248 l 1
 59 -248 l 1
 59 -142 l 1
 0 -142 l 1
 0 -60 l 1
 200 -60 l 1
 200 -142 l 1
 141 -142 l 1
EndSplineSet
Validated: 1
EndChar

StartChar: afii57793
Encoding: 1460 1460 597
Width: 82
Flags: MW
LayerCount: 2
Fore
SplineSet
0 -60 m 1
 82 -60 l 1
 82 -142 l 1
 0 -142 l 1
 0 -60 l 1
EndSplineSet
Validated: 1
EndChar

StartChar: afii57794
Encoding: 1461 1461 598
Width: 211
Flags: MW
LayerCount: 2
Fore
SplineSet
0 -60 m 1
 82 -60 l 1
 82 -142 l 1
 0 -142 l 1
 0 -60 l 1
129 -60 m 1
 212 -60 l 1
 212 -142 l 1
 129 -142 l 1
 129 -60 l 1
EndSplineSet
Validated: 1
EndChar

StartChar: afii57795
Encoding: 1462 1462 599
Width: 211
Flags: MW
LayerCount: 2
Fore
SplineSet
65 -172 m 1
 147 -172 l 1
 147 -254 l 1
 65 -254 l 1
 65 -172 l 1
0 -60 m 1
 82 -60 l 1
 82 -142 l 1
 0 -142 l 1
 0 -60 l 1
129 -60 m 1
 212 -60 l 1
 212 -142 l 1
 129 -142 l 1
 129 -60 l 1
EndSplineSet
Validated: 1
EndChar

StartChar: afii57798
Encoding: 1463 1463 600
Width: 200
Flags: MW
LayerCount: 2
Fore
SplineSet
0 -60 m 1
 200 -60 l 1
 200 -142 l 1
 0 -142 l 1
 0 -60 l 1
EndSplineSet
Validated: 1
EndChar

StartChar: afii57797
Encoding: 1464 1464 601
Width: 200
Flags: MW
LayerCount: 2
Fore
SplineSet
141 -142 m 1
 141 -248 l 1
 59 -248 l 1
 59 -142 l 1
 0 -142 l 1
 0 -60 l 1
 200 -60 l 1
 200 -142 l 1
 141 -142 l 1
EndSplineSet
Validated: 1
EndChar

StartChar: afii57806
Encoding: 1465 1465 602
Width: 82
Flags: MW
LayerCount: 2
Fore
SplineSet
0 742 m 1
 82 742 l 1
 82 660 l 1
 0 660 l 1
 0 742 l 1
EndSplineSet
Validated: 1
EndChar

StartChar: afii57796
Encoding: 1467 1467 603
Width: 341
Flags: MW
LayerCount: 2
Fore
SplineSet
259 -172 m 1
 341 -172 l 1
 341 -254 l 1
 259 -254 l 1
 259 -172 l 1
129 -113 m 1
 212 -113 l 1
 212 -195 l 1
 129 -195 l 1
 129 -113 l 1
0 -60 m 1
 82 -60 l 1
 82 -142 l 1
 0 -142 l 1
 0 -60 l 1
EndSplineSet
Validated: 1
EndChar

StartChar: afii57807
Encoding: 1468 1468 604
Width: 82
Flags: MW
LayerCount: 2
Fore
SplineSet
0 339 m 1
 82 339 l 1
 82 257 l 1
 0 257 l 1
 0 339 l 1
EndSplineSet
Validated: 1
EndChar

StartChar: afii57839
Encoding: 1469 1469 605
Width: 82
Flags: MW
LayerCount: 2
Fore
SplineSet
82 -60 m 1
 82 -248 l 1
 0 -248 l 1
 0 -60 l 1
 82 -60 l 1
EndSplineSet
Validated: 1
EndChar

StartChar: afii57645
Encoding: 1470 1470 606
Width: 516
Flags: MW
LayerCount: 2
Fore
SplineSet
63 485 m 1
 63 600 l 1
 444 600 l 1
 444 485 l 1
 63 485 l 1
EndSplineSet
Validated: 1
EndChar

StartChar: afii57841
Encoding: 1471 1471 607
Width: 200
Flags: MW
LayerCount: 2
Fore
SplineSet
0 742 m 1
 200 742 l 1
 200 660 l 1
 0 660 l 1
 0 742 l 1
EndSplineSet
Validated: 1
EndChar

StartChar: afii57842
Encoding: 1472 1472 608
Width: 297
Flags: MW
LayerCount: 2
Fore
SplineSet
79 -100 m 1
 79 700 l 1
 218 700 l 1
 218 -100 l 1
 79 -100 l 1
EndSplineSet
Validated: 1
EndChar

StartChar: afii57804
Encoding: 1473 1473 609
Width: 1038
Flags: MW
LayerCount: 2
Fore
SplineSet
650 721 m 1
 732 721 l 1
 732 639 l 1
 650 639 l 1
 650 721 l 1
EndSplineSet
Validated: 1
EndChar

StartChar: afii57803
Encoding: 1474 1474 610
Width: 1038
Flags: MW
LayerCount: 2
Fore
SplineSet
101 721 m 1
 183 721 l 1
 183 639 l 1
 101 639 l 1
 101 721 l 1
EndSplineSet
Validated: 1
EndChar

StartChar: uni05C4
Encoding: 1476 1476 612
Width: 82
Flags: MW
LayerCount: 2
Fore
SplineSet
0 742 m 1
 82 742 l 1
 82 660 l 1
 0 660 l 1
 0 742 l 1
EndSplineSet
Validated: 1
EndChar

StartChar: afii57664
Encoding: 1488 1488 613
Width: 714
Flags: MW
LayerCount: 2
Fore
SplineSet
621 433 m 2
 596 297 538 240 498 212 c 1
 650 0 l 1
 487 0 l 1
 286 285 l 1
 247 237 241 207 228 148 c 1
 228 0 l 1
 89 0 l 1
 89 158 l 2
 105 245 132 331 212 388 c 1
 61 600 l 1
 222 600 l 1
 425 315 l 1
 463 362 469 389 482 444 c 1
 482 600 l 1
 621 600 l 1
 621 433 l 2
EndSplineSet
Validated: 1
EndChar

StartChar: afii57665
Encoding: 1489 1489 614
Width: 651
Flags: MW
LayerCount: 2
Fore
SplineSet
259 600 m 2
 324 593 487 579 519 374 c 2
 519 115 l 1
 610 115 l 1
 610 0 l 1
 77 0 l 1
 77 115 l 1
 380 115 l 1
 380 365 l 2
 355 476 316 472 247 485 c 2
 77 485 l 1
 77 600 l 1
 259 600 l 2
EndSplineSet
Validated: 1
EndChar

StartChar: afii57666
Encoding: 1490 1490 615
Width: 557
Flags: MW
LayerCount: 2
Fore
SplineSet
347 138 m 1
 220 0 l 1
 47 0 l 1
 224 194 l 1
 341 194 l 1
 322 361 l 2
 298 456 294 465 188 485 c 2
 115 485 l 1
 115 600 l 1
 200 600 l 2
 437 573 446 434 460 378 c 2
 503 0 l 1
 363 0 l 1
 347 138 l 1
EndSplineSet
Validated: 1
EndChar

StartChar: afii57667
Encoding: 1491 1491 616
Width: 638
Flags: MW
LayerCount: 2
Fore
SplineSet
344 485 m 1
 63 485 l 1
 63 600 l 1
 566 600 l 1
 566 485 l 1
 483 485 l 1
 483 0 l 1
 344 0 l 1
 344 485 l 1
EndSplineSet
Validated: 1
EndChar

StartChar: afii57668
Encoding: 1492 1492 617
Width: 682
Flags: MW
LayerCount: 2
Fore
SplineSet
473 365 m 2
 448 476 409 472 340 485 c 2
 79 485 l 1
 79 600 l 1
 352 600 l 2
 419 593 580 579 612 374 c 1
 612 0 l 1
 473 0 l 1
 473 365 l 2
79 0 m 1
 79 349 l 1
 218 349 l 1
 218 0 l 1
 79 0 l 1
EndSplineSet
Validated: 1
EndChar

StartChar: afii57669
Encoding: 1493 1493 618
Width: 297
Flags: MW
LayerCount: 2
Fore
SplineSet
79 0 m 1
 79 600 l 1
 218 600 l 1
 218 0 l 1
 79 0 l 1
EndSplineSet
Validated: 1
EndChar

StartChar: afii57670
Encoding: 1494 1494 619
Width: 443
Flags: MW
LayerCount: 2
Fore
SplineSet
149 485 m 1
 63 485 l 1
 63 600 l 1
 371 600 l 1
 371 485 l 1
 288 485 l 1
 288 0 l 1
 149 0 l 1
 149 485 l 1
EndSplineSet
Validated: 1
EndChar

StartChar: afii57671
Encoding: 1495 1495 620
Width: 682
Flags: MW
LayerCount: 2
Fore
SplineSet
473 365 m 2
 448 476 409 472 340 485 c 2
 218 485 l 1
 218 0 l 1
 79 0 l 1
 79 600 l 1
 352 600 l 2
 408 597 579 582 612 374 c 2
 612 0 l 1
 473 0 l 1
 473 365 l 2
EndSplineSet
Validated: 1
EndChar

StartChar: afii57672
Encoding: 1496 1496 621
Width: 670
Flags: MW
LayerCount: 2
Fore
SplineSet
340 485 m 2
 313 485 294 473 294 473 c 1
 294 595 l 1
 307 597 311 600 345 600 c 0
 390 600 512 577 560 502 c 0
 592 456 609 426 609 374 c 0
 609 226 l 2
 597 148 563 75 499 44 c 0
 458 21 407 0 342 0 c 0
 296 0 174 23 125 98 c 0
 93 144 76 174 76 226 c 0
 76 600 l 1
 215 600 l 1
 215 235 l 2
 225 194 232 160 262 141 c 0
 306 118 307 116 342 115 c 0
 455 118 464 206 470 235 c 2
 470 365 l 2
 462 400 456 440 422 459 c 0
 381 480 379 485 340 485 c 2
EndSplineSet
Validated: 1
EndChar

StartChar: afii57673
Encoding: 1497 1497 622
Width: 284
Flags: MW
LayerCount: 2
Fore
SplineSet
212 333 m 1
 73 276 l 1
 73 600 l 1
 212 600 l 1
 212 333 l 1
EndSplineSet
Validated: 1
EndChar

StartChar: afii57674
Encoding: 1498 1498 623
Width: 590
Flags: MW
LayerCount: 2
Fore
SplineSet
381 365 m 2
 356 474 319 472 248 485 c 2
 62 485 l 1
 62 600 l 1
 259 600 l 2
 391 585 448 538 471 502 c 0
 503 456 520 426 520 374 c 0
 520 -200 l 1
 381 -200 l 1
 381 365 l 2
EndSplineSet
Validated: 1
EndChar

StartChar: afii57675
Encoding: 1499 1499 624
Width: 595
Flags: MW
LayerCount: 2
Fore
SplineSet
395 365 m 2
 370 474 333 472 262 485 c 2
 76 485 l 1
 76 600 l 1
 273 600 l 2
 405 585 461 538 485 502 c 0
 517 456 534 426 534 374 c 0
 534 226 l 2
 521 148 488 75 424 44 c 0
 371 16 335 7 273 0 c 2
 76 0 l 1
 76 115 l 1
 262 115 l 2
 335 129 370 126 395 235 c 2
 395 365 l 2
EndSplineSet
Validated: 1
EndChar

StartChar: afii57676
Encoding: 1500 1500 625
Width: 667
Flags: MW
LayerCount: 2
Fore
SplineSet
410 101 m 2
 410 0 l 1
 271 0 l 1
 271 107 l 1
 277 154 275 188 307 233 c 0
 394 352 432 263 456 419 c 2
 456 485 l 1
 62 485 l 1
 62 750 l 1
 201 750 l 1
 201 600 l 1
 595 600 l 1
 595 412 l 2
 576 156 410 273 410 101 c 2
EndSplineSet
Validated: 1
EndChar

StartChar: afii57677
Encoding: 1501 1501 626
Width: 683
Flags: MW
LayerCount: 2
Fore
SplineSet
346 600 m 2
 565 600 613 419 613 369 c 2
 613 0 l 1
 80 0 l 1
 80 600 l 1
 346 600 l 2
474 369 m 2
 469 467 374 484 346 485 c 2
 219 485 l 1
 219 115 l 1
 474 115 l 1
 474 369 l 2
EndSplineSet
Validated: 1
EndChar

StartChar: afii57678
Encoding: 1502 1502 627
Width: 704
Flags: MW
LayerCount: 2
Fore
SplineSet
494 369 m 2
 494 434 442 485 367 485 c 2
 298 485 l 1
 226 0 l 1
 86 0 l 1
 158 485 l 1
 67 485 l 1
 67 600 l 1
 367 600 l 2
 514 600 633 504 633 369 c 2
 633 0 l 1
 363 0 l 1
 363 115 l 1
 494 115 l 1
 494 369 l 2
EndSplineSet
Validated: 1
EndChar

StartChar: afii57679
Encoding: 1503 1503 628
Width: 297
Flags: MW
LayerCount: 2
Fore
SplineSet
79 -200 m 1
 79 600 l 1
 218 600 l 1
 218 -200 l 1
 79 -200 l 1
EndSplineSet
Validated: 1
EndChar

StartChar: afii57680
Encoding: 1504 1504 629
Width: 429
Flags: MW
LayerCount: 2
Fore
SplineSet
220 365 m 2
 210 410 195 485 84 485 c 1
 84 600 l 1
 148 600 348 567 359 374 c 2
 359 0 l 1
 73 0 l 1
 73 115 l 1
 220 115 l 1
 220 365 l 2
EndSplineSet
Validated: 1
EndChar

StartChar: afii57681
Encoding: 1505 1505 630
Width: 670
Flags: MW
LayerCount: 2
Fore
SplineSet
342 0 m 2
 340 0 339 0 337 0 c 0
 287 0 87 34 76 226 c 2
 76 600 l 1
 348 600 l 2
 402 597 576 582 609 374 c 2
 609 226 l 2
 596 148 563 75 499 44 c 0
 458 22 409 0 346 0 c 0
 345 0 343 0 342 0 c 2
470 365 m 2
 445 474 407 472 337 485 c 2
 215 485 l 1
 215 235 l 2
 224 194 231 160 262 141 c 0
 306 118 307 116 342 115 c 0
 454 118 463 206 470 235 c 2
 470 365 l 2
EndSplineSet
Validated: 1
EndChar

StartChar: afii57682
Encoding: 1506 1506 631
Width: 653
Flags: MW
LayerCount: 2
Fore
SplineSet
346 136 m 1
 424 167 424 189 440 262 c 2
 440 600 l 1
 579 600 l 1
 579 252 l 1
 569 197 565 155 516 101 c 0
 472 53 431 34 377 21 c 0
 60 -55 l 1
 60 65 l 1
 212 101 l 1
 99 600 l 1
 241 600 l 1
 346 136 l 1
EndSplineSet
Validated: 1
EndChar

StartChar: afii57683
Encoding: 1507 1507 632
Width: 661
Flags: MW
LayerCount: 2
Fore
SplineSet
211 407 m 2
 211 358 221 356 266 356 c 2
 319 356 l 1
 319 241 l 1
 254 241 l 2
 191 241 72 244.126 72 398 c 2
 72 601 l 1
 328 601 l 2
 371 600 493 593 563 475 c 0
 589 433 590 404 590 373 c 0
 590 -200 l 1
 451 -200 l 1
 451 367 l 2
 447 396 453 438 377 476 c 0
 358 486 258 486 211 486 c 1
 211 407 l 2
EndSplineSet
Validated: 1
EndChar

StartChar: afii57684
Encoding: 1508 1508 633
Width: 660
Flags: MW
LayerCount: 2
Fore
SplineSet
218 406 m 2
 218 358 229 355 273 355 c 2
 326 355 l 1
 326 240 l 1
 261 240 l 2
 216 240 79 245 79 397 c 2
 79 600 l 1
 335 600 l 2
 377 599 499 595 570 474 c 0
 596 432 597 403 597 372 c 0
 597 228 l 1
 593 197 596 168 570 126 c 0
 499 6 383 4 335 0 c 1
 79 0 l 1
 79 115 l 1
 327 115 l 2
 368 120 402 114 446 180 c 0
 456 194 458 201 458 234 c 0
 458 366 l 2
 455 395 460 437 384 475 c 0
 365 485 265 485 218 485 c 1
 218 406 l 2
EndSplineSet
Validated: 1
EndChar

StartChar: afii57685
Encoding: 1509 1509 634
Width: 616
Flags: MW
LayerCount: 2
Fore
SplineSet
544 433 m 2
 523 316 450 262 367 249 c 1
 367 -200 l 1
 228 -200 l 1
 228 286 l 1
 27 600 l 1
 185 600 l 1
 337 362 l 1
 385 366 399 408 405 444 c 2
 405 600 l 1
 544 600 l 1
 544 433 l 2
EndSplineSet
Validated: 1
EndChar

StartChar: afii57686
Encoding: 1510 1510 635
Width: 671
Flags: MW
LayerCount: 2
Fore
SplineSet
579 433 m 2
 572 394 542 290 440 258 c 1
 606 0 l 1
 86 0 l 1
 86 115 l 1
 374 115 l 1
 61 600 l 1
 219 600 l 1
 373 362 l 1
 417 366 428 404 440 444 c 2
 440 600 l 1
 579 600 l 1
 579 433 l 2
EndSplineSet
Validated: 1
EndChar

StartChar: afii57687
Encoding: 1511 1511 636
Width: 672
Flags: MW
LayerCount: 2
Fore
SplineSet
341 164 m 1
 425 180 441 201 460 285 c 2
 460 485 l 1
 80 485 l 1
 80 600 l 1
 599 600 l 1
 599 276 l 2
 588 196 554 129 489 94 c 1
 437 65 403 51 335 49 c 1
 335 165 l 1
 341 164 l 1
219 371 m 1
 219 -200 l 1
 80 -200 l 1
 80 371 l 1
 219 371 l 1
EndSplineSet
Validated: 1
EndChar

StartChar: afii57688
Encoding: 1512 1512 637
Width: 600
Flags: MW
LayerCount: 2
Fore
SplineSet
391 365 m 2
 366 476 327 472 258 485 c 2
 63 485 l 1
 63 600 l 1
 270 600 l 2
 337 593 498 579 530 374 c 1
 530 0 l 1
 391 0 l 1
 391 365 l 2
EndSplineSet
Validated: 1
EndChar

StartChar: afii57689
Encoding: 1513 1513 638
Width: 840
Flags: MW
LayerCount: 2
Fore
SplineSet
766 260 m 0
 766 154 654 0 461 0 c 2
 382 0 l 2
 273 0 171 53 114 142 c 0
 87 181 76 223 76 265 c 2
 76 600 l 1
 215 600 l 1
 215 323 l 1
 283 323 l 2
 324 323 351 349 351 387 c 2
 351 600 l 1
 490 600 l 1
 490 387 l 2
 490 236 336 208 294 208 c 0
 290 208 286 208 283 208 c 0
 230 208 l 1
 236 198 l 2
 289 124 353 115 382 115 c 2
 461 115 l 2
 529 115 627 176 627 265 c 2
 627 600 l 1
 766 600 l 1
 766 265 l 1
 766 263 766 262 766 260 c 0
EndSplineSet
Validated: 1
EndChar

StartChar: afii57690
Encoding: 1514 1514 639
Width: 756
Flags: MW
LayerCount: 2
Fore
SplineSet
546 366 m 2
 524 458 517 465 413 485 c 2
 328 485 l 1
 328 229 l 2
 328 156 312 96 252 36 c 0
 226.98 10.98 151 0 87 0 c 0
 76 0 62 5 62 5 c 1
 62 121 l 1
 79 116.5 70 115 102 115 c 1
 184 115 189 201 189 233 c 1
 189 485 l 1
 123 485 l 1
 123 600 l 1
 425 600 l 2
 490 593 653 582 685 374 c 2
 685 0 l 1
 546 0 l 1
 546 366 l 2
EndSplineSet
Validated: 1
EndChar

StartChar: afii57716
Encoding: 1520 1520 640
Width: 554
Flags: MW
LayerCount: 2
Fore
SplineSet
79 0 m 1
 79 600 l 1
 218 600 l 1
 218 0 l 1
 79 0 l 1
336 0 m 1
 336 600 l 1
 475 600 l 1
 475 0 l 1
 336 0 l 1
EndSplineSet
Validated: 1
EndChar

StartChar: afii57717
Encoding: 1521 1521 641
Width: 550
Flags: MW
LayerCount: 2
Fore
SplineSet
212 333 m 1
 73 276 l 1
 73 600 l 1
 212 600 l 1
 212 333 l 1
332 0 m 1
 332 600 l 1
 471 600 l 1
 471 0 l 1
 332 0 l 1
EndSplineSet
Validated: 1
EndChar

StartChar: afii57718
Encoding: 1522 1522 642
Width: 542
Flags: MW
LayerCount: 2
Fore
SplineSet
212 333 m 1
 73 276 l 1
 73 600 l 1
 212 600 l 1
 212 333 l 1
470 333 m 1
 331 276 l 1
 331 600 l 1
 470 600 l 1
 470 333 l 1
EndSplineSet
Validated: 1
EndChar

StartChar: uni05F3
Encoding: 1523 1523 643
Width: 238
Flags: MW
LayerCount: 2
Fore
SplineSet
188 729 m 1
 188 599 l 1
 146 470 l 1
 90 470 l 1
 50 599 l 1
 50 729 l 1
 188 729 l 1
EndSplineSet
Validated: 1
EndChar

StartChar: uni05F4
Encoding: 1524 1524 644
Width: 474
Flags: MW
LayerCount: 2
Fore
SplineSet
188 729 m 1
 188 599 l 1
 146 470 l 1
 90 470 l 1
 50 599 l 1
 50 729 l 1
 188 729 l 1
424 729 m 1
 424 599 l 1
 382 470 l 1
 326 470 l 1
 286 599 l 1
 286 729 l 1
 424 729 l 1
EndSplineSet
Validated: 1
EndChar

StartChar: afii57409
Encoding: 1569 1569 645
Width: 844
VWidth: 2048
Flags: MW
LayerCount: 2
Fore
SplineSet
572 427 m 0
 572 391 614 367 642 367 c 0
 655 367 683 373 727 385 c 2
 796 403 l 1
 810 324 l 1
 412 223 l 1
 390 301 l 1
 529 334 l 1
 517 346 489 393 489 436 c 0
 489 499 540 556 614 556 c 0
 616 556 617 556 619 556 c 2
 647 554 l 1
 678 548 l 1
 717 539 l 1
 713 507 l 1
 710 486 l 1
 709 467 l 1
 668 474 l 1
 653 476 l 1
 639 477 l 2
 638 477 636 477 635 477 c 0
 594 463 l 0
 579 453 572 441 572 427 c 0
EndSplineSet
Validated: 1
EndChar

StartChar: afii57416
Encoding: 1576 1576 646
Width: 923
VWidth: 2048
Flags: MW
LayerCount: 2
Fore
SplineSet
509 -201 m 1
 395 -201 l 1
 395 -86 l 1
 509 -86 l 1
 509 -201 l 1
210 0 m 2
 77 0 44 73 44 174 c 2
 44 246 l 1
 157 246 l 1
 157 192 l 2
 157 126 201 133 232 129 c 2
 763 129 l 2
 789 129 802 138 802 155 c 0
 802 168 796 178 792 185 c 2
 741 284 l 1
 839 352 l 1
 904 244 923 192 923 157 c 0
 923 63 874 0 783 0 c 2
 210 0 l 2
EndSplineSet
Validated: 1
EndChar

StartChar: afii57418
Encoding: 1578 1578 647
Width: 922
VWidth: 2048
Flags: MW
LayerCount: 2
Fore
SplineSet
210 0 m 2
 77 0 44 73 44 174 c 2
 44 246 l 1
 157 246 l 1
 157 192 l 2
 157 126 201 133 232 129 c 2
 763 129 l 2
 789 129 802 138 802 155 c 0
 802 168 796 178 792 185 c 2
 741 284 l 1
 839 352 l 1
 904 244 923 192 923 157 c 0
 923 63 874 0 783 0 c 2
 210 0 l 2
575 324 m 1
 474 324 l 1
 474 425 l 1
 575 425 l 1
 575 324 l 1
438 324 m 1
 337 324 l 1
 337 425 l 1
 438 425 l 1
 438 324 l 1
EndSplineSet
Validated: 1
EndChar

StartChar: afii57419
Encoding: 1579 1579 648
Width: 922
VWidth: 2048
Flags: MW
LayerCount: 2
Fore
SplineSet
210 0 m 2
 77 0 44 73 44 174 c 2
 44 246 l 1
 157 246 l 1
 157 192 l 2
 157 126 201 133 232 129 c 2
 763 129 l 2
 789 129 802 138 802 155 c 0
 802 168 796 178 792 185 c 2
 741 284 l 1
 839 352 l 1
 904 244 923 192 923 157 c 0
 923 63 874 0 783 0 c 2
 210 0 l 2
557 409 m 1
 557 306 l 1
 456 306 l 1
 456 409 l 1
 557 409 l 1
431 409 m 1
 431 306 l 1
 331 306 l 1
 331 409 l 1
 431 409 l 1
493 530 m 1
 493 428 l 1
 390 428 l 1
 390 530 l 1
 493 530 l 1
EndSplineSet
Validated: 1
EndChar

StartChar: afii57421
Encoding: 1581 1581 649
Width: 649
VWidth: 2048
Flags: MW
LayerCount: 2
Fore
SplineSet
258 286 m 0
 170 286 124 274 105 255 c 1
 48 350 l 1
 64 371 117 413 176 413 c 0
 177 413 179 413 180 413 c 2
 640 396 l 1
 628 274 l 1
 624 274 621 274 617 274 c 0
 476 274 370 200 295 138 c 0
 228 82 156 15 156 -60 c 0
 156 -154 233 -227 358 -227 c 0
 430 -227 511 -200 565 -177 c 1
 620 -282 l 1
 529 -331 417 -355 357 -355 c 0
 80 -355 35 -173 35 -69 c 0
 35 98 202 218 338 284 c 1
 314 286 285 286 258 286 c 0
EndSplineSet
Validated: 1
EndChar

StartChar: afii57422
Encoding: 1582 1582 650
Width: 704
VWidth: 2048
Flags: MW
LayerCount: 2
Fore
SplineSet
258 286 m 0
 170 286 124 274 105 255 c 1
 48 350 l 1
 64 371 117 413 176 413 c 0
 177 413 179 413 180 413 c 2
 640 396 l 1
 628 274 l 1
 624 274 621 274 617 274 c 0
 476 274 370 200 295 138 c 0
 228 82 156 15 156 -60 c 0
 156 -154 233 -227 358 -227 c 0
 430 -227 511 -200 565 -177 c 1
 620 -282 l 1
 529 -331 417 -355 357 -355 c 0
 80 -355 35 -173 35 -69 c 0
 35 98 202 218 338 284 c 1
 314 286 285 286 258 286 c 0
371 479 m 1
 258 479 l 1
 258 593 l 1
 371 593 l 1
 371 479 l 1
EndSplineSet
Validated: 1
EndChar

StartChar: afii57427
Encoding: 1587 1587 651
Width: 1221
VWidth: 2048
Flags: MW
LayerCount: 2
Fore
SplineSet
172 21 m 0
 172 -47 214 -135 382 -135 c 0
 531 -135 574 -49 574 52 c 0
 574 134 510 247 507 253 c 2
 481 300 l 1
 577 361 l 1
 624 275 l 26
 650 227 691 170 735 170 c 0
 781 170 793 213 793 244 c 2
 793 364 l 1
 900 364 l 1
 900 282 l 2
 903 235 918 170 990 170 c 0
 1027 170 1046 188 1046 223 c 0
 1046 239 1036 264 1015 300 c 2
 992 340 l 1
 1089 400 l 1
 1115 354 l 26
 1144 302 1164 240 1164 210 c 0
 1164 147 1161 149 1156 136 c 0
 1127 63 1067 34 1003 34 c 0
 961 34 917 61 872 115 c 1
 856 92 830 36 757 36 c 0
 716 36 700 52 689 58 c 1
 689 30 678 -73 668 -83 c 1
 663 -96 l 0
 615 -198 533 -269 367 -269 c 0
 185 -269 63 -144 63 36 c 2
 63 41 l 2
 63 109 79 139 96 182 c 1
 196 148 l 1
 176 98 172 49 172 21 c 0
EndSplineSet
Validated: 1
EndChar

StartChar: prosgegrammeni
Encoding: 8126 8126 827
Width: 346
Flags: HM
LayerCount: 2
Fore
SplineSet
149 126.146 m 6
 149 76.79 155.333 52.8174 180 52.8174 c 4
 209 52.8174 211 69.7393 215 86.6611 c 5
 244 86.6611 l 5
 244 2.05273 216 0.642578 146 0.642578 c 4
 83 0.642578 58 27.4346 58 154.349 c 6
 58 251.648 l 5
 149 251.648 l 5
 149 250.238 149 126.146 149 126.146 c 6
EndSplineSet
EndChar

StartChar: psili
Encoding: 8127 8127 828
Width: 278
Flags: M
LayerCount: 2
Fore
SplineSet
86 753 m 1
 216 753 l 1
 216 699 l 2
 216 633 205 576 84 563 c 1
 84 610 l 1
 140 620 160 649 160 692 c 2
 160 693 l 1
 86 693 l 1
 86 753 l 1
EndSplineSet
Validated: 1
EndChar

StartChar: dialytikavaria
Encoding: 8173 8173 870
Width: 333
Flags: HMW
LayerCount: 2
Fore
SplineSet
82 780 m 1
 196 780 l 1
 218 600 l 1
 148 600 l 1
 82 780 l 1
87.5996 697.8 m 1
 87.5996 600.2 l 1
 -0.400391 600.2 l 1
 -0.400391 697.8 l 1
 87.5996 697.8 l 1
332.4 697.8 m 1
 332.4 600.2 l 1
 244.4 600.2 l 1
 244.4 697.8 l 1
 332.4 697.8 l 1
EndSplineSet
EndChar

StartChar: varia
Encoding: 8175 8175 872
Width: 333
Flags: MW
LayerCount: 2
Fore
SplineSet
82 745 m 1
 208 745 l 1
 282 579 l 1
 212 579 l 1
 82 745 l 1
EndSplineSet
Validated: 1
EndChar

StartChar: oxia
Encoding: 8189 8189 883
Width: 333
Flags: M
LayerCount: 2
Fore
SplineSet
317 754 m 1
 187 588 l 1
 117 588 l 1
 191 754 l 1
 317 754 l 1
EndSplineSet
Validated: 1
EndChar

StartChar: dasia
Encoding: 8190 8190 884
Width: 278
Flags: MW
LayerCount: 2
Fore
SplineSet
211 753 m 1
 211 693 l 1
 137 693 l 1
 137 692 l 2
 137 649 157 620 213 610 c 1
 213 563 l 1
 92 576 81 633 81 699 c 2
 81 753 l 1
 211 753 l 1
EndSplineSet
Validated: 1
EndChar

StartChar: circumflex
Encoding: 710 710 904
Width: 333
Flags: MW
LayerCount: 2
Fore
SplineSet
116 757 m 1
 223 757 l 1
 326 607 l 1
 248 607 l 1
 166 707 l 1
 84 607 l 1
 8 607 l 1
 116 757 l 1
EndSplineSet
Validated: 1
EndChar

StartChar: caron
Encoding: 711 711 905
Width: 333
Flags: MW
LayerCount: 2
Fore
SplineSet
219 607 m 1
 112 607 l 1
 9 757 l 1
 87 757 l 1
 169 660 l 1
 251 757 l 1
 327 757 l 1
 219 607 l 1
EndSplineSet
Validated: 1
EndChar

StartChar: breve
Encoding: 728 728 906
Width: 333
Flags: MW
LayerCount: 2
Fore
SplineSet
299 748 m 1
 299 737 l 2
 299 662 242 605 167 605 c 0
 92 605 35 662 35 738 c 2
 35 748 l 1
 91 748 l 1
 97 704 122 682 168 682 c 0
 212 682 235 702 243 748 c 1
 299 748 l 1
EndSplineSet
Validated: 1
EndChar

StartChar: dotaccent
Encoding: 729 729 907
Width: 333
Flags: MW
LayerCount: 2
Fore
SplineSet
222 743 m 1
 222 621 l 1
 112 621 l 1
 112 743 l 1
 222 743 l 1
EndSplineSet
Validated: 1
EndChar

StartChar: ring
Encoding: 730 730 908
Width: 333
Flags: MW
LayerCount: 2
Fore
SplineSet
168 770 m 0
 218 770 257 730 257 679 c 0
 257 630 216 590 167 590 c 0
 117 590 77 630 77 680 c 0
 77 730 117 770 168 770 c 0
168 722 m 0
 144 722 125 703 125 680 c 0
 125 657 144 638 168 638 c 0
 190 638 209 657 209 680 c 0
 209 703 191 722 168 722 c 0
EndSplineSet
Validated: 1
EndChar

StartChar: ogonek
Encoding: 731 731 909
Width: 333
Flags: MW
LayerCount: 2
Fore
SplineSet
169 0 m 1
 244 0 l 1
 159 -53 135 -82 135 -133 c 0
 135 -167 158 -183 211 -183 c 0
 231 -183 250 -181 268 -177 c 1
 268 -224 l 1
 241 -231 217 -234 189 -234 c 0
 100 -234 45 -197 45 -139 c 0
 45 -80 92 -28 169 0 c 1
EndSplineSet
Validated: 1
EndChar

StartChar: tilde
Encoding: 732 732 910
Width: 333
Flags: MW
LayerCount: 2
Fore
SplineSet
282 749 m 1
 345 749 l 1
 341 664 309 622 250 622 c 0
 235 622 216 626 195 634 c 2
 124 660 l 2
 112 664 103 666 94 666 c 0
 70 666 59 653 54 621 c 1
 -9 621 l 1
 -5 699 30 745 85 745 c 0
 104 745 105 745 141 732 c 2
 212 707 l 2
 219 704 239 701 246 701 c 0
 267 701 279 717 282 749 c 1
EndSplineSet
Validated: 1
EndChar

StartChar: hungarumlaut
Encoding: 733 733 911
Width: 333
Flags: MW
LayerCount: 2
Fore
SplineSet
152 757 m 1
 26 610 l 1
 -44 610 l 1
 26 757 l 1
 152 757 l 1
340 757 m 1
 214 610 l 1
 144 610 l 1
 214 757 l 1
 340 757 l 1
EndSplineSet
Validated: 1
EndChar

StartChar: uni030F
Encoding: 783 783 922
Width: 0
Flags: MW
AnchorPoint: "above" -127 580 mark 0
LayerCount: 2
Fore
SplineSet
-189 757 m 1
 -63 757 l 1
 7 610 l 1
 -63 610 l 1
 -189 757 l 1
-377 757 m 1
 -251 757 l 1
 -181 610 l 1
 -251 610 l 1
 -377 757 l 1
EndSplineSet
Validated: 1
EndChar

StartChar: uni0374
Encoding: 884 884 925
Width: 379
Flags: MW
LayerCount: 2
Fore
SplineSet
329 789 m 1
 120 603 l 1
 56 603 l 1
 147 789 l 1
 329 789 l 1
EndSplineSet
Validated: 1
EndChar

StartChar: uni0375
Encoding: 885 885 926
Width: 379
Flags: MW
LayerCount: 2
Fore
SplineSet
58 -186 m 1
 267 0 l 1
 331 0 l 1
 240 -186 l 1
 58 -186 l 1
EndSplineSet
Validated: 1
EndChar

StartChar: ypogegrammeni
Encoding: 890 890 927
Width: 333
Flags: HMW
LayerCount: 2
Fore
SplineSet
221 -111 m 2
 221 -146 227.333 -163 252 -163 c 0
 281 -163 283 -151 287 -139 c 1
 316 -139 l 1
 316 -199 288 -200 218 -200 c 0
 155 -200 130 -181 130 -91 c 2
 130 -47 l 5
 221 -47 l 5
 221 -48 221 -111 221 -111 c 2
EndSplineSet
EndChar

StartChar: dieresistonos
Encoding: 901 901 930
Width: 333
Flags: HMW
LayerCount: 2
Fore
SplineSet
254 780 m 5
 188 600 l 5
 118 600 l 5
 140 780 l 5
 254 780 l 5
87.5996 697.8 m 1
 87.5996 600.2 l 1
 -0.400391 600.2 l 1
 -0.400391 697.8 l 1
 87.5996 697.8 l 1
332.4 697.8 m 1
 332.4 600.2 l 1
 244.4 600.2 l 1
 244.4 697.8 l 1
 332.4 697.8 l 1
EndSplineSet
EndChar

StartChar: anoteleia
Encoding: 903 903 932
Width: 474
Flags: MW
LayerCount: 2
Fore
SplineSet
172 287 m 0
 172 330 203 362 250 362 c 0
 298 362 328 329 328 287 c 0
 328 245 297 213 250 213 c 0
 202 213 172 246 172 287 c 0
EndSplineSet
Validated: 1
EndChar

StartChar: Gamma
Encoding: 915 915 941
Width: 642
Flags: MW
LayerCount: 2
Fore
SplineSet
591 595 m 1
 203 595 l 1
 203 0 l 1
 57 0 l 1
 57 729 l 1
 591 729 l 1
 591 595 l 1
EndSplineSet
Validated: 1
EndChar

StartChar: Delta
Encoding: 916 916 942
Width: 726
Flags: MW
LayerCount: 2
Fore
SplineSet
0 0 m 1
 281 729 l 1
 426 729 l 1
 724 0 l 1
 0 0 l 1
517 125 m 1
 355 549 l 1
 203 125 l 1
 517 125 l 1
EndSplineSet
Validated: 1
EndChar

StartChar: Theta
Encoding: 920 920 946
Width: 810
Flags: MW
LayerCount: 2
Fore
SplineSet
385 726 m 0
 600 726 743 585 743 364 c 0
 743 141 585 3 385 3 c 0
 247 3 27 74 27 356 c 0
 27 585 174 726 385 726 c 0
170 355 m 0
 170 217 251 124 383 124 c 0
 475 124 599 172 599 364 c 0
 599 557 471 606 385 606 c 0
 234 606 170 498 170 355 c 0
571 314 m 1
 195 314 l 1
 195 436 l 1
 571 436 l 1
 571 314 l 1
EndSplineSet
Validated: 1
EndChar

StartChar: Lambda
Encoding: 923 923 949
Width: 744
Flags: MW
LayerCount: 2
Fore
SplineSet
373 539 m 1
 178 0 l 1
 34 0 l 1
 309 729 l 1
 435 729 l 1
 727 0 l 1
 578 0 l 1
 373 539 l 1
EndSplineSet
Validated: 1
EndChar

StartChar: Mu
Encoding: 924 924 950
Width: 860
Flags: MW
LayerCount: 2
Fore
SplineSet
781 -7 m 1
 636 -7 l 1
 636 448 l 1
 467 -7 l 1
 342 -7 l 1
 176 454 l 1
 176 -7 l 1
 31 -7 l 1
 31 725 l 1
 222 725 l 1
 242 711 415 205 415 205 c 1
 475 382 544 550 606 725 c 1
 781 725 l 1
 781 -7 l 1
EndSplineSet
Validated: 1
EndChar

StartChar: Nu
Encoding: 925 925 951
Width: 714
Flags: MW
LayerCount: 2
Fore
SplineSet
645 -8 m 1
 510 -8 l 1
 173 473 l 1
 173 -8 l 1
 31 -8 l 1
 31 724 l 1
 168 724 l 1
 505 242 l 1
 505 724 l 1
 645 724 l 1
 645 -8 l 1
EndSplineSet
Validated: 1
EndChar

StartChar: Xi
Encoding: 926 926 952
Width: 690
Flags: MW
LayerCount: 2
Fore
SplineSet
613 602 m 1
 45 602 l 1
 45 729 l 1
 613 729 l 1
 613 602 l 1
557 310 m 1
 107 310 l 1
 107 437 l 1
 557 437 l 1
 557 310 l 1
629 0 m 1
 45 0 l 1
 45 127 l 1
 629 127 l 1
 629 0 l 1
EndSplineSet
Validated: 1
EndChar

StartChar: Pi
Encoding: 928 928 954
Width: 781
Flags: MW
LayerCount: 2
Fore
SplineSet
665 -7 m 1
 521 -7 l 1
 521 596 l 1
 199 596 l 1
 199 -7 l 1
 55 -7 l 1
 55 724 l 1
 665 724 l 1
 665 -7 l 1
EndSplineSet
Validated: 1
EndChar

StartChar: Rho
Encoding: 929 929 955
Width: 698
Flags: MW
LayerCount: 2
Fore
SplineSet
649 503 m 0
 649 407 605 271 356 271 c 2
 197 271 l 1
 197 -8 l 1
 53 -8 l 1
 53 724 l 1
 348 724 l 2
 437 724 514 721 573 671 c 0
 624 629 649 567 649 503 c 0
358 399 m 2
 472 399 501 437 501 499 c 0
 501 548 480 578 437 591 c 0
 420 594 393 595 356 595 c 2
 197 595 l 1
 197 399 l 1
 358 399 l 2
EndSplineSet
Validated: 1
EndChar

StartChar: Sigma
Encoding: 931 931 956
Width: 688
Flags: MW
LayerCount: 2
Fore
SplineSet
425 390 m 1
 202 128 l 1
 631 128 l 1
 631 0 l 1
 15 0 l 1
 15 117 l 1
 244 390 l 1
 49 616 l 1
 49 729 l 1
 611 729 l 1
 611 601 l 1
 243 601 l 1
 244 600 425 390 425 390 c 1
EndSplineSet
Validated: 1
EndChar

StartChar: Tau
Encoding: 932 932 957
Width: 688
Flags: MW
LayerCount: 2
Fore
SplineSet
632 604 m 1
 394 604 l 1
 394 1 l 1
 250 1 l 1
 250 604 l 1
 14 604 l 1
 14 732 l 1
 632 732 l 1
 632 604 l 1
EndSplineSet
Validated: 1
EndChar

StartChar: Upsilon
Encoding: 933 933 958
Width: 804
Flags: MW
AnchorPoint: "abovegrk" -110 520 basechar 0
LayerCount: 2
Fore
SplineSet
390 434 m 1
 390 434 593 728 593 729 c 1
 765 729 l 1
 456 307 l 1
 456 0 l 1
 312 0 l 1
 312 307 l 1
 14 729 l 1
 189 729 l 1
 390 434 l 1
EndSplineSet
Validated: 1
EndChar

StartChar: Phi
Encoding: 934 934 959
Width: 777
Flags: MW
LayerCount: 2
Fore
SplineSet
4 348 m 0
 4 596 233 640 293 644 c 1
 293 723 l 1
 424 723 l 1
 424 644 l 1
 503 639 569 612 622 561 c 0
 683 503 713 432 713 348 c 0
 713 103 485 62 425 58 c 1
 425 -13 l 1
 292 -13 l 1
 292 58 l 1
 212 63 146 90 94 138 c 0
 34 193 4 263 4 348 c 0
572 353 m 0
 572 446 507 505 425 523 c 1
 425 175 l 1
 511 194 572 257 572 353 c 0
292 175 m 1
 292 523 l 1
 209 505 145 447 145 353 c 0
 145 246 218 191 292 175 c 1
EndSplineSet
Validated: 1
EndChar

StartChar: Chi
Encoding: 935 935 960
Width: 783
Flags: MW
LayerCount: 2
Fore
SplineSet
767 -7 m 1
 586 -7 l 1
 521 84 449 171 385 264 c 1
 369 239 219 43 181 -7 c 1
 3 -7 l 1
 303 376 l 1
 38 728 l 1
 213 728 l 1
 267 649 340 569 390 489 c 1
 443 559 523 655 580 728 c 1
 748 728 l 1
 474 380 l 1
 767 -7 l 1
EndSplineSet
Validated: 1
EndChar

StartChar: Psi
Encoding: 936 936 961
Width: 805
Flags: MW
LayerCount: 2
Fore
SplineSet
719 369 m 2
 719 271 681 132 465 132 c 2
 445 132 l 1
 445 -10 l 1
 301 -10 l 1
 301 132 l 1
 205 132 156 141 106 182 c 0
 58 220 27 282 27 369 c 2
 27 732 l 1
 167 728 l 1
 167 381 l 2
 167 301 189 260 305 260 c 1
 305 729 l 1
 441 729 l 1
 441 260 l 1
 530 260 579 279 579 381 c 2
 579 728 l 1
 719 732 l 1
 719 369 l 2
EndSplineSet
Validated: 1
EndChar

StartChar: Omega
Encoding: 937 937 962
Width: 780
Flags: MW
AnchorPoint: "abovegrk" -40 520 basechar 0
LayerCount: 2
Fore
SplineSet
590 364 m 0
 590 500 506 610 368 610 c 0
 241 610 157 501 157 361 c 0
 157 218 237 140 331 101 c 1
 331 -17 l 1
 14 -17 l 1
 14 105 l 1
 137 105 l 1
 66 164 19 247 19 362 c 0
 19 555 151 732 366 732 c 0
 595 732 733 568 733 366 c 0
 733 246 685 162 611 105 c 1
 731 105 l 1
 731 -17 l 1
 403 -17 l 1
 403 100 l 1
 555 161 590 265 590 364 c 0
EndSplineSet
Validated: 1
EndChar

StartChar: alpha
Encoding: 945 945 970
Width: 656
Flags: MW
AnchorPoint: "abovegrk" 276 578 basechar 0
LayerCount: 2
Fore
SplineSet
394 267 m 0
 394 336 371 424 276 424 c 0
 185 424 156 354 156 263 c 0
 156 174 184 106 274 106 c 0
 354 106 394 160 394 267 c 0
25 267 m 0
 25 487 169 542 276 542 c 0
 345 540 385 525 423 492 c 1
 423 533 l 1
 546 533 l 1
 546 108 l 1
 580 130 l 1
 617 16 l 1
 571 -5 534 -15 505 -15 c 0
 470 -15 435 7 422 27 c 1
 382 0 334 -14 276 -14 c 0
 97 -14 25 92 25 267 c 0
EndSplineSet
Validated: 1
EndChar

StartChar: beta
Encoding: 946 946 971
Width: 576
Flags: MW
LayerCount: 2
Fore
SplineSet
27 473 m 2
 27 610 70 721 250 721 c 0
 392 721 473 645 473 524 c 0
 469 441 430 403 408 386 c 1
 408 385 l 1
 481 356 527 297 527 204 c 0
 527 75 437 -18 298 -18 c 0
 239 -18 195 -7 162 15 c 1
 162 -190 l 1
 27 -190 l 1
 27 473 l 2
263 608 m 0
 180 608 162 566 162 472 c 2
 162 470 l 1
 163 155 l 1
 176 121 210 97 280 97 c 0
 327 97 388 119 388 206 c 0
 388 263 361 309 252 309 c 2
 178 309 l 1
 178 424 l 1
 244 424 l 2
 336 424 352 486 352 526 c 0
 352 576 315 608 263 608 c 0
EndSplineSet
Validated: 1
EndChar

StartChar: gamma
Encoding: 947 947 972
Width: 591
Flags: MW
LayerCount: 2
Fore
SplineSet
556 536 m 1
 360 42 l 1
 360 -199 l 1
 225 -199 l 1
 225 41 l 1
 83 373 l 2
 75 397 64 427 59 427 c 0
 54 427 38 422 12 411 c 1
 3 511 l 2
 3 540 57 548 69 548 c 0
 140 548 166 526 197 446 c 2
 291 212 l 1
 417 536 l 1
 556 536 l 1
EndSplineSet
Validated: 1
EndChar

StartChar: delta
Encoding: 948 948 973
Width: 620
Flags: MW
LayerCount: 2
Fore
SplineSet
275 120 m 0
 395 120 416 208 416 269 c 0
 416 325 396 414 281 414 c 0
 204 414 152 350 152 268 c 0
 152 169 193 120 275 120 c 0
12 260 m 0
 12 467 160 510 207 519 c 1
 48 624 l 1
 48 727 l 1
 496 727 l 1
 496 613 l 1
 279 613 l 1
 392 537 l 2
 441 504 554 439 554 268 c 0
 554 51 429 -3 275 -3 c 0
 176 -3 12 36 12 260 c 0
EndSplineSet
Validated: 1
EndChar

StartChar: epsilon
Encoding: 949 949 974
Width: 570
Flags: MW
AnchorPoint: "abovegrk" 256 572 basechar 0
LayerCount: 2
Fore
SplineSet
505 174 m 1
 490 79 455 -10 253 -10 c 0
 94 -10 14 44 14 151 c 0
 14 213 39 243 79 268 c 1
 37 294 14 328 14 386 c 0
 14 507 111 545 253 547 c 2
 262 547 l 2
 456 547 491 454 505 362 c 1
 378 362 l 1
 373 398 352 434 250 434 c 0
 182 434 146 416 146 380 c 0
 146 331 184 319 249 319 c 2
 320 319 l 1
 320 217 l 1
 249 217 l 2
 183 217 146 206 146 156 c 0
 146 121 182 103 250 103 c 0
 352 103 373 139 378 174 c 1
 505 174 l 1
EndSplineSet
Validated: 1
EndChar

StartChar: zeta
Encoding: 950 950 975
Width: 522
Flags: MW
LayerCount: 2
Fore
SplineSet
177 239 m 0
 177 18 487 193 487 -33 c 0
 487 -74 471 -133 438 -214 c 1
 314 -169 l 1
 343 -109 357 -72 357 -55 c 0
 357 -24 351 -21 316 -21 c 0
 253 -21 189 1 123 43 c 0
 64 80 35 140 35 223 c 0
 35 380 110 521 224 616 c 1
 51 616 l 1
 51 736 l 1
 457 736 l 1
 457 638 l 1
 325 564 177 423 177 239 c 0
EndSplineSet
Validated: 1
EndChar

StartChar: eta
Encoding: 951 951 976
Width: 586
Flags: MW
AnchorPoint: "belowgrk" 144 -24 basechar 0
AnchorPoint: "abovegrk" 312 568 basechar 0
LayerCount: 2
Fore
SplineSet
42 414 m 1
 19 528 l 1
 55 541 85 548 109 548 c 0
 164 548 188 505 195 488 c 1
 223 529 292 547 344 547 c 0
 496 547 547 468 547 319 c 2
 547 -200 l 1
 409 -163 l 1
 409 315 l 2
 409 380 398 424 326 424 c 0
 251 424 213 378 213 284 c 2
 213 -16 l 1
 75 -16 l 1
 75 410 l 2
 75 416.728 70.171 418.829 64.033 418.829 c 0
 56.4872 418.829 46.963 415.654 42 414 c 1
EndSplineSet
Validated: 1
EndChar

StartChar: theta
Encoding: 952 952 977
Width: 586
Flags: MW
LayerCount: 2
Fore
SplineSet
282 729 m 0
 391 729 539 673 539 357 c 0
 539 137 487 -16 282 -16 c 0
 127 -16 24 68 24 357 c 0
 24 673 172 729 282 729 c 0
399 420 m 1
 397 475 388 522 371 561 c 0
 355 596 326 614 282 614 c 0
 188 614 168 509 165 420 c 1
 399 420 l 1
165 305 m 1
 170 149 212 101 282 101 c 0
 383 101 395 204 399 305 c 1
 165 305 l 1
EndSplineSet
Validated: 1
EndChar

StartChar: endash
Encoding: 8211 8211 978
Width: 556
Flags: MW
LayerCount: 2
Fore
SplineSet
557 311 m 1
 557 207 l 1
 -9 207 l 1
 -9 311 l 1
 557 311 l 1
EndSplineSet
Validated: 1
EndChar

StartChar: emdash
Encoding: 8212 8212 979
Width: 1000
Flags: MW
LayerCount: 2
Fore
SplineSet
1003 311 m 1
 1003 207 l 1
 -7 207 l 1
 -7 311 l 1
 1003 311 l 1
EndSplineSet
Validated: 1
EndChar

StartChar: quoteleft
Encoding: 8216 8216 980
Width: 278
Flags: MW
LayerCount: 2
Fore
SplineSet
202 469 m 1
 67 469 l 1
 67 578 l 2
 67 699 148 726 202 729 c 1
 202 683 l 1
 148 673 122 646 122 599 c 0
 122 598 122 596 122 594 c 1
 202 594 l 1
 202 469 l 1
EndSplineSet
Validated: 1
EndChar

StartChar: quoteright
Encoding: 8217 8217 981
Width: 278
Flags: MW
LayerCount: 2
Fore
SplineSet
66 729 m 1
 201 729 l 1
 201 620 l 2
 201 499 120 472 66 469 c 1
 66 515 l 1
 120 525 146 552 146 599 c 0
 146 600 146 602 146 604 c 1
 66 604 l 1
 66 729 l 1
EndSplineSet
Validated: 1
EndChar

StartChar: quotesinglbase
Encoding: 8218 8218 982
Width: 278
Flags: MW
LayerCount: 2
Fore
SplineSet
66 125 m 1
 201 125 l 1
 201 16 l 2
 201 -105 120 -132 66 -135 c 1
 66 -89 l 1
 120 -79 146 -52 146 -5 c 0
 146 -4 146 -2 146 0 c 1
 66 0 l 1
 66 125 l 1
EndSplineSet
Validated: 1
EndChar

StartChar: quotedblleft
Encoding: 8220 8220 983
Width: 500
Flags: MW
LayerCount: 2
Fore
SplineSet
206 469 m 1
 71 469 l 1
 71 578 l 2
 71 699 152 726 206 729 c 1
 206 683 l 1
 152 673 126 646 126 599 c 0
 126 598 126 596 126 594 c 1
 206 594 l 1
 206 469 l 1
433 469 m 1
 298 469 l 1
 298 578 l 2
 298 699 379 726 433 729 c 1
 433 683 l 1
 379 673 353 646 353 599 c 0
 353 598 353 596 353 594 c 1
 433 594 l 1
 433 469 l 1
EndSplineSet
Validated: 1
EndChar

StartChar: quotedblright
Encoding: 8221 8221 984
Width: 500
Flags: MW
LayerCount: 2
Fore
SplineSet
73 729 m 1
 208 729 l 1
 208 620 l 2
 208 499 127 472 73 469 c 1
 73 515 l 1
 127 525 153 552 153 599 c 0
 153 600 153 602 153 604 c 1
 73 604 l 1
 73 729 l 1
305 729 m 1
 440 729 l 1
 440 620 l 2
 440 499 359 472 305 469 c 1
 305 515 l 1
 359 525 385 552 385 599 c 0
 385 600 385 602 385 604 c 1
 305 604 l 1
 305 729 l 1
EndSplineSet
Validated: 1
EndChar

StartChar: quotedblbase
Encoding: 8222 8222 985
Width: 500
Flags: MW
LayerCount: 2
Fore
SplineSet
72 125 m 1
 207 125 l 1
 207 16 l 2
 207 -105 126 -132 72 -135 c 1
 72 -89 l 1
 126 -79 152 -52 152 -5 c 0
 152 -4 152 -2 152 0 c 1
 72 0 l 1
 72 125 l 1
297 125 m 1
 432 125 l 1
 432 16 l 2
 432 -105 351 -132 297 -135 c 1
 297 -89 l 1
 351 -79 377 -52 377 -5 c 0
 377 -4 377 -2 377 0 c 1
 297 0 l 1
 297 125 l 1
EndSplineSet
Validated: 1
EndChar

StartChar: dagger
Encoding: 8224 8224 986
Width: 556
Flags: MW
LayerCount: 2
Fore
SplineSet
523 485 m 1
 523 369 l 1
 344 369 l 1
 344 -194 l 1
 210 -194 l 1
 210 369 l 1
 31 369 l 1
 31 485 l 1
 210 485 l 1
 210 709 l 1
 344 709 l 1
 344 485 l 1
 523 485 l 1
EndSplineSet
Validated: 1
EndChar

StartChar: daggerdbl
Encoding: 8225 8225 987
Width: 556
Flags: MW
LayerCount: 2
Fore
SplineSet
520 485 m 1
 520 369 l 1
 341 369 l 1
 341 146 l 1
 520 146 l 1
 520 30 l 1
 341 30 l 1
 341 -194 l 1
 207 -194 l 1
 207 30 l 1
 28 30 l 1
 28 146 l 1
 207 146 l 1
 207 369 l 1
 28 369 l 1
 28 485 l 1
 207 485 l 1
 207 709 l 1
 341 709 l 1
 341 485 l 1
 520 485 l 1
EndSplineSet
Validated: 1
EndChar

StartChar: bullet
Encoding: 8226 8226 988
Width: 350
Flags: MW
LayerCount: 2
Fore
SplineSet
177 425 m 0
 244 425 300 368 300 300 c 0
 300 231 244 175 175 175 c 0
 106 175 50 231 50 300 c 0
 50 370 106 425 177 425 c 0
EndSplineSet
Validated: 1
EndChar

StartChar: ellipsis
Encoding: 8230 8230 989
Width: 1000
Flags: MW
LayerCount: 2
Fore
SplineSet
242 146 m 1
 242 0 l 1
 92 0 l 1
 92 146 l 1
 242 146 l 1
575 146 m 1
 575 0 l 1
 425 0 l 1
 425 146 l 1
 575 146 l 1
908 146 m 1
 908 0 l 1
 758 0 l 1
 758 146 l 1
 908 146 l 1
EndSplineSet
Validated: 1
EndChar

StartChar: perthousand
Encoding: 8240 8240 990
Width: 1000
Flags: MW
LayerCount: 2
Fore
SplineSet
160 739 m 0
 244 739 310 673 310 589 c 0
 310 510 242 443 161 443 c 0
 78 443 11 510 11 591 c 0
 11 672 78 739 160 739 c 0
160 659 m 0
 122 659 90 628 90 590 c 0
 90 551 122 520 160 520 c 0
 199 520 231 551 231 589 c 0
 231 628 200 659 160 659 c 0
496 738 m 1
 563 738 l 1
 142 -21 l 1
 76 -21 l 1
 496 738 l 1
471 274 m 0
 555 274 621 208 621 124 c 0
 621 44 553 -22 472 -22 c 0
 389 -22 322 44 322 126 c 0
 322 207 389 274 471 274 c 0
471 194 m 0
 433 194 401 163 401 125 c 0
 401 86 433 55 472 55 c 0
 510 55 542 86 542 124 c 0
 542 163 511 194 471 194 c 0
840 274 m 0
 924 274 990 208 990 124 c 0
 990 44 922 -22 841 -22 c 0
 758 -22 691 44 691 126 c 0
 691 207 758 274 840 274 c 0
840 194 m 0
 802 194 770 163 770 125 c 0
 770 86 802 55 841 55 c 0
 879 55 911 86 911 124 c 0
 911 163 880 194 840 194 c 0
EndSplineSet
Validated: 1
EndChar

StartChar: guilsinglleft
Encoding: 8249 8249 991
Width: 333
Flags: MW
LayerCount: 2
Fore
SplineSet
83 218 m 1
 83 332 l 1
 250 481 l 1
 250 364 l 1
 149 275 l 1
 250 186 l 1
 250 72 l 1
 83 218 l 1
EndSplineSet
Validated: 1
EndChar

StartChar: guilsinglright
Encoding: 8250 8250 992
Width: 333
Flags: MW
LayerCount: 2
Fore
SplineSet
247 335 m 1
 247 220 l 1
 80 72 l 1
 80 189 l 1
 181 278 l 1
 80 367 l 1
 80 481 l 1
 247 335 l 1
EndSplineSet
Validated: 1
EndChar

StartChar: fraction
Encoding: 8260 8260 993
Width: 167
Flags: MW
LayerCount: 2
Fore
SplineSet
250 715 m 1
 337 715 l 1
 -86 -20 l 1
 -173 -20 l 1
 250 715 l 1
EndSplineSet
Validated: 1
EndChar

StartChar: foursuperior
Encoding: 8308 8308 994
Width: 351
Flags: MW
LayerCount: 2
Fore
SplineSet
334 452 m 1
 334 377 l 1
 288 377 l 1
 288 284 l 1
 193 284 l 1
 193 377 l 1
 14 377 l 1
 14 451 l 1
 179 709 l 1
 288 709 l 1
 288 452 l 1
 334 452 l 1
193 452 m 1
 193 616 l 1
 87 452 l 1
 193 452 l 1
EndSplineSet
Validated: 1
EndChar

StartChar: afii57636
Encoding: 8362 8362 999
Width: 1049
Flags: MW
LayerCount: 2
Fore
SplineSet
713 115 m 2
 794 122 832 152 840 231 c 2
 840 600 l 1
 979 600 l 1
 979 231 l 2
 979 36 775 0 722 0 c 0
 713 0 l 2
 336 0 l 1
 336 378 l 1
 475 378 l 1
 475 115 l 1
 713 115 l 2
540 600 m 2
 644 600 727 538 727 438 c 2
 727 218 l 1
 588 218 l 1
 588 438 l 2
 588 464 578 485 540 485 c 2
 219 485 l 1
 219 0 l 1
 80 0 l 1
 80 600 l 1
 540 600 l 2
EndSplineSet
Validated: 1
EndChar

StartChar: Euro
Encoding: 8364 8364 1000
Width: 556
Flags: MW
LayerCount: 2
Fore
SplineSet
349 -23 m 0
 295 -23 129 -2 78 250 c 1
 6 250 l 1
 30 318 l 1
 70 318 l 1
 68 332 68 341 68 353 c 0
 68 365 68 374 69 386 c 1
 6 386 l 1
 30 454 l 1
 78 454 l 1
 115 625 220 724 364 724 c 0
 434 724 474 709 546 656 c 1
 501 527 l 1
 438 577 400 594 355 594 c 0
 293 594 248 546 224 454 c 1
 475 454 l 1
 451 386 l 1
 211 386 l 1
 209 370 208 359 208 345 c 0
 208 335 208 328 210 318 c 1
 427 318 l 1
 402 250 l 1
 221 250 l 1
 247 159 295 108 355 108 c 0
 395 108 423 118 501 160 c 1
 501 11 l 1
 422 -15 388 -23 349 -23 c 0
EndSplineSet
Validated: 1
EndChar

StartChar: trademark
Encoding: 8482 8482 1001
Width: 1000
Flags: MW
LayerCount: 2
Fore
SplineSet
303 651 m 1
 303 273 l 1
 208 273 l 1
 208 651 l 1
 71 651 l 1
 71 729 l 1
 436 729 l 1
 436 651 l 1
 303 651 l 1
755 273 m 1
 661 273 l 1
 576 622 l 1
 576 273 l 1
 485 273 l 1
 485 729 l 1
 622 729 l 1
 708 379 l 1
 792 729 l 1
 929 729 l 1
 929 273 l 1
 838 273 l 1
 838 622 l 1
 755 273 l 1
EndSplineSet
Validated: 1
EndChar

StartChar: partialdiff
Encoding: 8706 8706 1003
Width: 556
Flags: MW
LayerCount: 2
Fore
SplineSet
519 337 m 0
 519 215 504 139 468 82 c 0
 427 16 353 -23 269 -23 c 0
 128 -23 32 83 32 237 c 0
 32 373 116 467 238 467 c 0
 296 467 335 450 379 404 c 1
 376 479 376 479 370 509 c 0
 357 573 317 611 261 611 c 0
 216 611 192 593 174 548 c 1
 44 548 l 1
 70 716 214 724 257 724 c 0
 457 724 519 555 519 337 c 0
272 357 m 0
 207 357 165 306 165 228 c 0
 165 152 211 97 273 97 c 0
 337 97 381 150 381 225 c 0
 381 303 337 357 272 357 c 0
EndSplineSet
Validated: 1
EndChar

StartChar: Delta.math
Encoding: 8710 8710 1004
Width: 729
Flags: HMW
LayerCount: 2
Fore
SplineSet
8 0 m 1
 268 729 l 1
 461 729 l 1
 721 0 l 1
 8 0 l 1
205 125 m 1
 524 125 l 1
 364 614 l 1
 205 125 l 1
EndSplineSet
EndChar

StartChar: summation
Encoding: 8721 8721 1005
Width: 711
Flags: MW
LayerCount: 2
Fore
SplineSet
513 18 m 2
 619 18 629 33 670 130 c 1
 694 130 l 1
 672 48 663 3 651 -96 c 1
 630 -90 602 -87 571 -87 c 2
 92 -87 l 2
 51 -87 51 -87 17 -91 c 1
 362 309 l 1
 17 760 l 1
 58 755 89 753 130 753 c 2
 616 753 l 1
 623 593 l 1
 601 593 l 1
 576 686 548 707 453 707 c 2
 192 707 l 1
 461 352 l 1
 171 18 l 1
 513 18 l 2
EndSplineSet
Validated: 1
EndChar

StartChar: minus
Encoding: 8722 8722 1006
Width: 584
Flags: MW
LayerCount: 2
Fore
SplineSet
544 291 m 1
 544 172 l 1
 40 172 l 1
 40 291 l 1
 544 291 l 1
EndSplineSet
Validated: 1
EndChar

StartChar: radical
Encoding: 8730 8730 1007
Width: 542
Flags: MW
LayerCount: 2
Fore
SplineSet
476 913 m 1
 512 908 l 1
 360 -36 l 1
 119 461 l 1
 25 415 l 1
 7 448 l 1
 155 521 l 1
 348 125 l 1
 476 913 l 1
EndSplineSet
Validated: 1
EndChar

StartChar: notequal
Encoding: 8800 8800 1008
Width: 548
Flags: MW
LayerCount: 2
Fore
SplineSet
123 52 m 1
 50 52 l 1
 50 171 l 1
 187 171 l 1
 255 292 l 1
 50 292 l 1
 50 411 l 1
 322 411 l 1
 387 528 l 1
 485 472 l 1
 450 411 l 1
 534 411 l 1
 534 292 l 1
 384 292 l 1
 316 171 l 1
 534 171 l 1
 534 52 l 1
 249 52 l 1
 181 -69 l 1
 84 -13 l 1
 123 52 l 1
EndSplineSet
Validated: 1
EndChar

StartChar: lessequal
Encoding: 8804 8804 1009
Width: 584
Flags: MW
LayerCount: 2
Fore
SplineSet
534 81 m 1
 534 -10 l 1
 45 -10 l 1
 45 81 l 1
 534 81 l 1
534 639 m 1
 534 530 l 1
 152 397 l 1
 534 266 l 1
 534 155 l 1
 45 337 l 1
 45 457 l 1
 534 639 l 1
EndSplineSet
Validated: 1
EndChar

StartChar: greaterequal
Encoding: 8805 8805 1010
Width: 584
Flags: MW
LayerCount: 2
Fore
SplineSet
534 81 m 1
 534 -10 l 1
 45 -10 l 1
 45 81 l 1
 534 81 l 1
45 155 m 1
 45 264 l 1
 427 397 l 1
 45 528 l 1
 45 639 l 1
 534 457 l 1
 534 336 l 1
 45 155 l 1
EndSplineSet
Validated: 1
EndChar

StartChar: lozenge
Encoding: 9674 9674 1011
Width: 489
Flags: MW
LayerCount: 2
Fore
SplineSet
270 744 m 1
 462 372 l 1
 270 0 l 1
 208 0 l 1
 16 372 l 1
 208 744 l 1
 270 744 l 1
240 60 m 1
 400 372 l 1
 240 684 l 1
 79 372 l 1
 240 60 l 1
EndSplineSet
Validated: 1
EndChar

StartChar: commaaccent
Encoding: 63171 63171 1021
Width: 333
Flags: MW
LayerCount: 2
Fore
SplineSet
112 -60 m 1
 234 -60 l 1
 234 -163 l 2
 234 -245 183 -305 112 -307 c 1
 112 -261 l 1
 157 -252 179 -223 179 -175 c 0
 179 -172 l 1
 112 -172 l 1
 112 -60 l 1
EndSplineSet
Validated: 1
EndChar

StartChar: fi
Encoding: 64257 64257 1023
Width: 611
Flags: MW
LayerCount: 2
Fore
SplineSet
548 540 m 1
 548 0 l 1
 408 0 l 1
 408 540 l 1
 548 540 l 1
548 729 m 1
 548 604 l 1
 408 604 l 1
 408 729 l 1
 548 729 l 1
308 529 m 1
 308 436 l 1
 225 436 l 1
 225 0 l 1
 85 0 l 1
 85 436 l 1
 9 436 l 1
 9 529 l 1
 85 529 l 1
 85 594 l 2
 85 685 130 729 223 729 c 0
 242 729 277 728 303 726 c 1
 303 621 l 1
 291 623 275 624 263 624 c 0
 237 624 225 610 225 582 c 2
 225 529 l 1
 308 529 l 1
EndSplineSet
Validated: 1
Ligature2: "'liga' Standard Ligatures in Latin subtable" f i
LCarets2: 1 0 
EndChar

StartChar: fl
Encoding: 64258 64258 1024
Width: 611
Flags: MW
LayerCount: 2
Fore
SplineSet
546 729 m 1
 546 0 l 1
 406 0 l 1
 406 729 l 1
 546 729 l 1
311 529 m 1
 311 436 l 1
 228 436 l 1
 228 0 l 1
 88 0 l 1
 88 436 l 1
 12 436 l 1
 12 529 l 1
 88 529 l 1
 88 594 l 2
 88 685 133 729 226 729 c 0
 245 729 280 728 306 726 c 1
 306 621 l 1
 294 623 278 624 266 624 c 0
 240 624 228 610 228 582 c 2
 228 529 l 1
 311 529 l 1
EndSplineSet
Validated: 1
Ligature2: "'liga' Standard Ligatures in Latin subtable" f l
EndChar

StartChar: uniFB1D
Encoding: 64285 64285 1025
Width: 284
Flags: MW
LayerCount: 2
Fore
SplineSet
212 333 m 1
 73 276 l 1
 73 600 l 1
 212 600 l 1
 212 333 l 1
104 224 m 1
 186 224 l 1
 186 142 l 1
 104 142 l 1
 104 224 l 1
EndSplineSet
Validated: 1
EndChar

StartChar: uniFB1E
Encoding: 64286 64286 1026
Width: 305
Flags: MW
LayerCount: 2
Fore
SplineSet
153 760 m 0
 185 760 203 779 206 813 c 1
 306 813 l 1
 306 813 300 760 282 731 c 0
 270 709 230 660 153 660 c 0
 68 660 11 714 0 813 c 1
 100 813 l 1
 105 807 100 760 153 760 c 0
EndSplineSet
Validated: 1
EndChar

StartChar: afii57705
Encoding: 64287 64287 1027
Width: 542
Flags: MW
LayerCount: 2
Fore
SplineSet
212 333 m 1
 73 276 l 1
 73 600 l 1
 212 600 l 1
 212 333 l 1
470 333 m 1
 331 276 l 1
 331 600 l 1
 470 600 l 1
 470 333 l 1
166 222 m 1
 366 222 l 1
 366 140 l 1
 166 140 l 1
 166 222 l 1
EndSplineSet
Validated: 1
EndChar

StartChar: uniFB20
Encoding: 64288 64288 1028
Width: 653
Flags: MW
LayerCount: 2
Fore
SplineSet
579 224 m 0
 579 95 449 0 336 0 c 0
 335 0 333 0 332 0 c 2
 86 0 l 1
 86 115 l 1
 209 115 l 1
 99 600 l 1
 241 600 l 1
 350 118 l 1
 371 122 440 155 440 231 c 2
 440 600 l 1
 579 600 l 1
 579 231 l 1
 579 229 579 227 579 224 c 0
EndSplineSet
Validated: 1
EndChar

StartChar: uniFB21
Encoding: 64289 64289 1029
Width: 964
Flags: MW
LayerCount: 2
Fore
SplineSet
871 433 m 2
 841 270 757 209 704 183 c 1
 900 0 l 1
 700 0 l 1
 342 337 l 1
 284 287 228 257 228 148 c 0
 228 0 l 1
 89 0 l 1
 89 158 l 2
 101 223 114 322 252 421 c 1
 61 600 l 1
 256 600 l 1
 623 258 l 1
 693 324 732 368 732 444 c 0
 732 600 l 1
 871 600 l 1
 871 433 l 2
EndSplineSet
Validated: 1
EndChar

StartChar: uniFB22
Encoding: 64290 64290 1030
Width: 888
Flags: MW
LayerCount: 2
Fore
SplineSet
594 485 m 1
 63 485 l 1
 63 600 l 1
 816 600 l 1
 816 485 l 1
 733 485 l 1
 733 0 l 1
 594 0 l 1
 594 485 l 1
EndSplineSet
Validated: 1
EndChar

StartChar: uniFB23
Encoding: 64291 64291 1031
Width: 932
Flags: MW
LayerCount: 2
Fore
SplineSet
723 365 m 2
 698 476 659 472 590 485 c 2
 79 485 l 1
 79 600 l 1
 602 600 l 2
 734 585 792 536 814 502 c 0
 846 456 862 426 862 374 c 0
 862 0 l 1
 723 0 l 1
 723 365 l 2
79 0 m 1
 79 349 l 1
 218 349 l 1
 218 0 l 1
 79 0 l 1
EndSplineSet
Validated: 1
EndChar

StartChar: uniFB24
Encoding: 64292 64292 1032
Width: 845
Flags: MW
LayerCount: 2
Fore
SplineSet
645 365 m 2
 620 474 583 472 512 485 c 2
 76 485 l 1
 76 600 l 1
 523 600 l 2
 655 585 712 538 735 502 c 0
 767 456 784 426 784 374 c 0
 784 226 l 2
 772 148 738 75 674 44 c 0
 621 16 585 0 523 0 c 0
 76 0 l 1
 76 115 l 1
 512 115 l 2
 585 129 620 126 645 235 c 2
 645 365 l 2
EndSplineSet
Validated: 1
EndChar

StartChar: uniFB25
Encoding: 64293 64293 1033
Width: 917
Flags: MW
LayerCount: 2
Fore
SplineSet
845 412 m 2
 842 230 535 261 535 107 c 0
 535 101 l 0
 535 0 l 1
 396 0 l 1
 396 107 l 2
 396 244 590 318 638 340 c 0
 668 354 706 380 706 419 c 0
 706 485 l 1
 62 485 l 1
 62 750 l 1
 201 750 l 1
 201 600 l 1
 845 600 l 1
 845 412 l 2
EndSplineSet
Validated: 1
EndChar

StartChar: uniFB26
Encoding: 64294 64294 1034
Width: 933
Flags: MW
LayerCount: 2
Fore
SplineSet
596 600 m 2
 815 600 863 419 863 369 c 2
 863 0 l 1
 80 0 l 1
 80 600 l 1
 596 600 l 2
724 369 m 2
 719 467 624 484 596 485 c 2
 219 485 l 1
 219 115 l 1
 724 115 l 1
 724 369 l 2
EndSplineSet
Validated: 1
EndChar

StartChar: uniFB27
Encoding: 64295 64295 1035
Width: 850
Flags: MW
LayerCount: 2
Fore
SplineSet
641 365 m 2
 616 476 577 472 508 485 c 2
 63 485 l 1
 63 600 l 1
 520 600 l 2
 652 585 710 536 732 502 c 0
 764 456 780 426 780 374 c 0
 780 0 l 1
 641 0 l 1
 641 365 l 2
EndSplineSet
Validated: 1
EndChar

StartChar: uniFB28
Encoding: 64296 64296 1036
Width: 1006
Flags: MW
LayerCount: 2
Fore
SplineSet
796 366 m 2
 774 458 767 465 663 485 c 2
 328 485 l 1
 328 229 l 2
 321 164 329 90 237 44 c 0
 208 29 151 0 87 0 c 0
 76 0 62 5 62 5 c 1
 62 121 l 1
 73.8058 118.47 70 115 102 115 c 0
 177.5 115 189 187 189 233 c 2
 189 485 l 1
 123 485 l 1
 123 600 l 1
 675 600 l 2
 740 593 903 582 935 374 c 2
 935 0 l 1
 796 0 l 1
 796 366 l 2
EndSplineSet
Validated: 1
EndChar

StartChar: uniFB29
Encoding: 64297 64297 1037
Width: 584
Flags: MW
LayerCount: 2
Fore
SplineSet
533 291 m 1
 533 172 l 1
 50 172 l 1
 50 291 l 1
 232 291 l 1
 232 473 l 1
 351 473 l 1
 351 291 l 1
 533 291 l 1
EndSplineSet
Validated: 1
EndChar

StartChar: afii57694
Encoding: 64298 64298 1038
Width: 840
Flags: MW
LayerCount: 2
Fore
SplineSet
766 260 m 0
 766 154 654 0 461 0 c 2
 382 0 l 2
 273 0 171 53 114 142 c 0
 87 181 76 223 76 265 c 2
 76 600 l 1
 215 600 l 1
 215 323 l 1
 283 323 l 2
 324 323 351 349 351 387 c 2
 351 600 l 1
 490 600 l 1
 490 387 l 2
 490 236 336 208 294 208 c 0
 290 208 286 208 283 208 c 0
 230 208 l 1
 236 198 l 2
 289 124 353 115 382 115 c 2
 461 115 l 2
 529 115 627 176 627 265 c 2
 627 600 l 1
 766 600 l 1
 766 265 l 1
 766 263 766 262 766 260 c 0
650 721 m 1
 732 721 l 1
 732 639 l 1
 650 639 l 1
 650 721 l 1
EndSplineSet
Validated: 1
EndChar

StartChar: afii57695
Encoding: 64299 64299 1039
Width: 840
Flags: MW
LayerCount: 2
Fore
SplineSet
766 260 m 0
 766 154 654 0 461 0 c 2
 382 0 l 2
 273 0 171 53 114 142 c 0
 87 181 76 223 76 265 c 2
 76 600 l 1
 215 600 l 1
 215 323 l 1
 283 323 l 2
 324 323 351 349 351 387 c 2
 351 600 l 1
 490 600 l 1
 490 387 l 2
 490 236 336 208 294 208 c 0
 290 208 286 208 283 208 c 0
 230 208 l 1
 236 198 l 2
 289 124 353 115 382 115 c 2
 461 115 l 2
 529 115 627 176 627 265 c 2
 627 600 l 1
 766 600 l 1
 766 265 l 1
 766 263 766 262 766 260 c 0
101 721 m 1
 183 721 l 1
 183 639 l 1
 101 639 l 1
 101 721 l 1
EndSplineSet
Validated: 1
EndChar

StartChar: uniFB2C
Encoding: 64300 64300 1040
Width: 840
Flags: MW
LayerCount: 2
Fore
SplineSet
766 260 m 0
 766 154 654 0 461 0 c 2
 382 0 l 2
 273 0 171 53 114 142 c 0
 87 181 76 223 76 265 c 2
 76 600 l 1
 215 600 l 1
 215 323 l 1
 283 323 l 2
 324 323 351 349 351 387 c 2
 351 600 l 1
 490 600 l 1
 490 387 l 2
 490 236 336 208 294 208 c 0
 290 208 286 208 283 208 c 0
 230 208 l 1
 236 198 l 2
 289 124 353 115 382 115 c 2
 461 115 l 2
 529 115 627 176 627 265 c 2
 627 600 l 1
 766 600 l 1
 766 265 l 1
 766 263 766 262 766 260 c 0
474 263 m 1
 556 263 l 1
 556 181 l 1
 474 181 l 1
 474 263 l 1
650 721 m 1
 732 721 l 1
 732 639 l 1
 650 639 l 1
 650 721 l 1
EndSplineSet
Validated: 1
EndChar

StartChar: uniFB2D
Encoding: 64301 64301 1041
Width: 840
Flags: MW
LayerCount: 2
Fore
SplineSet
766 260 m 0
 766 154 654 0 461 0 c 2
 382 0 l 2
 273 0 171 53 114 142 c 0
 87 181 76 223 76 265 c 2
 76 600 l 1
 215 600 l 1
 215 323 l 1
 283 323 l 2
 324 323 351 349 351 387 c 2
 351 600 l 1
 490 600 l 1
 490 387 l 2
 490 236 336 208 294 208 c 0
 290 208 286 208 283 208 c 0
 230 208 l 1
 236 198 l 2
 289 124 353 115 382 115 c 2
 461 115 l 2
 529 115 627 176 627 265 c 2
 627 600 l 1
 766 600 l 1
 766 265 l 1
 766 263 766 262 766 260 c 0
474 263 m 1
 556 263 l 1
 556 181 l 1
 474 181 l 1
 474 263 l 1
101 721 m 1
 183 721 l 1
 183 639 l 1
 101 639 l 1
 101 721 l 1
EndSplineSet
Validated: 1
EndChar

StartChar: uniFB2E
Encoding: 64302 64302 1042
Width: 714
Flags: MW
LayerCount: 2
Fore
SplineSet
621 433 m 2
 596 297 538 240 498 212 c 1
 650 0 l 1
 487 0 l 1
 286 285 l 1
 247 237 241 207 228 148 c 1
 228 0 l 1
 89 0 l 1
 89 158 l 2
 105 245 132 331 212 388 c 1
 61 600 l 1
 222 600 l 1
 425 315 l 1
 463 362 469 389 482 444 c 1
 482 600 l 1
 621 600 l 1
 621 433 l 2
256 -60 m 1
 456 -60 l 1
 456 -142 l 1
 256 -142 l 1
 256 -60 l 1
EndSplineSet
Validated: 1
EndChar

StartChar: uniFB2F
Encoding: 64303 64303 1043
Width: 714
Flags: MW
LayerCount: 2
Fore
SplineSet
621 433 m 2
 596 297 538 240 498 212 c 1
 650 0 l 1
 487 0 l 1
 286 285 l 1
 247 237 241 207 228 148 c 1
 228 0 l 1
 89 0 l 1
 89 158 l 2
 105 245 132 331 212 388 c 1
 61 600 l 1
 222 600 l 1
 425 315 l 1
 463 362 469 389 482 444 c 1
 482 600 l 1
 621 600 l 1
 621 433 l 2
405 -142 m 1
 405 -248 l 1
 323 -248 l 1
 323 -142 l 1
 264 -142 l 1
 264 -60 l 1
 464 -60 l 1
 464 -142 l 1
 405 -142 l 1
EndSplineSet
Validated: 1
EndChar

StartChar: uniFB30
Encoding: 64304 64304 1044
Width: 714
Flags: MW
LayerCount: 2
Fore
SplineSet
621 433 m 2
 596 297 538 240 498 212 c 1
 650 0 l 1
 487 0 l 1
 286 285 l 1
 247 237 241 207 228 148 c 1
 228 0 l 1
 89 0 l 1
 89 158 l 2
 105 245 132 331 212 388 c 1
 61 600 l 1
 222 600 l 1
 425 315 l 1
 463 362 469 389 482 444 c 1
 482 600 l 1
 621 600 l 1
 621 433 l 2
270 153 m 1
 352 153 l 1
 352 71 l 1
 270 71 l 1
 270 153 l 1
EndSplineSet
Validated: 1
EndChar

StartChar: uniFB31
Encoding: 64305 64305 1045
Width: 651
Flags: MW
LayerCount: 2
Fore
SplineSet
259 600 m 2
 324 593 487 579 519 374 c 2
 519 115 l 1
 610 115 l 1
 610 0 l 1
 77 0 l 1
 77 115 l 1
 380 115 l 1
 380 365 l 2
 355 476 316 472 247 485 c 2
 77 485 l 1
 77 600 l 1
 259 600 l 2
216 339 m 1
 298 339 l 1
 298 257 l 1
 216 257 l 1
 216 339 l 1
EndSplineSet
Validated: 1
EndChar

StartChar: uniFB32
Encoding: 64306 64306 1046
Width: 557
Flags: MW
LayerCount: 2
Fore
SplineSet
347 138 m 1
 220 0 l 1
 47 0 l 1
 224 194 l 1
 341 194 l 1
 322 361 l 2
 298 456 294 465 188 485 c 2
 115 485 l 1
 115 600 l 1
 200 600 l 2
 437 573 446 434 460 378 c 2
 503 0 l 1
 363 0 l 1
 347 138 l 1
190 339 m 1
 272 339 l 1
 272 257 l 1
 190 257 l 1
 190 339 l 1
EndSplineSet
Validated: 1
EndChar

StartChar: uniFB33
Encoding: 64307 64307 1047
Width: 638
Flags: MW
LayerCount: 2
Fore
SplineSet
344 485 m 1
 63 485 l 1
 63 600 l 1
 566 600 l 1
 566 485 l 1
 483 485 l 1
 483 0 l 1
 344 0 l 1
 344 485 l 1
206 339 m 1
 288 339 l 1
 288 257 l 1
 206 257 l 1
 206 339 l 1
EndSplineSet
Validated: 1
EndChar

StartChar: uniFB34
Encoding: 64308 64308 1048
Width: 682
Flags: MW
LayerCount: 2
Fore
SplineSet
473 365 m 2
 448 476 409 472 340 485 c 2
 79 485 l 1
 79 600 l 1
 352 600 l 2
 419 593 580 579 612 374 c 1
 612 0 l 1
 473 0 l 1
 473 365 l 2
79 0 m 1
 79 349 l 1
 218 349 l 1
 218 0 l 1
 79 0 l 1
304 339 m 1
 386 339 l 1
 386 257 l 1
 304 257 l 1
 304 339 l 1
EndSplineSet
Validated: 1
EndChar

StartChar: afii57723
Encoding: 64309 64309 1049
Width: 367
Flags: MW
LayerCount: 2
Fore
SplineSet
149 0 m 1
 149 600 l 1
 288 600 l 1
 288 0 l 1
 149 0 l 1
30 339 m 1
 112 339 l 1
 112 257 l 1
 30 257 l 1
 30 339 l 1
EndSplineSet
Validated: 1
EndChar

StartChar: uniFB36
Encoding: 64310 64310 1050
Width: 443
Flags: MW
LayerCount: 2
Fore
SplineSet
149 485 m 1
 63 485 l 1
 63 600 l 1
 371 600 l 1
 371 485 l 1
 288 485 l 1
 288 0 l 1
 149 0 l 1
 149 485 l 1
26 339 m 1
 108 339 l 1
 108 257 l 1
 26 257 l 1
 26 339 l 1
EndSplineSet
Validated: 1
EndChar

StartChar: uniFB38
Encoding: 64312 64312 1051
Width: 670
Flags: MW
LayerCount: 2
Fore
SplineSet
340 485 m 2
 313 485 294 473 294 473 c 1
 294 595 l 1
 307 597 311 600 345 600 c 0
 390 600 512 577 560 502 c 0
 592 456 609 426 609 374 c 0
 609 226 l 2
 597 148 563 75 499 44 c 0
 458 21 407 0 342 0 c 0
 296 0 174 23 125 98 c 0
 93 144 76 174 76 226 c 0
 76 600 l 1
 215 600 l 1
 215 235 l 2
 225 194 232 160 262 141 c 0
 306 118 307 116 342 115 c 0
 455 118 464 206 470 235 c 2
 470 365 l 2
 462 400 456 440 422 459 c 0
 381 480 379 485 340 485 c 2
300 339 m 1
 382 339 l 1
 382 257 l 1
 300 257 l 1
 300 339 l 1
EndSplineSet
Validated: 1
EndChar

StartChar: uniFB39
Encoding: 64313 64313 1052
Width: 354
Flags: MW
LayerCount: 2
Fore
SplineSet
282 333 m 1
 143 276 l 1
 143 600 l 1
 282 600 l 1
 282 333 l 1
34 437 m 1
 116 437 l 1
 116 355 l 1
 34 355 l 1
 34 437 l 1
EndSplineSet
Validated: 1
EndChar

StartChar: uniFB3A
Encoding: 64314 64314 1053
Width: 590
Flags: MW
LayerCount: 2
Fore
SplineSet
381 365 m 2
 356 474 319 472 248 485 c 2
 62 485 l 1
 62 600 l 1
 259 600 l 2
 391 585 448 538 471 502 c 0
 503 456 520 426 520 374 c 0
 520 -200 l 1
 381 -200 l 1
 381 365 l 2
216 339 m 1
 298 339 l 1
 298 257 l 1
 216 257 l 1
 216 339 l 1
EndSplineSet
Validated: 1
EndChar

StartChar: uniFB3B
Encoding: 64315 64315 1054
Width: 595
Flags: MW
LayerCount: 2
Fore
SplineSet
395 365 m 2
 370 474 333 472 262 485 c 2
 76 485 l 1
 76 600 l 1
 273 600 l 2
 405 585 461 538 485 502 c 0
 517 456 534 426 534 374 c 0
 534 226 l 2
 521 148 488 75 424 44 c 0
 371 16 335 7 273 0 c 2
 76 0 l 1
 76 115 l 1
 262 115 l 2
 335 129 370 126 395 235 c 2
 395 365 l 2
212 339 m 1
 294 339 l 1
 294 257 l 1
 212 257 l 1
 212 339 l 1
EndSplineSet
Validated: 1
EndChar

StartChar: uniFB3C
Encoding: 64316 64316 1055
Width: 667
Flags: MW
LayerCount: 2
Fore
SplineSet
232 419 m 1
 314 419 l 1
 314 337 l 1
 232 337 l 1
 232 419 l 1
410 101 m 2
 410 0 l 1
 271 0 l 1
 271 107 l 1
 277 154 275 188 307 233 c 0
 394 352 432 263 456 419 c 2
 456 485 l 1
 62 485 l 1
 62 750 l 1
 201 750 l 1
 201 600 l 1
 595 600 l 1
 595 412 l 2
 576 156 410 273 410 101 c 2
EndSplineSet
Validated: 1
EndChar

StartChar: uniFB3E
Encoding: 64318 64318 1056
Width: 704
Flags: MW
LayerCount: 2
Fore
SplineSet
494 369 m 2
 494 434 442 485 367 485 c 2
 298 485 l 1
 226 0 l 1
 86 0 l 1
 158 485 l 1
 67 485 l 1
 67 600 l 1
 367 600 l 2
 514 600 633 504 633 369 c 2
 633 0 l 1
 363 0 l 1
 363 115 l 1
 494 115 l 1
 494 369 l 2
336 339 m 1
 418 339 l 1
 418 257 l 1
 336 257 l 1
 336 339 l 1
EndSplineSet
Validated: 1
EndChar

StartChar: uniFB40
Encoding: 64320 64320 1057
Width: 429
Flags: MW
LayerCount: 2
Fore
SplineSet
220 365 m 2
 210 410 195 485 84 485 c 1
 84 600 l 1
 148 600 348 567 359 374 c 2
 359 0 l 1
 73 0 l 1
 73 115 l 1
 220 115 l 1
 220 365 l 2
77 339 m 1
 159 339 l 1
 159 257 l 1
 77 257 l 1
 77 339 l 1
EndSplineSet
Validated: 1
EndChar

StartChar: uniFB41
Encoding: 64321 64321 1058
Width: 670
Flags: MW
LayerCount: 2
Fore
SplineSet
342 0 m 2
 340 0 339 0 337 0 c 0
 287 0 87 34 76 226 c 2
 76 600 l 1
 348 600 l 2
 402 597 576 582 609 374 c 2
 609 226 l 2
 596 148 563 75 499 44 c 0
 458 22 409 0 346 0 c 0
 345 0 343 0 342 0 c 2
470 365 m 2
 445 474 407 472 337 485 c 2
 215 485 l 1
 215 235 l 2
 224 194 231 160 262 141 c 0
 306 118 307 116 342 115 c 0
 454 118 463 206 470 235 c 2
 470 365 l 2
300 339 m 1
 382 339 l 1
 382 257 l 1
 300 257 l 1
 300 339 l 1
EndSplineSet
Validated: 1
EndChar

StartChar: uniFB43
Encoding: 64323 64323 1059
Width: 661
Flags: MW
LayerCount: 2
Fore
SplineSet
211 407 m 2
 211 358 221 356 266 356 c 2
 319 356 l 1
 319 241 l 1
 254 241 l 2
 189 241 72 250 72 398 c 2
 72 601 l 1
 328 601 l 2
 371 600 493 593 563 475 c 0
 589 433 590 404 590 373 c 0
 590 -200 l 1
 451 -200 l 1
 451 367 l 2
 447 396 453 438 377 476 c 0
 358 486 258 486 211 486 c 1
 211 407 l 2
339 396 m 1
 421 396 l 1
 421 314 l 1
 339 314 l 1
 339 396 l 1
EndSplineSet
Validated: 1
EndChar

StartChar: uniFB44
Encoding: 64324 64324 1060
Width: 660
Flags: MW
LayerCount: 2
Fore
SplineSet
218 406 m 2
 218 358 229 355 273 355 c 2
 326 355 l 1
 326 240 l 1
 261 240 l 2
 208 240 79 254 79 397 c 2
 79 600 l 1
 335 600 l 2
 377 599 499 595 570 474 c 0
 596 432 597 403 597 372 c 0
 597 228 l 1
 593 197 596 168 570 126 c 0
 499 6 383 4 335 0 c 1
 79 0 l 1
 79 115 l 1
 327 115 l 2
 368 120 402 114 446 180 c 0
 456 194 458 201 458 234 c 0
 458 366 l 2
 455 395 460 437 384 475 c 0
 365 485 265 485 218 485 c 1
 218 406 l 2
352 389 m 1
 434 389 l 1
 434 307 l 1
 352 307 l 1
 352 389 l 1
EndSplineSet
Validated: 1
EndChar

StartChar: uniFB46
Encoding: 64326 64326 1061
Width: 671
Flags: MW
LayerCount: 2
Fore
SplineSet
579 433 m 2
 572 394 542 290 440 258 c 1
 606 0 l 1
 86 0 l 1
 86 115 l 1
 374 115 l 1
 61 600 l 1
 219 600 l 1
 373 362 l 1
 417 366 428 404 440 444 c 2
 440 600 l 1
 579 600 l 1
 579 433 l 2
118 287 m 1
 200 287 l 1
 200 205 l 1
 118 205 l 1
 118 287 l 1
EndSplineSet
Validated: 1
EndChar

StartChar: uniFB47
Encoding: 64327 64327 1062
Width: 672
Flags: MW
LayerCount: 2
Fore
SplineSet
341 164 m 1
 425 180 441 201 460 285 c 2
 460 485 l 1
 80 485 l 1
 80 600 l 1
 599 600 l 1
 599 276 l 2
 588 196 554 129 489 94 c 1
 437 65 403 51 335 49 c 1
 335 165 l 1
 341 164 l 1
219 371 m 1
 219 -200 l 1
 80 -200 l 1
 80 371 l 1
 219 371 l 1
294 366 m 1
 376 366 l 1
 376 284 l 1
 294 284 l 1
 294 366 l 1
EndSplineSet
Validated: 1
EndChar

StartChar: uniFB48
Encoding: 64328 64328 1063
Width: 600
Flags: MW
LayerCount: 2
Fore
SplineSet
391 365 m 2
 366 476 327 472 258 485 c 2
 63 485 l 1
 63 600 l 1
 270 600 l 2
 337 593 498 579 530 374 c 1
 530 0 l 1
 391 0 l 1
 391 365 l 2
216 339 m 1
 298 339 l 1
 298 257 l 1
 216 257 l 1
 216 339 l 1
EndSplineSet
Validated: 1
EndChar

StartChar: uniFB49
Encoding: 64329 64329 1064
Width: 840
Flags: MW
LayerCount: 2
Fore
SplineSet
766 260 m 0
 766 154 654 0 461 0 c 2
 382 0 l 2
 273 0 171 53 114 142 c 0
 87 181 76 223 76 265 c 2
 76 600 l 1
 215 600 l 1
 215 323 l 1
 283 323 l 2
 324 323 351 349 351 387 c 2
 351 600 l 1
 490 600 l 1
 490 387 l 2
 490 236 336 208 294 208 c 0
 290 208 286 208 283 208 c 0
 230 208 l 1
 236 198 l 2
 289 124 353 115 382 115 c 2
 461 115 l 2
 529 115 627 176 627 265 c 2
 627 600 l 1
 766 600 l 1
 766 265 l 1
 766 263 766 262 766 260 c 0
474 263 m 1
 556 263 l 1
 556 181 l 1
 474 181 l 1
 474 263 l 1
EndSplineSet
Validated: 1
EndChar

StartChar: uniFB4A
Encoding: 64330 64330 1065
Width: 756
Flags: MW
LayerCount: 2
Fore
SplineSet
546 366 m 2
 524 458 517 465 413 485 c 2
 328 485 l 1
 328 229 l 2
 321 164 329 90 237 44 c 0
 208 29 151 0 87 0 c 0
 76 0 62 5 62 5 c 1
 62 121 l 1
 73.8058 118.47 70 115 102 115 c 1
 178.5 115 189 146.5 189 233 c 2
 189 485 l 1
 123 485 l 1
 123 600 l 1
 425 600 l 2
 490 593 653 582 685 374 c 2
 685 0 l 1
 546 0 l 1
 546 366 l 2
395 339 m 1
 477 339 l 1
 477 257 l 1
 395 257 l 1
 395 339 l 1
EndSplineSet
Validated: 1
EndChar

StartChar: afii57700
Encoding: 64331 64331 1066
Width: 297
Flags: MW
LayerCount: 2
Fore
SplineSet
79 0 m 1
 79 600 l 1
 218 600 l 1
 218 0 l 1
 79 0 l 1
104 742 m 1
 186 742 l 1
 186 660 l 1
 104 660 l 1
 104 742 l 1
EndSplineSet
Validated: 1
EndChar

StartChar: uniFB4C
Encoding: 64332 64332 1067
Width: 651
Flags: MW
LayerCount: 2
Fore
SplineSet
259 600 m 2
 324 593 487 579 519 374 c 2
 519 115 l 1
 610 115 l 1
 610 0 l 1
 77 0 l 1
 77 115 l 1
 380 115 l 1
 380 365 l 2
 355 476 316 472 247 485 c 2
 77 485 l 1
 77 600 l 1
 259 600 l 2
166 742 m 1
 366 742 l 1
 366 660 l 1
 166 660 l 1
 166 742 l 1
EndSplineSet
Validated: 1
EndChar

StartChar: uniFB4D
Encoding: 64333 64333 1068
Width: 595
Flags: MW
LayerCount: 2
Fore
SplineSet
395 365 m 2
 370 474 333 472 262 485 c 2
 76 485 l 1
 76 600 l 1
 273 600 l 2
 405 585 461 538 485 502 c 0
 517 456 534 426 534 374 c 0
 534 226 l 2
 521 148 488 75 424 44 c 0
 371 16 335 7 273 0 c 2
 76 0 l 1
 76 115 l 1
 262 115 l 2
 335 129 370 126 395 235 c 2
 395 365 l 2
168 742 m 1
 368 742 l 1
 368 660 l 1
 168 660 l 1
 168 742 l 1
EndSplineSet
Validated: 1
EndChar

StartChar: uniFB4E
Encoding: 64334 64334 1069
Width: 660
Flags: MW
LayerCount: 2
Fore
SplineSet
218 406 m 2
 218 358 229 355 273 355 c 2
 326 355 l 1
 326 240 l 1
 261 240 l 2
 186 240 79 261 79 397 c 2
 79 600 l 1
 335 600 l 2
 377 599 499 595 570 474 c 0
 596 432 597 403 597 372 c 0
 597 228 l 1
 593 197 596 168 570 126 c 0
 499 6 383 4 335 0 c 1
 79 0 l 1
 79 115 l 1
 327 115 l 2
 368 120 402 114 446 180 c 0
 456 194 458 201 458 234 c 0
 458 366 l 2
 455 395 460 437 384 475 c 0
 365 485 265 485 218 485 c 1
 218 406 l 2
214 742 m 1
 414 742 l 1
 414 660 l 1
 214 660 l 1
 214 742 l 1
EndSplineSet
Validated: 1
EndChar

StartChar: uniFB4F
Encoding: 64335 64335 1070
Width: 714
Flags: MW
LayerCount: 2
Fore
SplineSet
621 433 m 2
 596 297 538 240 498 212 c 1
 650 0 l 1
 487 0 l 1
 83 569 l 1
 83 750 l 1
 222 750 l 1
 222 600 l 1
 425 315 l 1
 463 362 469 389 482 444 c 1
 482 600 l 1
 621 600 l 1
 621 433 l 2
EndSplineSet
Validated: 1
LCarets2: 1 0 
Ligature2: "'dlig' Discretionary Ligatures in Hebrew lookup 3 subtable" afii57664 afii57676
EndChar

StartChar: uniFE9E
Encoding: 65182 65182 1071
Width: 636
VWidth: 2048
Flags: MW
LayerCount: 2
Fore
SplineSet
363 -120 m 1
 250 -120 l 1
 250 -6 l 1
 363 -6 l 1
 363 -120 l 1
418 228 m 1
 438 197 481 129 576 129 c 2
 650 129 l 1
 650 0 l 1
 555 0 l 2
 487 0 432 26 391 77 c 0
 369 110 350 144 330 179 c 1
 234 112 136 28 136 -62 c 0
 136 -160 210 -228 330 -228 c 0
 384 -228 432 -215 458 -209 c 2
 543 -178 l 1
 598 -283 l 1
 506 -332 393 -355 335 -355 c 0
 301 -355 276 -354 259 -351 c 2
 214 -343 l 1
 196 -336 l 2
 97 -307 13 -224 13 -69 c 0
 13 -16 35 42 78 106 c 1
 104 136 l 1
 136 168 l 1
 170 196 l 1
 212 226 l 1
 262 257 l 1
 316 285 l 1
 288 286 l 1
 220 288 l 1
 196 287 l 1
 154 284 l 1
 145 283 l 1
 136 281 l 1
 94 262 l 1
 84 256 l 1
 26 349 l 1
 34 359 l 1
 59 379 l 1
 77 391 l 2
 100 405 124 412 152 412 c 0
 158 412 l 2
 617 396 l 1
 606 274 l 1
 564 274 l 2
 546 274 531 272 521 270 c 2
 500 266 l 1
 491 264 l 1
 443 243 l 1
 418 228 l 1
EndSplineSet
Validated: 1
EndChar

StartChar: uni0190
Encoding: 400 400 1077
Width: 672
Flags: MW
TeX: 117 0
LayerCount: 2
Fore
SplineSet
620 507 m 1
 480 507 l 1
 475 581 422 621 327 621 c 0
 250 621 201 586 201 531 c 0
 201 478 230 428 339 428 c 2
 415 428 l 1
 415 308 l 1
 313 308 l 2
 211 308 176 254 176 195 c 0
 176 134 232 97 323 97 c 0
 425 97 482 140 487 218 c 1
 633 218 l 1
 624 62 517 -23 331 -23 c 0
 143 -23 32 65 32 213 c 0
 32 293 59 343 121 377 c 1
 78 409 58 453 58 517 c 0
 58 659 159 741 334 741 c 0
 448 741 620 706 620 507 c 1
EndSplineSet
Validated: 1
EndChar

StartChar: uni0258
Encoding: 600 600 1079
Width: 556
Flags: MW
TeX: 117 0
LayerCount: 2
Fore
SplineSet
275 549 m 0
 430 549 525 437 525 256 c 0
 525 83 431 -23 278 -23 c 0
 157 -23 59 46 28 152 c 1
 166 152 l 1
 183 109 222 84 273 84 c 0
 367 84 382 153 385 226 c 1
 23 226 l 1
 22 238 22 243 22 250 c 0
 22 489 167 549 275 549 c 0
168 319 m 1
 383 319 l 1
 374 401 339 442 277 442 c 0
 212 442 174 398 168 319 c 1
EndSplineSet
Validated: 1
EndChar

StartChar: uni0228
Encoding: 552 552 1096
Width: 667
Flags: M
TeX: 117 0
LayerCount: 2
Fore
SplineSet
229 314 m 1
 229 125 l 1
 624 125 l 1
 624 0 l 1
 369.778 1.94289e-16 l 1
 344 -56 l 1
 359 -51 371 -49 386 -49 c 0
 433 -49 462 -76 462 -120 c 0
 462 -180 416 -213 333 -213 c 0
 289 -213 260 -207 195 -185 c 1
 214 -133 l 1
 267 -156 291 -163 319 -163 c 0
 351 -163 376 -145 376 -122 c 0
 376 -101 356 -87 325 -87 c 0
 305 -87 295 -90 276 -99 c 1
 326.434 7.77156e-16 l 1
 79 0 l 1
 79 729 l 1
 606 729 l 1
 606 604 l 1
 229 604 l 1
 229 439 l 1
 578 439 l 1
 578 314 l 1
 229 314 l 1
EndSplineSet
Validated: 1
EndChar

StartChar: uni0229
Encoding: 553 553 1097
Width: 556
Flags: M
TeX: 117 0
LayerCount: 2
Fore
SplineSet
379 319 m 1
 373 398 335 442 270 442 c 0
 208 442 173 401 164 319 c 1
 379 319 l 1
272 549 m 0
 380 549 525 489 525 250 c 0
 525 243 525 238 524 226 c 1
 162 226 l 1
 165 153 180 84 274 84 c 0
 325 84 364 109 381 152 c 1
 519 152 l 1
 489.643 51.6194 400.202 -15.5802 288.043 -22.423 c 1
 262 -79 l 1
 277 -74 289 -72 304 -72 c 0
 351 -72 380 -99 380 -143 c 0
 380 -203 334 -236 251 -236 c 0
 207 -236 178 -230 113 -208 c 1
 132 -156 l 1
 185 -179 209 -186 237 -186 c 0
 269 -186 294 -168 294 -145 c 0
 294 -124 274 -110 243 -110 c 0
 223 -110 213 -113 194 -122 c 1
 244.897 -22.0913 l 1
 106.187 -11.437 22 92.2785 22 256 c 0
 22 437 117 549 272 549 c 0
EndSplineSet
Validated: 1
EndChar

StartChar: uni0283
Encoding: 643 643 1104
Width: 333
Flags: MW
TeX: 117 0
LayerCount: 2
Fore
SplineSet
230 582 m 2
 230 -94 l 2
 230 -182 194 -218 107 -218 c 0
 87 -218 52 -216 24 -213 c 1
 24 -101 l 1
 34 -104 40 -105 49 -105 c 0
 79 -105 90 -94 90 -63 c 2
 90 594 l 2
 90 685 135 729 228 729 c 0
 247 729 282 728 308 726 c 1
 308 621 l 1
 296 623 280 624 268 624 c 0
 242 624 230 610 230 582 c 2
EndSplineSet
Validated: 1
EndChar

StartChar: uni0251
Encoding: 593 593 1108
Width: 667
Flags: MW
TeX: 117 0
LayerCount: 2
Fore
SplineSet
256 -23 m 0
 120 -23 29 104 29 262 c 0
 29 425 127 549 256 549 c 0
 323 549 370 524 405 470 c 1
 405 540 l 1
 543 540 l 1
 543 142 l 2
 543 131 544 116 565 116 c 0
 574 116 597 125 628 141 c 1
 676 14 l 1
 626 -6 585 -17 554 -17 c 0
 502 -17 440 3 416 73 c 1
 384 14 336 -23 256 -23 c 0
287 432 m 0
 217 432 169 362 169 262 c 0
 169 163 217 94 287 94 c 0
 357 94 405 162 405 260 c 0
 405 363 358 432 287 432 c 0
EndSplineSet
Validated: 1
EndChar

StartChar: uni0272
Encoding: 626 626 1110
Width: 611
Flags: MW
TeX: 117 0
LayerCount: 2
Fore
SplineSet
63 540 m 1
 203 540 l 1
 203 462 l 1
 238 518 292 549 365 549 c 0
 480 549 546 481 546 362 c 2
 546 0 l 1
 406 0 l 1
 406 333 l 2
 406 397 376 430 316 430 c 0
 248 430 203 388 203 324 c 2
 203 -94 l 2
 203 -182 167 -218 80 -218 c 0
 60 -218 25 -216 -3 -213 c 1
 -3 -101 l 1
 7 -104 13 -105 22 -105 c 0
 52 -105 63 -94 63 -63 c 2
 63 540 l 1
EndSplineSet
Validated: 1
EndChar

StartChar: uni0273
Encoding: 627 627 1111
Width: 611
Flags: MW
TeX: 117 0
LayerCount: 2
Fore
SplineSet
63 540 m 1
 203 540 l 1
 203 462 l 1
 243 522 292 549 365 549 c 0
 480 549 546 481 546 362 c 2
 546 -63 l 2
 546 -94 557 -105 587 -105 c 0
 596 -105 602 -104 612 -101 c 1
 612 -213 l 1
 584 -216 549 -218 529 -218 c 0
 442 -218 406 -182 406 -94 c 2
 406 333 l 2
 406 397 376 430 316 430 c 0
 248 430 203 388 203 324 c 2
 203 0 l 1
 63 0 l 1
 63 540 l 1
EndSplineSet
Validated: 1
EndChar

StartChar: uni0261
Encoding: 609 609 1112
Width: 611
Flags: MW
TeX: 117 0
LayerCount: 2
Fore
SplineSet
288 432 m 0
 220 432 174 361 174 259 c 0
 174 161 220 94 286 94 c 0
 359 94 410 161 410 259 c 0
 410 359 358 432 288 432 c 0
541 410 m 2
 541 -18 l 2
 541 -145 447 -218 284 -218 c 0
 141 -218 45 -159 45 -65 c 1
 190 -65 l 1
 201 -106 236 -128 289 -128 c 0
 359 -128 408 -83 408 -18 c 2
 408 55 l 1
 356 -4 318 -23 255 -23 c 0
 122 -23 34 89 34 257 c 0
 34 424 130 549 258 549 c 0
 320 549 366 521 408 457 c 1
 421 496 445 548 507 548 c 0
 531 548 561 541 597 528 c 1
 574 414 l 1
 569.037 415.654 559.513 418.829 551.967 418.829 c 0
 545.829 418.829 541 416.728 541 410 c 2
EndSplineSet
Validated: 1
EndChar

StartChar: uni0271
Encoding: 625 625 1113
Width: 889
Flags: MW
TeX: 117 0
LayerCount: 2
Fore
SplineSet
60 540 m 1
 199 540 l 1
 199 473 l 1
 245 528 285 549 347 549 c 0
 414 549 468 520 494 469 c 1
 536 525 584 549 652 549 c 0
 760 549 824 487 824 382 c 2
 824 -94 l 2
 824 -182 788 -218 701 -218 c 0
 681 -218 646 -216 618 -213 c 1
 618 -101 l 1
 628 -104 634 -105 643 -105 c 0
 673 -105 684 -94 684 -63 c 2
 684 360 l 2
 684 403 655 430 608 430 c 0
 548 430 512 390 512 324 c 2
 512 0 l 1
 372 0 l 1
 372 360 l 2
 372 403 343 430 296 430 c 0
 236 430 200 390 200 324 c 2
 200 0 l 1
 60 0 l 1
 60 540 l 1
EndSplineSet
Validated: 1
EndChar

